<svg width="164" height="297" viewBox="0 0 164 297" fill="none" xmlns="http://www.w3.org/2000/svg">
<path d="M105.204 271.214C77.2169 268.243 70.1141 209.772 69.0539 161.17C69.0539 160.533 69.0539 159.896 68.9479 159.26C64.8134 115.857 63.4352 98.5602 63.0112 92.087C62.9052 90.1768 62.9052 88.2667 63.2232 86.3566C65.1315 73.0918 76.8989 6.44977 120.046 0.825518C121.636 0.613282 123.226 0.613281 124.711 0.613281C134.676 1.14387 142.945 5.07024 149.093 12.2863C165.419 31.1753 163.829 67.1492 162.345 81.7935C162.027 84.5526 161.391 87.2055 160.331 89.6462C157.256 96.9684 149.836 115.433 148.563 129.547C146.973 146.632 148.033 204.89 148.139 211.47C148.139 212.212 148.139 212.849 148.139 213.592C147.821 219.11 144.005 267.394 109.551 271.108C108.809 271.214 107.961 271.214 107.218 271.214C106.476 271.32 105.84 271.214 105.204 271.214ZM120.258 2.5234C78.383 7.93542 66.8277 73.5163 64.9194 86.5688C64.7074 88.3728 64.6014 90.1768 64.7074 91.9808C65.1315 98.454 66.5096 115.751 70.6441 159.153C70.6441 159.79 70.7501 160.533 70.7501 161.17C71.8103 209.029 78.7011 266.651 105.31 269.516C106.688 269.622 107.961 269.622 109.339 269.516C142.309 265.908 146.019 218.898 146.337 213.592C146.337 212.955 146.337 212.319 146.337 211.682C146.231 205.103 145.171 146.738 146.761 129.547C148.033 115.221 155.454 96.4378 158.635 89.1157C159.589 86.7811 160.225 84.2342 160.543 81.6874C161.603 70.4389 164.041 32.3425 147.715 13.4536C141.885 6.662 134.04 2.94788 124.499 2.41729H123.332C122.378 2.31117 121.318 2.41729 120.258 2.5234Z" fill="#FFED00"/>
<path d="M108.385 264.105C111.035 264.105 113.685 263.469 116.017 262.408C117.184 261.877 117.184 261.877 117.926 261.665C125.877 258.693 131.283 253.6 134.146 246.278C141.885 226.54 128.527 195.235 119.834 178.256C114.427 167.538 111.141 155.865 110.293 143.874L108.597 121.271C108.597 121.058 107.43 112.251 132.343 100.047C154.924 89.9659 161.285 82.7499 162.663 78.399C163.087 77.3378 163.087 76.0644 162.663 74.8971C162.451 74.4727 161.921 74.3665 161.497 74.5788C161.073 74.791 160.967 75.3216 161.179 75.7461C161.391 76.4889 161.391 77.3378 160.967 78.0807C159.801 81.2642 154.394 88.268 131.601 98.4553C105.204 111.402 106.794 121.058 106.9 121.483L108.491 143.98C109.339 156.183 112.731 168.069 118.244 178.999C126.725 195.659 139.87 226.434 132.449 245.535C129.799 252.326 124.71 257.208 117.29 259.861C116.441 260.179 116.441 260.179 115.275 260.71C112.413 261.983 106.688 263.575 101.176 260.285C93.1187 255.404 88.1361 242.245 86.4399 220.915C84.8497 200.965 83.8956 186.852 83.1535 176.452C81.7753 157.563 81.3513 150.453 79.8671 142.176C79.4431 139.947 79.125 137.294 78.807 134.323C76.8988 120.209 74.3544 100.79 64.4953 96.7574C64.0712 96.5452 63.5412 96.7574 63.3292 97.288C63.1171 97.7125 63.3292 98.2431 63.8592 98.4553C72.8703 102.169 75.3086 120.952 77.1108 134.642C77.5349 137.507 77.8529 140.266 78.2769 142.494C79.6551 150.665 80.1851 157.669 81.4573 176.558C82.1994 186.958 83.1535 201.071 84.7437 221.022C86.4399 242.882 91.6345 256.571 100.222 261.665C102.872 263.257 105.628 264.105 108.385 264.105Z" fill="#FFED00"/>
<path d="M138.28 86.3568C133.827 85.2956 130.435 81.4753 130.011 76.8062L129.057 66.8311C128.951 66.0882 128.951 65.3454 128.739 64.7087C128.315 61.9496 127.361 52.399 132.343 46.4564C134.994 43.2729 138.916 41.6811 144.005 41.575C151.32 41.4689 156.726 43.1668 160.013 46.4564C161.815 48.1543 162.875 50.3828 162.981 52.8235L163.087 78.504C163.087 78.7163 162.981 78.9285 162.875 79.0346C158.104 84.1283 151.426 86.9935 144.429 87.0996C142.415 87.2057 140.294 86.8874 138.28 86.3568ZM161.285 52.8235C161.073 50.8073 160.225 49.0033 158.74 47.6237C155.878 44.7585 150.79 43.1668 144.005 43.2729C139.446 43.379 136.054 44.7585 133.721 47.5176C129.269 52.8235 130.117 61.7374 130.541 64.3904C130.647 65.1332 130.753 65.876 130.859 66.725L131.813 76.7C132.237 80.6264 134.994 83.8099 138.81 84.765C146.973 86.7812 155.56 84.3405 161.497 78.2918L161.285 52.8235Z" fill="#FFED00"/>
<path d="M74.2484 100.363C76.0506 100.257 77.8528 99.8321 79.443 98.877C79.761 98.6648 80.0791 98.5587 80.3971 98.4526C83.0474 97.3914 92.2705 90.2815 88.2421 75.3189C87.712 73.0904 86.5459 70.968 84.9557 69.2701C83.1535 67.1478 80.3971 65.9805 77.6408 65.9805C71.4921 66.0866 66.0854 72.0292 65.8734 72.3475C65.5554 72.6659 65.5554 73.1965 65.9794 73.5148C66.2974 73.8332 66.8275 73.8332 67.1455 73.4087C67.1455 73.4087 72.2342 67.7845 77.6408 67.6784C79.9731 67.6784 82.1993 68.6334 83.6835 70.4374C85.0617 71.9231 86.0158 73.7271 86.5459 75.7433C90.2563 89.5387 82.0933 95.9057 79.7611 96.8608C79.443 96.9669 79.019 97.1791 78.7009 97.2853C75.5205 98.7709 70.75 100.999 64.7072 90.2815C64.4952 89.857 63.9651 89.7509 63.5411 89.9631C63.117 90.1754 63.011 90.706 63.2231 91.1304C67.3576 98.4526 71.174 100.363 74.2484 100.363Z" fill="#FFED00"/>
<mask id="mask0_2018_14732" style="mask-type:luminance" maskUnits="userSpaceOnUse" x="63" y="1" width="100" height="270">
<path d="M105.31 270.366C98.1013 269.623 72.2342 265.272 69.9019 161.17C69.9019 160.534 69.9019 159.897 69.7959 159.26C65.5554 115.009 64.2833 97.9241 63.8592 92.0876C63.7532 90.2836 63.7532 88.3735 64.0712 86.5695C66.1915 72.1374 77.8529 7.19323 120.152 1.78121C121.636 1.56897 123.226 1.46286 124.71 1.56897C166.373 3.69133 163.193 64.8153 161.497 81.7941C161.179 84.4471 160.543 86.9939 159.483 89.4346C156.302 96.8629 148.987 115.434 147.715 129.653C146.125 146.632 147.185 203.936 147.291 211.683C147.291 212.319 147.291 213.062 147.291 213.699C146.761 222.082 142.415 266.864 109.551 270.472C108.066 270.472 106.688 270.472 105.31 270.366Z" fill="white"/>
</mask>
<g mask="url(#mask0_2018_14732)">
<path d="M-0.384506 269.625C2.05378 178.576 39.6883 93.363 42.1266 2.31379C42.1266 1.88931 42.3386 1.57096 42.7626 1.46484H192.665C193.089 1.46484 193.301 1.88931 193.301 2.31379C194.361 91.7712 211.853 180.061 212.913 269.625C212.913 270.049 212.701 270.368 212.277 270.474H0.25156C-0.172491 270.368 -0.384506 270.049 -0.384506 269.625ZM192.028 3.16273H43.3987C40.6424 93.5752 3.64397 178.363 0.887642 268.882H211.641C210.369 179.849 193.301 92.0896 192.028 3.16273Z" fill="#FFED00"/>
<path d="M42.5507 13.3502H192.771C193.195 13.2441 193.407 12.9258 193.407 12.5013C193.407 12.0768 193.195 11.7585 192.771 11.6523H42.5507C42.1266 11.7585 41.9146 12.0768 41.9146 12.5013C41.9146 12.9258 42.1266 13.3502 42.5507 13.3502Z" fill="#FFED00"/>
<path d="M41.9146 23.6426H192.983C193.407 23.5364 193.619 23.2181 193.619 22.8997C193.619 22.4753 193.407 22.1569 192.983 22.0508H42.0206C41.5965 22.1569 41.3845 22.4753 41.3845 22.8997C41.3845 23.3242 41.5965 23.6426 41.9146 23.6426Z" fill="#FFED00"/>
<path d="M41.0663 33.9362H193.513C193.831 33.9362 194.149 33.6178 194.043 33.0872C194.043 32.6628 193.831 32.3444 193.407 32.2383H41.1723C40.7483 32.3444 40.5363 32.6628 40.5363 33.0872C40.4303 33.6178 40.7483 33.9362 41.0663 33.9362Z" fill="#FFED00"/>
<path d="M39.9003 44.2291H194.043C194.361 44.2291 194.679 43.9108 194.573 43.3802C194.573 42.9557 194.255 42.6374 193.937 42.5312H40.1123C39.7942 42.5312 39.4762 42.8496 39.3702 43.3802C39.2642 43.9108 39.5822 44.2291 39.9003 44.2291Z" fill="#FFED00"/>
<path d="M38.4161 54.526H194.573C194.891 54.526 195.103 54.2077 195.103 53.6771C195.103 53.2526 194.785 52.9342 194.467 52.8281H38.7341C38.3101 52.9342 37.992 53.2526 37.992 53.6771C37.886 54.2077 38.098 54.526 38.4161 54.526Z" fill="#FFED00"/>
<path d="M36.8259 64.819H195.421C195.739 64.819 195.951 64.5006 195.951 63.97C195.951 63.5456 195.633 63.2272 195.315 63.1211H37.0379C36.6139 63.2272 36.2959 63.5456 36.2959 63.97C36.1899 64.3945 36.5079 64.819 36.8259 64.819Z" fill="#FFED00"/>
<path d="M34.9177 75.1119H196.269C196.587 75.1119 196.799 74.7936 196.799 74.263C196.799 73.8385 196.481 73.5202 196.163 73.4141H35.2358C34.8117 73.5202 34.4937 73.8385 34.4937 74.263C34.3876 74.6875 34.5997 75.1119 34.9177 75.1119Z" fill="#FFED00"/>
<path d="M32.9036 85.2988H197.223C197.541 85.2988 197.753 84.9804 197.753 84.556C197.753 84.1315 197.435 83.8131 197.117 83.707H33.2216C32.7976 83.8131 32.4795 84.1315 32.4795 84.556C32.3735 84.9804 32.5855 85.2988 32.9036 85.2988Z" fill="#FFED00"/>
<path d="M30.7831 95.5924H198.177C198.495 95.5924 198.707 95.2741 198.707 94.7435C198.707 94.319 198.389 94.0006 197.965 93.8945H31.1012C30.6771 94.0006 30.3591 94.319 30.3591 94.7435C30.2531 95.2741 30.4651 95.5924 30.7831 95.5924Z" fill="#FFED00"/>
<path d="M28.5569 105.885H199.237C199.555 105.885 199.767 105.567 199.767 105.036C199.767 104.612 199.449 104.294 199.025 104.188H28.875C28.4509 104.294 28.1329 104.612 28.0269 105.036C27.9209 105.567 28.1329 105.885 28.5569 105.885Z" fill="#FFED00"/>
<path d="M26.1186 116.178H200.297C200.615 116.178 200.827 115.86 200.827 115.329C200.827 114.905 200.509 114.587 200.085 114.48H26.5426C26.1186 114.587 25.8006 114.905 25.6945 115.329C25.5885 115.86 25.8005 116.178 26.1186 116.178Z" fill="#FFED00"/>
<path d="M23.7865 126.471H201.464C201.782 126.471 201.994 126.153 201.994 125.622C201.994 125.198 201.676 124.88 201.252 124.773H24.1045C23.6805 124.88 23.3624 125.198 23.2564 125.622C23.2564 126.153 23.3624 126.471 23.7865 126.471Z" fill="#FFED00"/>
<path d="M21.3481 136.764H202.63C202.948 136.764 203.266 136.446 203.16 135.915C203.16 135.491 202.842 135.173 202.418 135.066H21.6662C21.2421 135.173 20.9241 135.491 20.8181 135.915C20.7121 136.34 20.9241 136.764 21.3481 136.764Z" fill="#FFED00"/>
<path d="M18.9097 147.061H203.69C204.008 147.061 204.326 146.742 204.22 146.212C204.22 145.787 203.902 145.469 203.478 145.469H19.2278C18.8037 145.575 18.4857 145.893 18.3796 146.212C18.3796 146.636 18.4857 147.061 18.9097 147.061Z" fill="#FFED00"/>
<path d="M16.4715 157.245H204.75C205.068 157.245 205.386 156.926 205.28 156.396C205.28 155.971 204.962 155.653 204.538 155.547H16.8956C16.4715 155.653 16.1535 155.971 16.0475 156.396C15.9415 156.926 16.1535 157.245 16.4715 157.245Z" fill="#FFED00"/>
<path d="M14.1392 167.542H205.81C206.128 167.542 206.446 167.223 206.34 166.799C206.34 166.799 206.34 166.799 206.34 166.693C206.34 166.268 206.022 165.95 205.598 165.844H14.4572C14.0332 165.95 13.7151 166.268 13.6091 166.693C13.6091 167.223 13.8211 167.542 14.1392 167.542Z" fill="#FFED00"/>
<path d="M11.9129 177.835H206.976C207.294 177.835 207.612 177.516 207.506 176.986C207.506 176.561 207.188 176.243 206.764 176.137H12.231C11.8069 176.243 11.4889 176.561 11.3829 176.986C11.2769 177.516 11.4889 177.835 11.9129 177.835Z" fill="#FFED00"/>
<path d="M9.79273 188.127H207.93C208.248 188.127 208.566 187.702 208.46 187.384C208.46 186.96 208.142 186.641 207.718 186.535H10.1108C9.68672 186.641 9.36868 186.96 9.26266 187.384C9.15665 187.809 9.36868 188.127 9.79273 188.127Z" fill="#FFED00"/>
<path d="M7.7785 198.421H208.778C209.096 198.421 209.415 198.102 209.415 197.678C209.415 197.678 209.415 197.678 209.415 197.572C209.415 197.147 209.096 196.829 208.672 196.723H8.09654C7.67249 196.829 7.35444 197.147 7.24843 197.572C7.14242 198.102 7.35444 198.421 7.7785 198.421Z" fill="#FFED00"/>
<path d="M5.97633 208.713H209.733C210.051 208.713 210.369 208.394 210.369 207.97C210.369 207.97 210.369 207.97 210.369 207.864C210.369 207.439 210.051 207.121 209.627 207.121H6.18835C5.7643 207.121 5.44627 207.546 5.44627 207.864C5.34025 208.288 5.55228 208.713 5.97633 208.713Z" fill="#FFED00"/>
<path d="M4.28004 219.006H210.369C210.793 219.006 211.005 218.581 211.005 218.263C211.005 217.839 210.687 217.52 210.263 217.414H4.59809C4.17403 217.52 3.856 217.839 3.856 218.263C3.74999 218.581 3.96201 219.006 4.28004 219.006Z" fill="#FFED00"/>
<path d="M2.90193 229.299H211.005C211.429 229.299 211.641 228.874 211.641 228.556C211.641 228.132 211.323 227.813 210.899 227.707H3.11395C2.6899 227.707 2.37186 228.132 2.37186 228.556C2.37186 228.874 2.47788 229.193 2.90193 229.299Z" fill="#FFED00"/>
<path d="M1.84173 239.486H211.535C211.959 239.486 212.171 239.062 212.171 238.743C212.171 238.319 211.853 238.001 211.535 237.895H1.94775C1.5237 238.001 1.20566 238.319 1.20566 238.743C1.20566 239.168 1.41768 239.486 1.84173 239.486Z" fill="#FFED00"/>
<path d="M0.993634 249.783H211.959C212.383 249.783 212.595 249.359 212.595 249.04C212.595 248.616 212.277 248.298 211.959 248.191H1.09965C0.675603 248.191 0.357568 248.616 0.357568 249.04C0.251556 249.359 0.569584 249.783 0.993634 249.783C0.887622 249.783 0.887622 249.783 0.993634 249.783Z" fill="#FFED00"/>
<path d="M0.463857 260.076H212.277C212.701 260.076 212.913 259.652 212.913 259.333C212.913 258.909 212.701 258.59 212.277 258.484H0.463857C0.0398062 258.484 -0.172209 258.909 -0.172209 259.333C-0.278222 259.652 0.0398062 260.076 0.463857 260.076Z" fill="#FFED00"/>
<path d="M171.462 270.368C171.886 270.368 172.098 269.943 172.098 269.625C169.66 180.486 160.861 91.559 158.423 2.31379C158.423 1.88931 158.21 1.46484 157.892 1.46484C157.574 1.46484 157.468 1.7832 157.468 2.31379C159.907 91.559 168.388 180.38 170.826 269.625C170.826 269.943 171.144 270.262 171.462 270.368Z" fill="#FFED00"/>
<path d="M163.299 270.368C163.723 270.368 163.935 269.943 163.935 269.625C161.709 180.486 154.924 91.559 152.592 2.31379C152.592 1.88931 152.38 1.46484 152.168 1.46484C151.956 1.46484 151.744 1.7832 151.744 2.31379C153.97 91.4529 160.437 180.486 162.663 269.625C162.663 269.943 162.981 270.368 163.299 270.368Z" fill="#FFED00"/>
<path d="M155.242 270.368C155.56 270.368 155.878 270.05 155.878 269.519C153.864 180.38 149.305 91.3474 147.291 2.20832C147.291 1.78385 147.079 1.35938 146.867 1.35938C146.655 1.35938 146.443 1.67773 146.443 2.20832C148.457 91.3474 152.698 180.38 154.606 269.519C154.5 269.944 154.818 270.368 155.242 270.368Z" fill="#FFED00"/>
<path d="M147.079 270.368C147.503 270.368 147.715 269.944 147.715 269.519C146.019 180.38 143.687 91.3474 141.99 2.20832C141.99 1.78385 141.778 1.35938 141.566 1.35938C141.354 1.35938 141.142 1.67773 141.142 2.20832C142.839 91.2413 144.641 180.38 146.443 269.519C146.443 270.05 146.655 270.368 147.079 270.368Z" fill="#FFED00"/>
<path d="M138.916 270.368C139.34 270.368 139.552 269.943 139.552 269.625C138.174 180.592 138.28 91.4529 136.902 2.31379C136.902 1.88931 136.69 1.46484 136.478 1.46484C136.266 1.46484 136.054 1.7832 136.054 2.31379C137.326 91.3467 136.902 180.486 138.174 269.625C138.174 269.943 138.492 270.262 138.916 270.368Z" fill="#FFED00"/>
<path d="M130.753 270.368C131.177 270.368 131.389 269.943 131.389 269.625C130.435 180.486 132.979 91.4529 132.025 2.31379C132.025 1.88931 131.813 1.46484 131.601 1.46484C131.389 1.46484 131.177 1.7832 131.283 2.31379C132.131 91.4529 129.269 180.486 130.117 269.625C130.011 269.943 130.329 270.368 130.753 270.368Z" fill="#FFED00"/>
<path d="M122.59 270.368C123.014 270.368 123.226 269.944 123.226 269.519C122.802 180.38 127.785 91.3474 127.361 2.20832C127.361 1.78385 127.149 1.35938 126.937 1.35938C126.725 1.35938 126.619 1.67773 126.619 2.20832C126.937 91.3474 121.636 180.38 121.954 269.519C121.848 269.944 122.166 270.368 122.59 270.368Z" fill="#FFED00"/>
<path d="M114.427 270.368C114.851 270.368 115.063 270.049 115.063 269.625C115.169 180.486 122.59 91.559 122.696 2.31379C122.696 1.88931 122.484 1.46484 122.378 1.46484C122.272 1.46484 122.06 1.7832 122.06 2.31379C121.848 91.4529 114.003 180.38 113.897 269.625C113.791 269.943 114.003 270.262 114.427 270.368Z" fill="#FFED00"/>
<path d="M106.264 270.368C106.688 270.262 106.9 269.944 106.9 269.519C107.536 180.274 117.502 91.4535 118.032 2.20832C118.032 1.78385 117.926 1.35938 117.714 1.35938C117.502 1.35938 117.396 1.67773 117.396 2.20832C116.76 91.4535 106.37 180.274 105.628 269.519C105.628 269.944 105.84 270.368 106.264 270.368Z" fill="#FFED00"/>
<path d="M98.1012 270.368C98.5253 270.368 98.7373 269.944 98.7373 269.519C99.9035 180.274 112.307 91.5596 113.473 2.20832C113.473 1.78385 113.367 1.35938 113.155 1.35938C112.943 1.35938 112.837 1.67773 112.837 2.20832C111.671 91.5596 98.7373 180.168 97.5712 269.519C97.4652 269.944 97.6772 270.368 98.1012 270.368Z" fill="#FFED00"/>
<path d="M89.9382 270.368C90.3622 270.368 90.5742 269.944 90.5742 269.519C92.2704 180.168 107.112 91.6658 108.808 2.20832C108.808 1.78385 108.702 1.35938 108.49 1.35938C108.278 1.35938 108.172 1.67773 108.066 2.20832C106.37 91.6658 90.9983 180.062 89.3021 269.519C89.3021 270.05 89.6201 270.368 89.9382 270.368Z" fill="#FFED00"/>
<path d="M81.7754 270.368C82.1995 270.368 82.4115 269.944 82.4115 269.519C84.5317 179.956 101.918 91.7719 104.144 2.20832C104.144 1.78385 104.038 1.35938 103.826 1.35938C103.614 1.35938 103.402 1.67773 103.402 2.20832C101.176 91.7719 83.3656 179.956 81.1393 269.519C81.1393 270.05 81.4574 270.368 81.7754 270.368Z" fill="#FFED00"/>
<path d="M73.6124 270.368C74.0364 270.368 74.2485 269.944 74.2485 269.519C76.8988 179.85 96.6172 91.878 99.2675 2.20832C99.2675 1.78385 99.1614 1.35938 98.9494 1.35938C98.7374 1.35938 98.5254 1.67773 98.5254 2.20832C95.875 91.878 75.7326 179.85 73.0823 269.519C72.9763 269.944 73.1883 270.262 73.6124 270.368Z" fill="#FFED00"/>
<path d="M65.4494 270.368C65.8734 270.368 66.0854 269.944 66.0854 269.519C69.0538 179.744 91.2104 92.0902 94.1788 2.20832C94.1788 1.78385 93.9668 1.35938 93.7547 1.35938C93.5427 1.35938 93.3307 1.67773 93.3307 2.20832C90.2563 91.9841 67.7817 179.638 64.7073 269.519C64.8133 269.944 65.0253 270.262 65.4494 270.368Z" fill="#FFED00"/>
<path d="M57.2864 270.368C57.7105 270.368 57.9225 269.944 57.9225 269.519C61.2089 179.638 85.6978 92.1963 88.9842 2.20832C88.9842 1.78385 88.7722 1.35938 88.5602 1.35938C88.3481 1.35938 88.1361 1.67773 88.1361 2.20832C84.7437 92.1963 59.9367 179.531 56.6503 269.519C56.7564 269.944 56.9684 270.262 57.2864 270.368Z" fill="#FFED00"/>
<path d="M49.1235 270.368C49.5476 270.368 49.7596 269.944 49.7596 269.519C53.364 179.425 80.0792 92.3025 83.5776 2.20832C83.5776 1.78385 83.3656 1.35938 83.1536 1.35938C82.9416 1.35938 82.7296 1.67773 82.7296 2.20832C79.1251 92.4086 52.1979 179.425 48.5935 269.626C48.4875 270.05 48.8055 270.368 49.1235 270.368Z" fill="#FFED00"/>
<path d="M40.9605 270.368C41.3845 270.262 41.5966 269.944 41.5966 269.519C45.307 179.319 74.0364 92.5147 77.8529 2.20832C77.8529 1.78385 77.6409 1.35938 77.4288 1.35938C77.2168 1.35938 77.0048 1.67773 76.8988 2.20832C73.1883 92.5147 44.1409 179.213 40.3244 269.519C40.3244 270.05 40.6424 270.368 40.9605 270.368Z" fill="#FFED00"/>
<path d="M32.9035 270.368C33.3275 270.368 33.5396 269.944 33.5396 269.519C37.356 179.107 68.0997 92.7269 71.8101 2.20832C71.8101 1.78385 71.5981 1.35938 71.3861 1.35938C71.174 1.35938 70.856 1.67773 70.856 2.20832C67.0395 92.6208 35.9778 179.001 32.2674 269.519C32.1614 269.944 32.4794 270.262 32.9035 270.368C32.7975 270.368 32.7975 270.368 32.9035 270.368Z" fill="#FFED00"/>
<path d="M24.7404 270.368C25.1644 270.368 25.3765 269.944 25.3765 269.519C29.0869 179.001 61.7388 92.8331 65.4493 2.20832C65.4493 1.78385 65.2373 1.35938 64.9192 1.35938C64.6012 1.35938 64.3892 1.67773 64.3892 2.20832C60.6787 92.8331 27.8148 178.895 24.1043 269.519C23.9983 269.944 24.2103 270.262 24.7404 270.368C24.6344 270.368 24.6344 270.368 24.7404 270.368Z" fill="#FFED00"/>
</g>
<path d="M64.2832 268.456C58.3465 247.975 53.4699 187.594 62.163 168.705C67.6756 156.608 86.1218 148.649 100.646 144.192C110.187 141.221 120.47 141.645 129.693 145.466C137.326 148.543 144.429 152.894 150.578 158.306C157.574 164.673 161.709 173.587 162.133 182.925C163.087 204.255 164.677 255.51 158.74 270.685C151.214 290.104 125.665 296.365 111.671 297.002C111.247 297.002 110.823 297.002 110.399 297.002C96.9351 297.108 69.7959 287.557 64.2832 268.456ZM128.951 146.951C120.046 143.343 110.187 142.919 101.07 145.784C89.5142 149.392 69.1598 157.351 63.6471 169.448C55.2721 187.594 60.1487 248.188 65.8734 268.032C71.3861 286.921 98.8434 296.047 111.565 295.41C125.134 294.773 149.835 288.725 157.044 270.154C162.769 255.298 161.179 204.255 160.331 183.031C159.907 174.011 155.984 165.628 149.305 159.579C143.369 154.167 136.478 149.922 128.951 146.951Z" fill="#FFED00"/>
<path d="M0.463634 277.789L0.569654 272.377L12.125 264.206L0.675673 255.717L0.781676 250.305L27.3908 250.623L27.2849 256.672L10.8529 256.46L21.5601 264.312L10.7469 272.059L27.1788 272.271L27.0728 278.214L0.463634 277.789Z" fill="white"/>
<path d="M24.1045 222.715C26.7549 225.474 28.133 228.657 28.027 232.477C28.027 236.298 26.6488 239.481 23.8925 242.24C21.1362 244.893 17.9558 246.273 14.1393 246.167C10.3229 246.167 7.14251 244.787 4.38619 242.028C1.73587 239.269 0.357692 236.085 0.463704 232.265C0.463704 228.445 1.84188 225.261 4.59821 222.502C7.35454 219.849 10.5349 218.47 14.3514 218.576C18.1678 218.682 21.3482 220.062 24.1045 222.715ZM19.864 237.996C21.4542 236.51 22.3023 234.706 22.3023 232.477C22.3023 230.355 21.5602 228.445 19.97 226.959C18.3798 225.474 16.5776 224.625 14.3514 224.625C12.1251 224.625 10.3229 225.368 8.73269 226.853C7.1425 228.339 6.2944 230.143 6.2944 232.265C6.2944 234.388 7.0365 236.298 8.62669 237.783C10.2169 239.269 12.0191 240.118 14.2453 240.118C16.3656 240.224 18.2738 239.481 19.864 237.996Z" fill="white"/>
<path d="M33.5396 195.444L28.0269 195.338L27.8149 211.68L33.3276 211.786L33.2215 217.198L21.9842 217.092V216.668C21.9842 214.439 19.6519 213.272 14.8814 213.166L1.09972 213.059L1.31174 193.215L22.3022 193.428V189.926L33.5396 190.032V195.444ZM6.93041 207.011L15.5174 207.117C18.2738 207.117 20.5 207.647 22.1962 208.496L22.3022 199.37L7.03643 199.264L6.93041 207.011Z" fill="white"/>
<path d="M28.0268 185.996L1.41766 185.677L1.62968 168.805L7.35436 168.911L7.24836 179.841H12.0189L12.1249 171.139L17.8496 171.245L17.7436 179.947H22.5142L22.6202 169.017L28.3449 169.123L28.0268 185.996Z" fill="white"/>
<path d="M18.4857 161.802L1.62973 161.59L1.84175 141.746L28.4509 142.064L28.3449 148.113L7.35441 147.901L7.2484 155.648L19.1218 155.754C22.1962 155.754 24.5285 156.496 26.1187 157.876C27.7088 159.256 28.5569 161.272 28.5569 163.819C28.4509 164.986 28.4509 165.835 28.3449 166.472L22.8323 166.365C22.9383 165.941 22.9383 165.41 22.9383 164.561C22.9383 163.606 22.6202 162.864 21.9842 162.333C21.4541 162.121 20.2879 161.908 18.4857 161.802Z" fill="white"/>
<path d="M28.5567 136.548L1.94758 136.23L2.05358 130.181L12.6548 130.287V126.467C9.36845 125.83 6.82415 124.345 4.80991 121.904C2.79567 119.463 1.84156 116.598 1.84156 113.202C1.84156 109.382 3.21972 106.198 5.87004 103.652C8.52036 101.105 11.8068 99.9375 15.7292 99.9375C19.7577 99.9375 22.9381 101.317 25.5884 103.864C28.1327 106.411 29.4049 109.594 29.4049 113.414C29.4049 116.81 28.3447 119.675 26.3305 122.01C24.3162 124.345 21.5599 125.83 18.3795 126.467V130.287L28.9808 130.393L28.5567 136.548ZM21.2419 108.109C19.7577 106.729 17.8495 105.986 15.5172 105.986C13.1849 105.986 11.2767 106.623 9.6865 108.002C8.20233 109.382 7.46022 111.08 7.35421 113.308C7.35421 115.431 8.09631 117.235 9.58048 118.614C11.0647 119.994 12.9729 120.737 15.3052 120.737C17.6374 120.737 19.5457 120.1 21.1359 118.72C22.62 117.341 23.3621 115.643 23.4681 113.414C23.4681 111.292 22.7261 109.488 21.2419 108.109Z" fill="white"/>
<path d="M29.511 83.3806C29.511 87.4131 28.1329 90.7028 25.4826 93.3557C22.8323 96.0087 19.5459 97.2821 15.6234 97.2821C11.7009 97.2821 8.52055 95.9026 5.87024 93.2496C3.21992 90.5967 1.94777 87.2009 1.94777 83.1684C1.94777 80.1971 2.90188 77.438 4.70409 74.9973C6.50631 72.5566 8.83859 70.9648 11.7009 70.3281L11.5949 76.8013C10.3228 77.3319 9.36865 78.1809 8.73258 79.4543C8.0965 80.6216 7.67245 81.895 7.67245 83.2745C7.67245 85.1846 8.09651 86.7764 9.15664 88.1559C10.1108 89.5355 11.3829 90.4905 13.0791 90.915L13.1851 80.1971H18.4857L18.3797 90.915C19.9699 90.3844 21.3481 89.5355 22.3022 88.1559C23.2563 86.8825 23.7864 85.1846 23.7864 83.2745C23.7864 81.895 23.4683 80.6216 22.8323 79.4543C22.1962 78.287 21.2421 77.3319 20.0759 76.8013L20.1819 70.3281C23.0443 71.071 25.3766 72.6627 27.0728 75.2096C28.663 77.6503 29.511 80.4093 29.511 83.3806Z" fill="white"/>
<path d="M2.58374 66.508L2.68976 61.096L14.2451 52.9249L2.79578 44.4355L2.90178 39.0234L29.5109 39.3418L29.405 45.3905L12.973 45.1783L23.6803 53.031L12.867 60.5654L29.2989 60.7776L29.1929 66.7202L2.58374 66.508Z" fill="white"/>
<path d="M26.2247 11.4334C28.875 14.1924 30.2531 17.376 30.1471 21.1962C30.1471 25.0165 28.7689 28.2 26.0126 30.9591C23.2563 33.612 20.0759 34.9915 16.2595 34.8854C12.443 34.8854 9.26263 33.5059 6.5063 30.7468C3.85598 27.9878 2.47781 24.8042 2.58382 20.984C2.58382 17.1637 3.96199 13.9802 6.71832 11.2211C9.47465 8.56817 12.655 7.18864 16.4715 7.29476C20.2879 7.29476 23.4683 8.67429 26.2247 11.4334ZM21.9842 26.6082C23.5743 25.1226 24.4224 23.3186 24.4224 21.0901C24.4224 18.9677 23.6803 17.0576 22.0901 15.572C20.4999 14.0863 18.6977 13.2374 16.4715 13.2374C14.2452 13.2374 12.443 13.9802 10.8528 15.4658C9.26262 16.9515 8.41451 18.7555 8.41451 20.8779C8.41451 23.0002 9.15662 24.9103 10.7468 26.396C12.337 27.8816 14.1392 28.7306 16.3655 28.7306C18.4857 28.8367 20.394 28.2 21.9842 26.6082Z" fill="white"/>
</svg>
