<svg width="158" height="286" viewBox="0 0 158 286" fill="none" xmlns="http://www.w3.org/2000/svg">
<path d="M97.8786 19.7098C97.8786 19.8162 97.8786 19.9225 97.7724 20.0288C97.5598 20.4541 97.1347 20.7731 96.6033 20.5604C96.4971 20.5604 89.0579 18.0087 84.7006 21.092C82.5751 22.6869 81.4061 25.4513 81.5124 29.3852C81.6187 33.3191 83.3191 37.0404 86.1885 39.5922C87.0387 40.3364 87.8889 41.0807 88.6328 41.825C90.1206 43.2072 90.9708 45.2273 90.8645 47.2474L90.7583 50.3308L94.3716 47.8853C94.7967 47.5664 95.328 47.6727 95.6469 48.098C95.9657 48.5233 95.8594 49.0549 95.4343 49.3739L90.2269 52.8825C89.9081 53.0952 89.5892 53.0952 89.2704 52.8825C88.9516 52.6699 88.739 52.3509 88.8453 52.0319L89.0579 47.0348C89.1641 45.5462 88.5265 44.0577 87.4638 42.9945C86.8261 42.3566 85.9759 41.6123 85.1257 40.8681C81.8312 37.891 79.9183 33.7444 79.812 29.2789C79.812 24.8133 81.0873 21.411 83.7442 19.4972C88.8453 15.7759 97.0284 18.5403 97.3473 18.6466C97.6661 18.9656 97.9849 19.2846 97.8786 19.7098Z" fill="#FFED00"/>
<path d="M90.7584 52.1383C90.7584 52.4573 90.6521 52.7762 90.3333 52.8825L83.8506 57.1354C81.3 58.8366 78.0055 59.0493 75.2424 57.7734C73.0106 56.7102 71.0977 55.2216 69.3973 53.4142C67.5906 51.6067 66.6341 49.0549 66.6341 46.5032C66.4216 43.2072 67.6969 39.9112 70.0349 37.6784C74.2859 33.7445 80.9812 34.1698 81.3 34.2761C81.8314 34.2761 82.1502 34.8077 82.1502 35.233C82.1502 35.7646 81.6188 36.0836 81.1937 36.0836C81.1937 36.0836 75.0298 35.6583 71.3102 39.0606C69.291 40.9744 68.2283 43.7388 68.4408 46.5032C68.4408 48.6296 69.291 50.6498 70.6726 52.1383C72.1604 53.7331 73.9671 55.1153 75.9863 56.0722C78.218 57.1354 80.7686 56.9228 82.7878 55.5406L89.2705 51.2877C89.6956 50.9687 90.227 51.0751 90.5458 51.5004C90.6521 51.713 90.7584 51.9256 90.7584 52.1383Z" fill="#FFED00"/>
<path d="M157.286 32.7872C157.286 34.3821 156.967 38.7413 156.223 44.5891C155.904 48.0977 155.798 51.6064 156.011 55.115C157.18 68.4053 157.499 81.802 156.755 95.1987C156.011 106.15 153.46 116.995 149.103 127.095C145.383 135.814 137.519 161.969 144.321 215.556C151.441 271.056 124.554 282.858 112.651 285.41C108.719 286.26 104.68 286.048 100.961 284.666C97.7724 283.496 96.0721 282.858 89.2705 277.861C79.7058 270.737 74.7109 256.065 74.0733 244.582C73.5419 235.438 69.7161 212.154 67.8031 200.99C67.2717 197.694 66.8466 195.461 66.7404 194.717C66.3153 191.527 58.7698 158.886 53.6686 145.596C51.6494 140.173 50.1616 131.667 49.3114 120.291C48.4612 108.914 49.8428 97.5378 53.3498 86.6928C54.9439 81.6957 56.2192 76.4859 56.9631 71.2761C57.4945 67.7674 58.1322 63.5145 58.6635 59.4742C59.0886 56.0719 60.3639 53.6265 62.4894 52.138C64.2961 50.8621 66.5278 50.3305 68.6533 50.6495C69.1847 50.7558 69.5035 51.1811 69.3972 51.7127C69.291 52.2443 68.8659 52.5633 68.3345 52.4569C66.6341 52.2443 64.9337 52.6696 63.5521 53.6265C61.8518 54.796 60.8953 56.9225 60.4702 59.7932C59.9388 63.8335 59.3012 68.0864 58.7698 71.7013C57.9196 77.0175 56.7506 82.2273 55.0502 87.3308C51.6494 97.963 50.2679 109.127 51.0118 120.184C51.862 131.348 53.2435 139.748 55.2628 144.851C60.4702 158.567 67.9094 191.102 68.3345 194.398C68.4408 195.142 68.7596 197.375 69.3972 200.671C71.3102 211.941 75.136 235.332 75.6674 244.476C76.305 255.533 80.9811 269.674 90.1207 276.372C96.7097 281.263 98.3038 281.795 101.386 282.964C104.787 284.24 108.506 284.453 112.119 283.602C123.491 281.157 149.209 269.78 142.301 215.769C135.394 161.757 143.364 135.282 147.19 126.458C151.441 116.463 153.885 105.937 154.629 95.1987C155.373 81.9083 155.054 68.618 153.885 55.434C153.673 51.819 153.673 48.204 154.098 44.5891C155.267 34.1694 155.054 32.5746 155.054 32.5746C155.054 32.2556 151.122 6.10026 134.65 2.80426C132.205 2.16632 129.548 2.69794 127.423 4.29278C121.153 8.75833 118.815 21.3044 117.965 28.428C117.433 32.5746 118.39 36.6149 120.621 40.1235L122.959 43.7385C123.066 43.8448 123.066 43.9511 123.066 44.0575L124.341 49.5862C124.447 49.9052 124.341 50.1178 124.128 50.3305C123.916 50.5431 123.703 50.6495 123.385 50.6495H120.09C117.221 50.6495 114.883 48.4167 114.776 45.546L114.245 20.8791C114.245 20.6665 114.989 16.2009 112.332 13.0112C110.632 10.8848 107.868 9.71523 104.149 9.60891C102.449 9.39626 100.642 9.92788 99.3666 11.2037C97.8787 12.6923 97.3473 15.4567 97.6662 18.9653C98.1975 24.3878 100.854 29.5976 102.236 30.0229C106.593 31.5114 103.299 43.1005 102.236 46.6092C102.023 47.1408 101.598 47.3535 101.067 47.2471C100.642 47.1408 100.323 46.6092 100.429 46.0776C102.449 39.6982 103.511 32.362 101.705 31.724C99.0477 30.8734 96.3909 24.1751 95.9658 19.0716C95.647 16.2009 95.8595 12.3733 98.1975 9.82156C99.7916 8.22672 102.13 7.48246 104.361 7.6951C108.612 7.90775 111.801 9.28994 113.82 11.8417C116.902 15.7756 116.158 20.7728 116.052 20.9854L116.583 45.546C116.583 47.4598 118.177 48.9483 119.984 48.9483H122.641L121.684 44.6954L119.452 41.2931C117.008 37.4655 115.945 32.7872 116.477 28.2154C117.539 19.1779 120.196 7.48245 126.679 2.80426C129.123 0.996772 132.312 0.358837 135.287 0.996773C153.141 4.61174 156.967 31.1924 157.18 32.362C157.286 32.362 157.286 32.5746 157.286 32.7872Z" fill="#FFED00"/>
<path d="M99.8979 39.6986C99.8979 40.0175 99.7916 40.2302 99.5791 40.4428C96.4971 42.6756 92.8838 43.9515 89.0579 44.1641C88.5265 44.1641 88.1014 43.8452 88.1014 43.3135C88.1014 42.7819 88.4203 42.3566 88.9516 42.3566C92.3524 42.144 95.6469 40.9744 98.41 38.9543C98.8351 38.6353 99.3665 38.7417 99.6853 39.0606C99.7916 39.2733 99.8979 39.4859 99.8979 39.6986Z" fill="#FFED00"/>
<path d="M142.726 55.3278C142.726 55.4341 142.726 55.4341 142.726 55.5404C142.62 56.072 142.195 56.391 141.664 56.2847C138.794 55.7531 124.235 50.6496 123.597 50.4369C123.066 50.2243 122.853 49.799 123.066 49.2674C123.278 48.7358 123.703 48.5231 124.235 48.7358C124.341 48.7358 139.326 53.9456 141.983 54.4772C142.408 54.5835 142.726 54.9025 142.726 55.3278Z" fill="#FFED00"/>
<path d="M152.929 92.7532C152.929 96.5809 152.185 100.408 150.803 103.917C145.171 118.59 138.794 117.207 135.287 116.463C134.862 116.357 134.437 116.251 134.012 116.251C132.843 116.251 129.655 114.975 123.597 112.423C117.114 109.765 108.294 106.15 105.637 106.256H104.999C103.405 106.256 101.811 106.469 100.217 106.894C94.2654 108.914 88.6329 111.572 83.3192 114.975C73.8608 120.822 66.1028 121.46 61.4267 116.676C59.4075 114.549 58.3447 111.785 58.3447 108.808C58.2385 82.2273 75.2423 69.7875 89.4831 64.0461C101.811 59.049 115.52 58.3047 128.379 62.026C142.301 66.0663 146.659 73.0835 146.765 73.4025C150.697 79.2503 152.823 85.9486 152.929 92.7532ZM60.3639 108.702V108.914C60.3639 111.36 61.3204 113.699 62.9145 115.506C68.3345 121.035 77.4741 116.676 82.469 113.486C87.889 110.084 93.734 107.319 99.7917 105.193C101.492 104.661 103.299 104.449 105.105 104.449H105.743C108.825 104.342 117.114 107.745 124.447 110.828C128.592 112.529 133.268 114.443 134.118 114.443C134.65 114.443 135.181 114.549 135.712 114.656C138.794 115.294 144.108 116.357 149.103 103.173C155.161 87.5434 145.49 74.5721 145.383 74.4657C145.277 74.3594 141.132 67.6611 127.954 63.8335C115.52 60.2185 102.236 60.8564 90.3333 65.7473C76.6239 71.3824 60.3639 83.2905 60.3639 108.702Z" fill="#FFED00"/>
<path d="M145.49 127.628C145.49 128.265 145.383 128.797 145.277 129.435L142.726 137.09C138.263 150.593 136.562 164.947 137.838 179.088C138.475 186.53 139.219 193.548 139.538 196.099C139.644 197.375 139.644 198.757 139.538 200.033C139.219 202.798 138.475 204.499 137.306 205.03C136.562 205.349 135.819 205.243 135.181 204.818C131.993 202.904 122.959 187.806 118.708 178.981C114.351 169.944 116.583 159.631 116.689 159.205C116.795 158.78 119.771 149.211 129.336 134.113C131.355 130.817 134.118 127.947 137.306 125.714C140.388 123.587 142.62 123.056 144.108 124.013C145.064 124.969 145.596 126.245 145.49 127.628ZM135.5 169.838C135.5 158.461 137.306 147.191 140.92 136.452L143.364 128.903C143.47 128.159 143.683 126.139 142.833 125.607C142.514 125.395 141.451 125.076 138.157 127.309C135.181 129.435 132.63 132.093 130.717 135.176C121.365 150.062 118.283 159.631 118.283 159.737C118.283 159.843 116.052 169.731 120.196 178.237C124.766 187.594 133.374 201.734 136.031 203.329C136.137 203.436 136.35 203.436 136.456 203.436C136.775 203.329 137.306 202.372 137.625 199.821C137.731 198.651 137.731 197.482 137.625 196.312C137.306 193.654 136.669 186.743 135.925 179.194C135.712 176.111 135.5 173.027 135.5 169.838Z" fill="#FFED00"/>
<path d="M134.012 242.987C134.012 254.364 129.867 265.74 120.621 271.801C113.607 276.266 104.68 276.16 97.7724 271.694C79.9183 260.318 80.1309 245.114 81.8313 237.033C84.7007 223.318 95.6469 210.771 106.381 209.07C117.114 207.369 126.36 213.855 131.143 226.401C133.162 231.717 134.118 237.352 134.012 242.987ZM82.7877 243.944C82.7877 251.706 85.7634 262.019 98.6226 270.206C104.999 274.352 113.182 274.352 119.559 270.312C132.737 261.806 134.862 241.605 129.23 227.145C124.766 215.45 116.264 209.389 106.487 210.984C96.6034 212.579 86.0822 224.7 83.4254 237.458C83.1066 239.585 82.894 241.711 82.7877 243.944Z" fill="#FFED00"/>
<path d="M74.9235 58.73C74.9235 59.5806 74.7109 60.3248 74.3921 61.0691C72.0541 66.4915 61.958 68.7243 61.5329 68.7243C61.0016 68.8306 60.5765 68.5117 60.4702 67.9801C60.3639 67.4485 60.6827 67.0232 61.2141 66.9168C61.3204 66.9168 70.8851 64.7904 72.798 60.3248C73.3294 58.8363 73.1168 57.1352 72.1604 55.8593C71.8415 55.434 71.9478 54.9024 72.3729 54.5834C72.798 54.2644 73.3294 54.3708 73.6482 54.7961L73.7545 54.9024C74.6047 56.0719 74.9235 57.3478 74.9235 58.73Z" fill="#FFED00"/>
<path d="M150.803 25.3442C150.803 25.8759 150.803 26.4075 150.803 27.0454C149.953 40.5484 138.157 40.761 138.05 40.761C136.988 40.761 126.467 38.8472 121.79 32.0426C120.409 30.0224 119.771 27.577 119.984 25.2379C120.621 15.1373 124.341 9.92746 127.423 7.37572C130.93 4.50501 135.819 3.97339 139.857 6.20617C146.765 10.0338 151.016 17.4764 150.803 25.3442ZM121.684 25.9822C121.684 27.7897 122.216 29.5972 123.172 31.0857C127.317 37.0397 136.775 38.8472 137.944 38.9535C138.05 38.9535 148.146 38.8472 148.89 26.9391C149.422 18.6459 145.702 11.416 139.007 7.80101C135.606 5.8872 131.461 6.31249 128.486 8.75791C124.447 12.0539 122.216 17.7953 121.684 25.3442C121.684 25.5569 121.684 25.7695 121.684 25.9822Z" fill="#FFED00"/>
<path d="M114.883 20.9855C114.883 21.9424 114.776 22.8993 114.457 23.7499C113.607 26.1953 111.694 28.1091 109.25 28.8534C107.231 29.8103 104.787 29.8103 102.767 28.8534C99.5791 27.2585 97.7724 23.3246 96.9222 20.3476C95.9658 17.1579 96.6034 13.6492 98.5163 10.9912C99.6853 9.07736 101.705 7.80149 103.936 7.58884C107.868 7.26987 111.269 10.7785 111.482 10.9912C111.801 11.4165 114.883 16.201 114.883 20.9855ZM98.4101 17.4769C98.4101 18.3274 98.5163 19.178 98.7289 19.9223C99.4728 22.5803 100.961 25.9827 103.617 27.2585C105.212 28.0028 107.018 27.8965 108.612 27.1522C110.525 26.5143 112.013 25.0258 112.757 23.112C114.245 18.5401 110.207 12.1607 110.1 12.0544C110.1 12.0544 107.231 9.18368 104.149 9.39633C102.448 9.60897 100.961 10.5659 100.11 12.0544C98.9414 13.7556 98.4101 15.563 98.4101 17.4769Z" fill="#FFED00"/>
<path d="M99.8979 30.9799C99.8979 31.7242 99.7916 32.3621 99.6854 33.1064C99.154 35.0202 96.9222 37.6783 93.734 38.9541C90.4395 40.1237 86.6136 39.4857 83.9568 37.253C82.5752 36.2961 81.6187 34.8075 81.2999 33.2127C79.387 25.7701 83.4254 22.1551 85.976 20.6666C87.145 20.0287 88.5266 19.7097 89.9081 19.816C93.0964 19.9224 96.072 21.5172 97.985 24.069C99.154 26.0891 99.8979 28.5345 99.8979 30.9799ZM82.4689 29.4914C82.4689 30.5546 82.6815 31.6179 82.894 32.6811C83.2129 33.8506 83.8505 34.9139 84.9132 35.6581C87.145 37.5719 90.227 38.1035 93.0964 37.1466C95.3281 36.4024 97.0285 34.8075 97.8787 32.6811C98.3038 30.023 97.7724 27.365 96.2846 25.1322C94.6905 23.0057 92.2462 21.7299 89.5893 21.6235C88.6328 21.5172 87.5701 21.8362 86.7199 22.2615C84.0631 23.6437 82.3627 26.5144 82.4689 29.4914Z" fill="#FFED00"/>
<path d="M86.5073 43.3133C86.4011 47.0346 84.2756 50.5433 80.9811 52.3508C77.2615 54.6899 72.3729 53.6266 70.0348 49.9053C67.9094 46.9283 67.2717 44.1639 67.9094 41.6122C69.0784 37.5719 73.3293 35.5518 73.7544 35.3391C75.136 34.5949 79.4932 34.4886 83.1066 36.8276C84.2756 37.5719 85.2321 38.7415 85.7634 40.0173C86.1885 40.8679 86.5073 42.0375 86.5073 43.3133ZM69.5035 43.526C69.6097 45.4398 70.2474 47.3536 71.5227 48.8421C73.3293 51.7128 77.0489 52.6697 79.9183 50.8622C80.0246 50.8622 80.0246 50.7559 80.1309 50.7559C83.4254 48.8421 85.8697 44.5892 84.1693 40.5489C83.7442 39.592 83.0003 38.7415 82.1501 38.2098C79.0682 36.1897 75.3486 36.5087 74.7109 36.8276H74.6046C74.6046 36.8276 70.6725 38.6351 69.716 41.9311C69.6097 42.4628 69.5035 42.9944 69.5035 43.526Z" fill="#FFED00"/>
<path d="M71.0976 58.3046C71.0976 59.0488 70.885 59.7931 70.5662 60.5373C70.46 60.6436 70.4599 60.8563 70.3537 60.9626C70.0349 62.1322 67.2717 64.046 65.1462 63.8333C64.0835 63.727 62.3831 63.0891 62.1706 60.0057C61.958 56.1781 63.9772 54.6896 65.1462 54.2643C66.4215 53.7327 67.9094 53.9453 68.9721 54.9022C70.2474 55.5402 70.9913 56.816 71.0976 58.3046ZM63.9772 59.2614C63.9772 59.4741 63.9772 59.5804 63.9772 59.7931C64.0835 61.7069 64.8274 61.9195 65.1462 61.9195C66.4215 61.9195 67.6968 61.3879 68.547 60.431C68.6533 60.2184 68.6533 60.0057 68.7596 59.8994C69.5035 58.6235 69.0784 57.0287 67.9094 56.2844C67.9094 56.2844 67.9094 56.2844 67.8031 56.2844C67.2717 55.8591 66.5278 55.7528 65.7839 55.9654C64.6149 56.3907 63.9772 57.5603 63.9772 59.2614Z" fill="#FFED00"/>
<path d="M29.4209 185.007C29.4209 188.089 28.4063 190.64 26.49 192.553C24.5737 194.466 22.3193 195.423 19.7266 195.529L19.8393 189.577C20.9666 189.365 21.9811 188.94 22.5447 188.089C23.2211 187.239 23.5592 186.282 23.5592 185.113C23.5592 184.051 23.3338 183.2 22.8829 182.563C22.432 181.925 21.8684 181.606 21.0793 181.606C19.7266 181.606 18.7121 182.775 17.923 185.113L17.134 187.664C16.4576 189.896 15.4431 191.597 13.9777 192.872C12.5123 194.148 10.7087 194.785 8.56699 194.785C5.97435 194.785 3.8326 193.935 2.25447 192.234C0.676342 190.534 0 188.302 0 185.538C0 182.775 0.901789 180.437 2.81809 178.736C4.62167 177.036 6.65069 176.079 9.01789 175.973L8.90516 181.925C7.89065 182.137 7.10158 182.669 6.65069 183.307C6.19979 183.944 5.86162 184.688 5.86162 185.538C5.86162 186.495 6.08707 187.239 6.42524 187.77C6.76341 188.302 7.43975 188.621 8.11609 188.727C8.90516 188.727 9.46878 188.514 9.91967 187.983C10.3706 187.452 10.8215 186.601 11.1596 185.538L12.0614 182.456C12.7378 180.224 13.7523 178.524 15.2177 177.248C16.6831 175.973 18.4867 175.441 20.7411 175.441C23.2211 175.441 25.2501 176.398 26.8282 178.099C28.6318 179.799 29.4209 182.137 29.4209 185.007Z" fill="white"/>
<path d="M29.6464 158.649C29.6464 162.688 28.181 165.983 25.3629 168.64C22.5448 171.297 19.0504 172.573 14.8796 172.573C10.7088 172.573 7.32712 171.191 4.50903 168.534C1.69094 165.877 0.338257 162.475 0.338257 158.437C0.338257 155.461 1.35277 152.697 3.26907 150.253C5.18537 147.808 7.66529 146.214 10.7088 145.576L10.5961 152.06C9.24342 152.591 8.22891 153.441 7.55256 154.717C6.87622 155.886 6.42533 157.161 6.42533 158.543C6.42533 160.988 7.2144 162.901 8.79253 164.389C10.3707 165.877 12.3997 166.621 14.8796 166.621C17.2468 166.621 19.2758 165.877 20.9667 164.495C22.6575 163.007 23.4466 161.094 23.4466 158.756C23.4466 157.374 23.1084 156.098 22.4321 154.929C21.7557 153.76 20.7412 152.804 19.5013 152.272L19.614 145.789C22.6575 146.533 25.1374 148.127 26.941 150.678C28.7446 152.91 29.6464 155.673 29.6464 158.649Z" fill="white"/>
<path d="M29.3081 145.576L1.1272 133.885L1.23992 128.464L29.6463 117.304L29.5335 123.575L23.5592 125.913L23.4465 136.967L29.4208 139.412L29.3081 145.576ZM9.46874 131.228L17.923 134.735L18.0357 128.039L9.46874 131.228Z" fill="white"/>
<path d="M29.8718 90.308V95.5159L12.1742 108.376L29.6463 108.589L29.5336 114.541L1.23999 114.222V109.014L18.9376 96.1536L1.46544 95.9411L1.57816 89.8828L29.8718 90.308Z" fill="white"/>
</svg>
