<svg width="159" height="285" viewBox="0 0 159 285" fill="none" xmlns="http://www.w3.org/2000/svg">
<path d="M99.1217 19.2438C99.1217 19.3499 99.1217 19.456 99.0157 19.5621C98.8037 19.9866 98.3796 20.305 97.8496 20.0927C97.7436 20.0927 90.3227 17.5459 85.9762 20.6233C83.8559 22.2151 82.6898 24.9742 82.7958 28.9005C82.9018 32.8269 84.598 36.541 87.4603 39.0878C88.3084 39.8307 89.1565 40.5735 89.8986 41.3163C91.3828 42.6959 92.2309 44.7121 92.1249 46.7283L92.0189 49.8058L95.6233 47.3651C96.0474 47.0467 96.5774 47.1528 96.8955 47.5773C97.2135 48.0018 97.1075 48.5324 96.6834 48.8507L91.4888 52.3526C91.1708 52.5648 90.8527 52.5648 90.5347 52.3526C90.2167 52.1404 90.0046 51.822 90.1106 51.5037L90.3227 46.5161C90.4287 45.0305 89.7926 43.5448 88.7325 42.4836C88.0964 41.8469 87.2483 41.1041 86.4002 40.3613C83.1138 37.39 81.2056 33.2514 81.0996 28.7944C81.0996 24.3375 82.3717 20.9417 85.022 19.0316C90.1107 15.3174 98.2736 18.0765 98.5917 18.1826C98.9097 18.501 99.2277 18.8193 99.1217 19.2438Z" fill="#FFED00"/>
<path d="M92.019 51.6135C92.019 51.9319 91.913 52.2502 91.5949 52.3564L85.1282 56.6011C82.5839 58.299 79.2975 58.5112 76.5412 57.2378C74.3149 56.1766 72.4067 54.6909 70.7105 52.8869C68.9082 51.0829 67.9541 48.5361 67.9541 45.9893C67.7421 42.6996 69.0143 39.41 71.3465 37.1815C75.587 33.2551 82.2658 33.6796 82.5839 33.7857C83.1139 33.7857 83.432 34.3163 83.432 34.7408C83.432 35.2714 82.9019 35.5897 82.4779 35.5897C82.4779 35.5897 76.3291 35.1652 72.6187 38.561C70.6044 40.4711 69.5443 43.2302 69.7563 45.9893C69.7563 48.1116 70.6044 50.1279 71.9826 51.6135C73.4668 53.2053 75.269 54.5848 77.2832 55.5399C79.5095 56.6011 82.0538 56.3888 84.0681 55.0093L90.5348 50.7646C90.9589 50.4462 91.4889 50.5524 91.807 50.9768C91.913 51.1891 92.019 51.4013 92.019 51.6135Z" fill="#FFED00"/>
<path d="M158.383 32.2978C158.383 33.8896 158.065 38.2405 157.323 44.0769C157.005 47.5788 156.899 51.0807 157.111 54.5826C158.277 67.8474 158.595 81.2182 157.853 94.5891C157.111 105.519 154.567 116.343 150.22 126.424C146.51 135.126 138.665 161.231 145.449 214.715C152.552 270.108 125.731 281.887 113.858 284.434C109.935 285.283 105.907 285.071 102.196 283.691C99.0159 282.524 97.3197 281.887 90.5349 276.9C80.9938 269.79 76.0112 255.146 75.3751 243.685C74.845 234.559 71.0286 211.319 69.1204 200.176C68.5903 196.887 68.1662 194.658 68.0602 193.916C67.6362 190.732 60.1093 158.154 55.0207 144.889C53.0064 139.477 51.5223 130.988 50.6742 119.633C49.8261 108.278 51.2042 96.9237 54.7026 86.0997C56.2928 81.1121 57.565 75.9123 58.3071 70.7126C58.8371 67.2107 59.4732 62.9659 60.0033 58.9335C60.4273 55.5377 61.6995 53.097 63.8197 51.6113C65.6219 50.3379 67.8482 49.8073 69.9685 50.1257C70.4985 50.2318 70.8166 50.6563 70.7106 51.1868C70.6045 51.7174 70.1805 52.0358 69.6504 51.9297C67.9542 51.7174 66.258 52.1419 64.8799 53.097C63.1837 54.2643 62.2295 56.3866 61.8055 59.2518C61.2754 63.2843 60.6393 67.529 60.1093 71.137C59.2612 76.4429 58.095 81.6427 56.3988 86.7364C53.0064 97.3482 51.6283 108.491 52.3704 119.527C53.2185 130.669 54.5966 139.053 56.6109 144.146C61.8055 157.835 69.2264 190.307 69.6504 193.597C69.7564 194.34 70.0745 196.568 70.7106 199.858C72.6188 211.107 76.4352 234.453 76.9653 243.579C77.6014 254.615 82.2659 268.729 91.383 275.414C97.9558 280.296 99.546 280.826 102.62 281.993C106.013 283.267 109.723 283.479 113.328 282.63C124.671 280.189 150.326 268.835 143.435 214.927C136.544 161.019 144.495 134.596 148.312 125.788C152.552 115.813 154.991 105.307 155.733 94.5891C156.475 81.3243 156.157 68.0596 154.991 54.901C154.779 51.293 154.779 47.685 155.203 44.0769C156.369 33.6774 156.157 32.0856 156.157 32.0856C156.157 31.7673 152.234 5.66224 135.802 2.37258C133.364 1.73587 130.714 2.26646 128.593 3.85823C122.339 8.31519 120.006 20.8371 119.158 27.947C118.628 32.0856 119.582 36.1181 121.809 39.62L124.141 43.228C124.247 43.3341 124.247 43.4402 124.247 43.5464L125.519 49.0645C125.625 49.3828 125.519 49.5951 125.307 49.8073C125.095 50.0196 124.883 50.1257 124.565 50.1257H121.279C118.416 50.1257 116.084 47.8972 115.978 45.032L115.448 20.4126C115.448 20.2004 116.19 15.7434 113.54 12.5599C111.843 10.4375 109.087 9.27025 105.377 9.16413C103.68 8.95189 101.878 9.48248 100.606 10.7559C99.1219 12.2416 98.5919 15.0006 98.9099 18.5025C99.44 23.9145 102.09 29.1143 103.468 29.5388C107.815 31.0244 104.529 42.5913 103.468 46.0932C103.256 46.6238 102.832 46.836 102.302 46.7299C101.878 46.6238 101.56 46.0932 101.666 45.5626C103.68 39.1955 104.741 31.8734 102.938 31.2367C100.288 30.3877 97.6378 23.7023 97.2137 18.6086C96.8957 15.7434 97.1077 11.9232 99.44 9.37637C101.03 7.7846 103.362 7.04177 105.589 7.25401C109.829 7.46624 113.01 8.84577 115.024 11.3926C118.098 15.319 117.356 20.3065 117.25 20.5188L117.78 45.032C117.78 46.9421 119.37 48.4278 121.173 48.4278H123.823L122.869 44.1831L120.643 40.7873C118.204 36.967 117.144 32.2978 117.674 27.7348C118.734 18.7147 121.385 7.04177 127.851 2.37258C130.29 0.568574 133.47 -0.0681326 136.438 0.568575C154.249 4.17659 158.065 30.7061 158.277 31.8734C158.383 31.8734 158.383 32.0856 158.383 32.2978Z" fill="#FFED00"/>
<path d="M101.136 39.1968C101.136 39.5151 101.03 39.7274 100.818 39.9396C97.7437 42.1681 94.1393 43.4415 90.3228 43.6537C89.7928 43.6537 89.3687 43.3354 89.3687 42.8048C89.3687 42.2742 89.6867 41.8497 90.2168 41.8497C93.6092 41.6375 96.8956 40.4702 99.6519 38.4539C100.076 38.1356 100.606 38.2417 100.924 38.5601C101.03 38.7723 101.136 38.9845 101.136 39.1968Z" fill="#FFED00"/>
<path d="M143.859 54.7935C143.859 54.8996 143.859 54.8996 143.859 55.0057C143.753 55.5363 143.329 55.8546 142.799 55.7485C139.937 55.2179 125.413 50.1243 124.777 49.912C124.247 49.6998 124.035 49.2753 124.247 48.7447C124.459 48.2141 124.883 48.0019 125.413 48.2141C125.519 48.2141 140.467 53.4139 143.117 53.9445C143.541 54.0506 143.859 54.369 143.859 54.7935Z" fill="#FFED00"/>
<path d="M154.036 92.1495C154.036 95.9698 153.294 99.79 151.916 103.292C146.297 117.936 139.937 116.557 136.438 115.814C136.014 115.708 135.59 115.602 135.166 115.602C134 115.602 130.82 114.328 124.777 111.781C118.31 109.128 109.511 105.52 106.861 105.627H106.225C104.634 105.627 103.044 105.839 101.454 106.263C95.5173 108.279 89.8987 110.932 84.598 114.328C75.1629 120.165 67.424 120.801 62.7594 116.026C60.7452 113.904 59.6851 111.145 59.6851 108.173C59.579 81.6439 76.5411 69.2281 90.7468 63.4977C103.044 58.5101 116.72 57.7673 129.547 61.4814C143.435 65.5139 147.782 72.5177 147.888 72.8361C151.81 78.6726 153.93 85.358 154.036 92.1495ZM61.6993 108.067V108.279C61.6993 110.72 62.6534 113.055 64.2436 114.859C69.6502 120.377 78.7673 116.026 83.7499 112.843C89.1566 109.447 94.9873 106.688 101.03 104.565C102.726 104.035 104.528 103.823 106.331 103.823H106.967C110.041 103.716 118.31 107.112 125.625 110.19C129.759 111.887 134.424 113.798 135.272 113.798C135.802 113.798 136.332 113.904 136.862 114.01C139.937 114.647 145.237 115.708 150.22 102.549C156.263 86.9498 146.615 74.0034 146.509 73.8972C146.403 73.7911 142.269 67.1057 129.123 63.2855C116.72 59.6774 103.468 60.3142 91.5949 65.1956C77.9192 70.8198 61.6993 82.705 61.6993 108.067Z" fill="#FFED00"/>
<path d="M146.616 126.956C146.616 127.592 146.51 128.123 146.404 128.76L143.859 136.4C139.407 149.877 137.71 164.203 138.983 178.317C139.619 185.745 140.361 192.749 140.679 195.296C140.785 196.569 140.785 197.949 140.679 199.222C140.361 201.981 139.619 203.679 138.453 204.21C137.71 204.528 136.968 204.422 136.332 203.997C133.152 202.087 124.141 187.018 119.9 178.211C115.554 169.191 117.78 158.897 117.886 158.473C117.992 158.048 120.96 148.498 130.502 133.429C132.516 130.139 135.272 127.274 138.453 125.046C141.527 122.923 143.753 122.393 145.237 123.348C146.192 124.303 146.722 125.576 146.616 126.956ZM136.65 169.084C136.65 157.73 138.453 146.481 142.057 135.763L144.495 128.229C144.601 127.486 144.813 125.47 143.965 124.939C143.647 124.727 142.587 124.409 139.301 126.637C136.332 128.76 133.788 131.413 131.88 134.49C122.551 149.347 119.476 158.897 119.476 159.003C119.476 159.109 117.25 168.978 121.385 177.468C125.943 186.806 134.53 200.92 137.18 202.512C137.286 202.618 137.498 202.618 137.604 202.618C137.923 202.512 138.453 201.557 138.771 199.01C138.877 197.842 138.877 196.675 138.771 195.508C138.453 192.855 137.817 185.957 137.074 178.423C136.862 175.345 136.65 172.268 136.65 169.084Z" fill="#FFED00"/>
<path d="M135.166 242.091C135.166 253.446 131.032 264.801 121.809 270.849C114.812 275.306 105.907 275.2 99.0158 270.743C81.2057 259.389 81.4177 244.214 83.1139 236.149C85.9762 222.459 96.8956 209.938 107.603 208.24C118.31 206.542 127.533 213.015 132.304 225.537C134.318 230.843 135.272 236.467 135.166 242.091ZM84.068 243.046C84.068 250.793 87.0364 261.086 99.8639 269.258C106.225 273.396 114.388 273.396 120.748 269.364C133.894 260.874 136.014 240.712 130.396 226.28C125.943 214.607 117.462 208.558 107.709 210.15C97.8497 211.742 87.3544 223.839 84.7041 236.573C84.3861 238.696 84.174 240.818 84.068 243.046Z" fill="#FFED00"/>
<path d="M76.2228 58.1909C76.2228 59.0398 76.0108 59.7827 75.6927 60.5255C73.3605 65.9375 63.2893 68.166 62.8652 68.166C62.3352 68.2721 61.9111 67.9537 61.8051 67.4232C61.6991 66.8926 62.0171 66.4681 62.5472 66.362C62.6532 66.362 72.1943 64.2396 74.1026 59.7827C74.6326 58.297 74.4206 56.5991 73.4665 55.3257C73.1484 54.9012 73.2545 54.3706 73.6785 54.0523C74.1026 53.7339 74.6326 53.8401 74.9507 54.2645L75.0567 54.3706C75.9048 55.5379 76.2228 56.8114 76.2228 58.1909Z" fill="#FFED00"/>
<path d="M151.916 24.8711C151.916 25.4017 151.916 25.9323 151.916 26.569C151.068 40.046 139.3 40.2583 139.194 40.2583C138.134 40.2583 127.639 38.3481 122.975 31.5566C121.596 29.5403 120.96 27.0996 121.172 24.765C121.808 14.6838 125.519 9.48405 128.593 6.93721C132.092 4.07203 136.968 3.54144 140.997 5.76991C147.887 9.59016 152.128 17.0184 151.916 24.8711ZM122.868 25.5079C122.868 27.3119 123.399 29.1159 124.353 30.6015C128.487 36.5441 137.922 38.3481 139.088 38.4542C139.194 38.4542 149.266 38.3481 150.008 26.4629C150.538 18.1857 146.827 10.9697 140.149 7.36168C136.756 5.45156 132.622 5.87603 129.653 8.31675C125.625 11.6064 123.399 17.3368 122.868 24.8711C122.868 25.0834 122.868 25.2956 122.868 25.5079Z" fill="#FFED00"/>
<path d="M116.084 20.5202C116.084 21.4753 115.978 22.4303 115.66 23.2793C114.812 25.72 112.904 27.6301 110.465 28.3729C108.451 29.328 106.013 29.328 103.999 28.3729C100.818 26.7812 99.016 22.8548 98.1679 19.8835C97.2138 16.7 97.8498 13.1981 99.7581 10.5451C100.924 8.635 102.938 7.36159 105.165 7.14935C109.087 6.831 112.48 10.3329 112.692 10.5451C113.01 10.9696 116.084 15.7449 116.084 20.5202ZM99.6521 17.0183C99.6521 17.8673 99.7581 18.7162 99.9701 19.459C100.712 22.112 102.196 25.5078 104.847 26.7812C106.437 27.524 108.239 27.4179 109.829 26.6751C111.738 26.0383 113.222 24.5527 113.964 22.6426C115.448 18.0795 111.419 11.7124 111.313 11.6063C111.313 11.6063 108.451 8.74112 105.377 8.95336C103.681 9.16559 102.196 10.1207 101.348 11.6063C100.182 13.3042 99.6521 15.1082 99.6521 17.0183Z" fill="#FFED00"/>
<path d="M101.136 30.4945C101.136 31.2374 101.03 31.8741 100.924 32.6169C100.394 34.527 98.1679 37.18 94.9875 38.4534C91.7011 39.6207 87.8847 38.984 85.2344 36.7555C83.8562 35.8004 82.9021 34.3148 82.5841 32.723C80.6758 25.2947 84.7043 21.6867 87.2486 20.2011C88.4147 19.5644 89.7929 19.246 91.1711 19.3521C94.3515 19.4583 97.3198 21.05 99.228 23.5969C100.394 25.6131 101.136 28.0538 101.136 30.4945ZM83.7502 29.0089C83.7502 30.0701 83.9622 31.1312 84.1742 32.1924C84.4923 33.3597 85.1284 34.4209 86.1885 35.1637C88.4147 37.0738 91.4891 37.6044 94.3515 36.6494C96.5777 35.9065 98.2739 34.3148 99.122 32.1924C99.5461 29.5395 99.016 26.8865 97.5318 24.658C95.9416 22.5357 93.5034 21.2623 90.853 21.1561C89.8989 21.05 88.8388 21.3684 87.9907 21.7929C85.3404 23.1724 83.6442 26.0376 83.7502 29.0089Z" fill="#FFED00"/>
<path d="M87.7785 42.8059C87.6725 46.52 85.5522 50.0219 82.2659 51.8259C78.5554 54.1605 73.6788 53.0993 71.3466 49.3852C69.2263 46.4139 68.5902 43.6548 69.2263 41.108C70.3924 37.0755 74.6329 35.0592 75.057 34.847C76.4352 34.1042 80.7817 33.9981 84.3861 36.3327C85.5522 37.0755 86.5064 38.2428 87.0364 39.5162C87.4605 40.3651 87.7785 41.5324 87.7785 42.8059ZM70.8165 43.0181C70.9225 44.9282 71.5586 46.8383 72.8307 48.324C74.633 51.1892 78.3434 52.1442 81.2057 50.3402C81.3117 50.3402 81.3117 50.2341 81.4178 50.2341C84.7042 48.324 87.1424 44.0793 85.4462 40.0468C85.0222 39.0917 84.2801 38.2428 83.432 37.7122C80.3576 35.696 76.6472 36.0143 76.0111 36.3327H75.9051C75.9051 36.3327 71.9826 38.1367 71.0285 41.4263C70.9225 41.9569 70.8165 42.4875 70.8165 43.0181Z" fill="#FFED00"/>
<path d="M72.4063 57.7659C72.4063 58.5088 72.1943 59.2516 71.8762 59.9944C71.7702 60.1005 71.7702 60.3128 71.6642 60.4189C71.3461 61.5862 68.5898 63.4963 66.4696 63.2841C65.4094 63.178 63.7132 62.5413 63.5012 59.4638C63.2892 55.6436 65.3034 54.1579 66.4696 53.7335C67.7417 53.2029 69.2259 53.4151 70.286 54.3702C71.5582 55.0069 72.3003 56.2803 72.4063 57.7659ZM65.3034 58.721C65.3034 58.9332 65.3034 59.0394 65.3034 59.2516C65.4094 61.1617 66.1515 61.374 66.4696 61.374C67.7417 61.374 69.0139 60.8434 69.862 59.8883C69.968 59.6761 69.968 59.4638 70.074 59.3577C70.8161 58.0843 70.392 56.4925 69.2259 55.7497C69.2259 55.7497 69.2259 55.7497 69.1199 55.7497C68.5898 55.3252 67.8477 55.2191 67.1056 55.4313C65.9395 55.8558 65.3034 57.0231 65.3034 58.721Z" fill="#FFED00"/>
<path d="M27.5633 242.517C27.5633 246.55 26.1851 249.839 23.5348 252.492C20.8845 255.145 17.5981 256.419 13.6756 256.419C9.75316 256.419 6.57278 255.039 3.92247 252.386C1.27215 249.733 0 246.338 0 242.305C0 239.334 0.954116 236.575 2.75633 234.134C4.55855 231.693 6.89082 230.102 9.75316 229.465L9.64715 235.938C8.375 236.469 7.42089 237.318 6.78481 238.591C6.14874 239.758 5.72468 241.032 5.72468 242.411C5.72468 244.852 6.46677 246.762 7.95095 248.248C9.43513 249.733 11.3434 250.476 13.6756 250.476C15.9019 250.476 17.8101 249.733 19.4003 248.354C20.9905 246.974 21.7326 244.958 21.7326 242.623C21.7326 241.244 21.4146 239.971 20.7785 238.803C20.1424 237.636 19.1883 236.681 18.0222 236.15L18.1282 229.677C20.9905 230.42 23.3228 232.012 25.019 234.558C26.8212 236.787 27.6693 239.546 27.5633 242.517Z" fill="white"/>
<path d="M27.4571 208.984L15.4777 219.808L27.4571 219.914L27.3511 225.857L0.741943 225.539L0.847958 219.596L11.9793 219.702L0.953969 210.576L1.05998 203.254L13.7815 213.866L27.7752 201.344L27.4571 208.984Z" fill="white"/>
<path d="M27.5631 202.403L1.05998 190.73L1.166 185.318L27.8812 174.176L27.7752 180.437L22.1565 182.771L22.0505 193.808L27.6692 196.248L27.5631 202.403ZM8.90492 188.077L16.8559 191.579L16.9619 184.894L8.90492 188.077Z" fill="white"/>
<path d="M27.8813 171.312L1.27217 170.994L1.37819 165.051L11.7674 165.157L11.8734 154.439L1.4842 154.333L1.59021 148.391L28.1994 148.709L28.0934 154.652L17.4921 154.545L17.3861 165.263L27.9874 165.369L27.8813 171.312Z" fill="white"/>
<path d="M28.3053 140.961L22.7927 140.855C22.8987 140.218 23.0047 139.369 23.0047 138.414C23.0047 136.823 22.5806 135.655 21.6265 134.912L1.48412 144.994L1.59013 138.202L15.0537 131.411L1.80215 124.725L1.90817 117.934L21.6265 128.015C24.1708 129.394 26.0791 130.774 27.1392 132.26C28.1993 133.745 28.8354 135.549 28.7294 137.672C28.6234 138.733 28.5173 139.9 28.3053 140.961Z" fill="white"/>
<path d="M28.9415 104.349C28.9415 108.382 27.5633 111.672 24.913 114.324C22.2627 116.977 18.9763 118.251 15.0538 118.251C11.1313 118.251 7.95096 116.871 5.30064 114.218C2.65032 111.565 1.37817 108.17 1.37817 104.137C1.37817 101.166 2.33229 98.4068 4.1345 95.9661C5.93672 93.5254 8.26899 91.9336 11.1313 91.2969L11.0253 97.7701C9.75317 98.3007 8.79906 99.1496 8.16298 100.423C7.52691 101.59 7.10285 102.864 7.10285 104.243C7.10285 106.153 7.52691 107.745 8.58703 109.125C9.54115 110.504 10.8133 111.459 12.5095 111.884L12.6155 101.166H17.9161L17.8101 111.884C19.4003 111.353 20.7785 110.504 21.7326 109.125C22.6867 107.851 23.2168 106.153 23.2168 104.243C23.2168 102.864 22.8987 101.59 22.2627 100.423C21.6266 99.2557 20.6725 98.3007 19.5063 97.7701L19.6123 91.2969C22.4747 92.0397 24.807 93.6315 26.5032 96.1783C28.1994 98.619 29.0475 101.378 28.9415 104.349Z" fill="white"/>
<path d="M2.01445 87.4767L2.12046 82.0647L13.6758 73.8936L2.22648 65.4042L2.33249 59.9922L28.9417 60.3105L28.8356 66.3593L12.4037 66.147L23.111 73.9998L12.2977 81.7464L28.7296 81.9586L28.6236 87.9012L2.01445 87.4767Z" fill="white"/>
<path d="M25.6553 32.4021C28.3057 35.1612 29.6838 38.3447 29.5778 42.165C29.5778 45.9852 28.1996 49.1687 25.4433 51.9278C22.687 54.5808 19.5066 55.9603 15.6902 55.8542C11.8737 55.8542 8.69332 54.4746 5.93699 51.7156C3.28668 48.9565 1.90851 45.773 2.01452 41.9527C2.01452 38.1325 3.39269 34.9489 6.14902 32.1899C8.90535 29.5369 12.0857 28.1574 15.9022 28.2635C19.7186 28.3696 23.005 29.7492 25.6553 32.4021ZM21.4148 47.6831C23.005 46.1974 23.8531 44.3934 23.8531 42.165C23.8531 40.0426 23.111 38.1325 21.5209 36.6468C19.9307 35.1612 18.1284 34.3122 15.9022 34.3122C13.6759 34.3122 11.8737 35.0551 10.2835 36.5407C8.69332 38.0264 7.84522 39.8304 7.84522 41.9527C7.84522 44.0751 8.58731 45.9852 10.1775 47.4709C11.7677 48.9565 13.5699 49.8055 15.7962 49.8055C17.9164 49.9116 19.8246 49.1687 21.4148 47.6831Z" fill="white"/>
</svg>
