<svg width="96" height="70" viewBox="0 0 96 70" fill="none" xmlns="http://www.w3.org/2000/svg">
<path d="M59.9428 43.999C60.2378 43.9216 60.4991 43.7468 60.6858 43.5022C60.8725 43.2575 60.9739 42.9568 60.9743 42.6471V38.0153H62.9588C64.1816 38.0115 65.3897 38.287 66.4936 38.8215C67.5801 39.3423 68.8091 39.4697 69.9766 39.1825C71.1441 38.8953 72.1798 38.2109 72.9118 37.2428C73.4051 36.5856 73.7432 35.822 73.9001 35.011C74.057 34.1999 74.0284 33.363 73.8166 32.5649C73.6231 31.8287 73.277 31.143 72.8013 30.5539C72.3257 29.9648 71.7316 29.4859 71.0589 29.1494C70.3861 28.8129 69.6504 28.6266 68.901 28.6029C68.1515 28.5792 67.4058 28.7187 66.7138 29.0121C65.7396 29.4259 64.4578 29.9042 63.1519 29.9042H60.9743V25.8578C60.974 25.6485 60.9273 25.4419 60.8378 25.2534C60.7483 25.0649 60.6182 24.8993 60.4571 24.7689C60.2961 24.6385 60.1082 24.5466 59.9074 24.5C59.7067 24.4534 59.4982 24.4533 59.2974 24.4998C58.5705 24.6715 57.8406 24.8063 57.1107 24.9504V20.1683C58.0578 19.9814 59.0018 19.7729 59.9428 19.5307C60.2378 19.4533 60.4991 19.2786 60.6858 19.0339C60.8725 18.7892 60.9739 18.4885 60.9743 18.1789V13.547H62.9588C64.1827 13.5389 65.3928 13.8102 66.4997 14.341C67.5829 14.8563 68.8066 14.9811 69.969 14.6946C71.1313 14.4082 72.1629 13.7277 72.8937 12.7653C73.3885 12.1107 73.729 11.3494 73.889 10.54C74.049 9.73066 74.0242 8.89479 73.8166 8.09668C73.5745 7.17056 73.0912 6.32789 72.4177 5.65736C71.7441 4.98682 70.9052 4.5132 69.9892 4.28635C68.894 4.01565 67.7424 4.10692 66.7017 4.54691C65.7306 4.96074 64.4488 5.43895 63.1398 5.43895H60.9652V1.38952C60.9652 1.1804 60.9189 0.973969 60.8296 0.785568C60.7403 0.597168 60.6104 0.431642 60.4495 0.301288C60.2876 0.171849 60.0994 0.0807415 59.8985 0.0346049C59.6977 -0.0115317 59.4892 -0.0115351 59.2883 0.0345955C51.8608 1.7942 44.1347 1.7942 36.7072 0.0345955C36.5063 -0.0113158 36.2979 -0.0112027 36.0971 0.0349259C35.8962 0.0810545 35.708 0.172042 35.546 0.301288C35.3852 0.431642 35.2553 0.597168 35.166 0.785568C35.0767 0.973969 35.0303 1.1804 35.0303 1.38952V5.43895H32.8557C31.5498 5.43895 30.268 4.96074 29.2938 4.54691C28.2521 4.10668 27.0995 4.01541 26.0033 4.28635C25.0883 4.51373 24.2505 4.98721 23.5776 5.65709C22.9047 6.32698 22.4216 7.16859 22.179 8.09361C21.9732 8.89334 21.9507 9.73042 22.1133 10.5404C22.2759 11.3503 22.6193 12.1115 23.1169 12.7653C23.6085 13.4131 24.2401 13.9372 24.9629 14.2971C25.6857 14.657 26.4803 14.8429 27.2851 14.8406C28.0584 14.8419 28.8221 14.667 29.52 14.3287C30.6275 13.8032 31.8356 13.5331 33.0578 13.5378H35.0363V18.1789C35.0369 18.4889 35.1388 18.79 35.326 19.0347C35.5133 19.2794 35.7753 19.4539 36.0708 19.5307C37.0088 19.7729 37.9559 19.9814 38.8999 20.1683V24.9474C38.17 24.8094 37.4401 24.6715 36.7133 24.4998C36.5123 24.4543 36.304 24.4547 36.1032 24.5008C35.9025 24.5469 35.7142 24.6376 35.5521 24.7665C35.3912 24.8968 35.2613 25.0624 35.172 25.2508C35.0827 25.4392 35.0363 25.6456 35.0363 25.8547V29.9042H32.8618C31.5558 29.9042 30.271 29.429 29.2998 29.0121C28.2578 28.5729 27.1052 28.4827 26.0093 28.7546C24.7582 29.0687 23.6636 29.8376 22.9324 30.9162C22.2011 31.9947 21.8839 33.3081 22.0406 34.6082C22.1973 35.9083 22.817 37.105 23.7828 37.9722C24.7486 38.8395 25.9934 39.3172 27.2821 39.315C28.0551 39.3174 28.8188 39.1435 29.517 38.8062C30.6244 38.2803 31.8325 38.0103 33.0548 38.0153H35.0333V42.6471C35.0338 42.9564 35.1354 43.2567 35.3221 43.5008C35.5088 43.745 35.7701 43.9191 36.0648 43.9959C37.0058 44.2391 37.9498 44.4517 38.8969 44.6335V49.4156C38.167 49.2777 37.4371 49.1367 36.7072 48.965C36.5065 48.9191 36.2982 48.9196 36.0977 48.9665C35.8971 49.0133 35.7095 49.1052 35.5486 49.2356C35.3877 49.3659 35.2576 49.5312 35.1679 49.7194C35.0782 49.9076 35.0312 50.1139 35.0303 50.323V54.3724H32.8557C31.5498 54.3724 30.268 53.8942 29.2938 53.4804C28.2199 53.025 27.0279 52.9439 25.904 53.2498C24.78 53.5557 23.7873 54.2313 23.0811 55.1711C22.3748 56.111 21.9947 57.2621 22.0001 58.4447C22.0055 59.6274 22.3961 60.7749 23.1109 61.708C23.6018 62.3557 24.2329 62.8798 24.9552 63.2397C25.6775 63.5996 26.4716 63.7856 27.2761 63.7833C28.0494 63.7853 28.8132 63.6103 29.511 63.2714C30.6195 62.7459 31.8286 62.4758 33.0518 62.4805H35.0303V67.1124C35.0306 67.422 35.1321 67.7227 35.3188 67.9674C35.5055 68.2121 35.7668 68.3868 36.0618 68.4642C43.8906 70.5119 52.102 70.5119 59.9307 68.4642C60.2257 68.3868 60.487 68.2121 60.6737 67.9674C60.8604 67.7227 60.9619 67.422 60.9622 67.1124V62.4805H62.9407C64.1647 62.4719 65.3748 62.7433 66.4816 63.2744C67.565 63.7926 68.7898 63.9197 69.9539 63.635C71.1181 63.3502 72.1518 62.6704 72.8846 61.708C73.3826 61.0532 73.7256 60.2907 73.8872 59.4795C74.0488 58.6684 74.0247 57.8303 73.8166 57.0301C73.623 56.293 73.2764 55.6065 72.8 55.0169C72.3236 54.4273 71.7285 53.9482 71.0547 53.6119C70.3809 53.2756 69.6441 53.0899 68.8937 53.0672C68.1434 53.0445 67.397 53.1854 66.7048 53.4804C65.7306 53.8942 64.4488 54.3724 63.1428 54.3724H60.9652V50.323C60.9659 50.1138 60.9198 49.9071 60.8305 49.7186C60.7411 49.5301 60.6109 49.3647 60.4495 49.2348C60.2879 49.1048 60.0998 49.0131 59.8989 48.9665C59.698 48.9198 59.4894 48.9193 59.2883 48.965C58.5614 49.1367 57.8316 49.2715 57.1017 49.4156V44.6458C58.0608 44.4619 59.0048 44.2534 59.9458 44.0113L59.9428 43.999ZM60.9743 32.6876H63.1519C64.9615 32.6876 66.563 32.0959 67.7724 31.5779C68.2777 31.3686 68.8353 31.3278 69.3649 31.4614C69.7961 31.57 70.191 31.7933 70.5091 32.1085C70.8271 32.4237 71.0568 32.8193 71.1745 33.2547C71.3063 33.729 71.3015 34.2318 71.1607 34.7034C71.02 35.1751 70.7492 35.5958 70.3804 35.9158C70.0115 36.2359 69.5602 36.4417 69.0798 36.509C68.5994 36.5763 68.1101 36.5022 67.6699 36.2956C66.1962 35.5914 64.5872 35.2281 62.9588 35.2319H60.9803V32.6906L60.9743 32.6876ZM60.9743 8.2193H63.1519C64.9615 8.2193 66.563 7.6246 67.7724 7.10961C68.277 6.89735 68.8356 6.85649 69.3649 6.99312C69.7965 7.10081 70.1919 7.32389 70.5101 7.6392C70.8283 7.95452 71.0577 8.35061 71.1745 8.7864C71.3069 9.26071 71.3025 9.76366 71.1618 10.2355C71.0212 10.7073 70.7502 11.1282 70.3811 11.4481C70.0121 11.7681 69.5604 11.9736 69.0798 12.0402C68.5992 12.1069 68.1098 12.0319 67.6699 11.8242C66.1955 11.1225 64.5869 10.7603 62.9588 10.7636H60.9803V8.2193H60.9743ZM35.0363 10.7636H33.0578C31.4297 10.7596 29.8209 11.1218 28.3468 11.8242C27.9064 12.0304 27.4171 12.1039 26.9368 12.0362C26.4566 11.9684 26.0055 11.7621 25.637 11.4418C25.2685 11.1215 24.9981 10.7005 24.8578 10.2288C24.7174 9.75714 24.713 9.25443 24.8451 8.78027C24.9628 8.34492 25.1925 7.94931 25.5106 7.63412C25.8287 7.31894 26.2236 7.09557 26.6548 6.98699C26.8621 6.93521 27.0747 6.90845 27.2881 6.90729C27.6175 6.90753 27.9435 6.97422 28.2472 7.10348C29.4536 7.61847 31.0733 8.21317 32.8678 8.21317H35.0424V10.7575L35.0363 10.7636ZM35.0363 35.2319H33.0578C31.4297 35.2279 29.8209 35.5901 28.3468 36.2925C27.9067 36.4997 27.4174 36.5743 26.9369 36.5075C26.4563 36.4406 26.0047 36.2352 25.6356 35.9155C25.2664 35.5958 24.9952 35.1752 24.854 34.7036C24.7129 34.232 24.7077 33.7292 24.8391 33.2547C24.9577 32.8198 25.1876 32.4246 25.5056 32.1096C25.8235 31.7945 26.218 31.5709 26.6487 31.4614C26.8562 31.4106 27.0687 31.3849 27.2821 31.3848C27.6112 31.3839 27.9372 31.4496 28.2412 31.5779C29.4476 32.0959 31.0672 32.6876 32.8618 32.6876H35.0363V35.2319ZM35.0363 59.7032H33.0578C31.4299 59.6982 29.8211 60.0593 28.3468 60.7608C27.907 60.9676 27.4181 61.042 26.9379 60.9753C26.4578 60.9085 26.0065 60.7034 25.6375 60.3841C25.2685 60.0649 24.9972 59.6449 24.8557 59.1738C24.7142 58.7027 24.7085 58.2003 24.8391 57.726C24.9568 57.2907 25.1865 56.895 25.5046 56.5799C25.8226 56.2647 26.2176 56.0413 26.6487 55.9327C26.856 55.8809 27.0686 55.8542 27.2821 55.853C27.6114 55.8533 27.9374 55.9199 28.2412 56.0492C29.4476 56.5642 31.0672 57.1558 32.8618 57.1558H35.0363V59.7032ZM60.9743 57.1558H63.1519C64.9615 57.1558 66.563 56.5642 67.7724 56.0492C68.277 55.837 68.8356 55.7961 69.3649 55.9327C69.7965 56.0404 70.1919 56.2635 70.5101 56.5788C70.8283 56.8941 71.0577 57.2902 71.1745 57.726C71.3069 58.2003 71.3025 58.7033 71.1618 59.1751C71.0212 59.6469 70.7502 60.0678 70.3811 60.3877C70.0121 60.7077 69.5604 60.9132 69.0798 60.9798C68.5992 61.0465 68.1098 60.9715 67.6699 60.7638C66.196 60.0606 64.587 59.6984 62.9588 59.7032H60.9803V57.1558H60.9743ZM37.7779 17.0845V3.10616C44.5316 4.47644 51.4851 4.47644 58.2387 3.10616V17.0845C51.5083 18.6755 44.5084 18.6755 37.7779 17.0845ZM54.3661 20.6159V25.3826C50.1403 25.9406 45.8612 25.9406 41.6354 25.3826V20.6159C43.7445 20.9093 45.8705 21.0588 47.9993 21.0635C50.1291 21.0602 52.2562 20.9107 54.3661 20.6159ZM58.2297 52.0458V66.0241C51.4989 67.6122 44.4996 67.6122 37.7689 66.0241V52.0458C44.5257 53.4141 51.4819 53.4141 58.2387 52.0458H58.2297ZM41.6415 49.854V45.0842C45.8644 45.685 50.1492 45.685 54.3722 45.0842V49.857C50.1464 50.415 45.8673 50.415 41.6415 49.857V49.854ZM37.7779 41.5528V27.5744C44.5319 28.9416 51.4848 28.9416 58.2387 27.5744V41.5528C51.5083 43.1437 44.5084 43.1437 37.7779 41.5528Z" fill="white"/>
<path d="M10 12V61" stroke="#FFED00" stroke-width="2.61078" stroke-linecap="round" stroke-linejoin="round"/>
<path d="M0 20.2534L1.79122 22L9.99843 12.7554L18.2087 22L19.9999 20.2534L9.99843 9L0 20.2534Z" fill="#FFED00"/>
<path d="M86 58V9" stroke="#FFED00" stroke-width="2.61078" stroke-linecap="round" stroke-linejoin="round"/>
<path d="M95.9999 50.7466L94.2087 49L86.0015 58.2414L77.7912 49L76 50.7466L86.0015 62L95.9999 50.7466Z" fill="#FFED00"/>
</svg>
