<svg width="88" height="57" viewBox="0 0 88 57" fill="none" xmlns="http://www.w3.org/2000/svg">
<path d="M0 7.71271L7.07775 50H79.5067L88 7.71271L84.2252 7C84.2252 7 81.63 19.8287 81.63 20.3039C79.7426 20.3039 7.07775 20.3039 6.13405 20.3039L4.01073 7.23757L0 7.71271ZM41.2869 22.9171V24.105H41.5228H41.7587H41.9946H42.2306H42.4665H42.7024H42.9383H43.1743H43.4102H43.6461H43.882H44.118H44.3539H44.5898H44.8257H43.6461H43.882H44.118H44.3539H44.5898H44.8257H45.0617H45.2976H45.5335H45.7694H46.0054H46.2413H46.4772H46.7131H46.9491H47.185H46.0054H46.2413H46.4772H46.7131H46.9491H47.185H47.4209H47.6568H47.8928H48.1287H48.3646H48.6005H48.8365H49.0724H49.3083H49.5442H48.3646H48.6005H48.8365H49.0724H49.3083H49.5442H49.7802H50.0161H50.252H50.4879H50.7239H50.9598H51.1957H51.4316H51.6676H51.9035H50.7239H50.9598H51.1957H51.4316H51.6676H51.9035H52.1394H52.3753H52.6113H52.8472H53.0831H53.319H53.555H53.7909H54.0268H53.0831H53.319H53.555H53.7909H54.0268H54.2627H54.4987H54.7346H54.9705H55.2064H55.4424H55.6783H55.9142H56.1501H56.3861H56.622H55.4424H55.6783H55.9142H56.1501H56.3861H56.622H56.8579H57.0938H57.3298H57.5657H57.8016H58.0375H58.2735H58.5094H58.7453H58.9812H57.8016H58.0375H58.2735H58.5094H58.7453H58.9812H59.2172H59.4531H59.689H59.9249H60.1609H60.3968H60.6327H60.8686H61.1046H60.1609H60.3968H60.6327H60.8686H61.1046H61.3405H61.5764H61.8123H62.0483H62.2842H62.5201H62.756H62.992H63.2279H63.4638H63.6997H62.5201H62.756H62.992H63.2279H63.4638H63.6997H63.9357H64.1716H64.4075H64.6434H64.8794H65.1153H65.3512H65.5871H65.8231H64.8794H65.1153H65.3512H65.5871H65.8231H66.059H66.2949H66.5308H66.7668H67.0027H67.2386H67.4745H67.7105H67.9464H67.2386H67.4745H67.7105H67.9464H68.1823H68.4182H68.6542H68.8901H69.126H69.3619H69.5979H69.8338H70.0697H70.3056H69.5979H69.8338H70.0697H70.3056H70.5416H70.7775H71.0134H71.2493H71.4853H71.7212H71.9571H72.193H72.429H72.6649H71.9571H72.193H72.429H72.6649H72.9008H73.1367H73.3727H73.6086H73.8445H74.0804H74.3164H74.5523H74.7882H75.0241H74.3164H74.5523H74.7882H75.0241H75.2601H75.496H75.7319H75.9678H76.2038H76.4397H76.6756H76.9115H77.1475H76.6756H76.9115H77.1475H77.3834H77.6193H77.8552H78.0911H78.3271H78.563H78.7989H79.0349H79.2708H79.5067H79.0349H79.2708H79.5067H79.7426H79.9786H80.2145H80.4504H80.6863H80.9222H81.1582H81.3941H81.63L76.4397 46.4365H10.3807L6.6059 24.3425H6.84182H7.07775H7.31367H7.5496H7.78552H8.02145H8.25737H8.4933H8.72922H8.96515H9.20107H9.437H9.67292H9.90885H10.1448H10.3807H10.6166H10.8525H11.0885H11.3244H10.6166H10.8525H11.0885H11.3244H11.5603H11.7962H12.0322H12.2681H12.504H12.7399H12.9759H13.2118H13.4477H13.6836H12.9759H13.2118H13.4477H13.6836H13.9196H14.1555H14.3914H14.6273H14.8633H15.0992H15.3351H15.571H15.807H16.0429H15.3351H15.571H15.807H16.0429H16.2788H16.5147H16.7507H16.9866H17.2225H17.4584H17.6944H17.9303H18.1662H18.4021H17.6944H17.9303H18.1662H18.4021H18.6381H18.874H19.1099H19.3458H19.5818H19.8177H20.0536H20.2895H20.5255H20.7614H20.0536H20.2895H20.5255H20.7614H20.9973H21.2332H21.4692H21.7051H21.941H22.1769H22.4129H22.6488H22.8847H23.1206H22.4129H22.6488H22.8847H23.1206H23.3566H23.5925H23.8284H24.0643H24.3003H24.5362H24.7721H25.008H25.244H25.4799H25.7158H24.7721H25.008H25.244H25.4799H25.7158H25.9517H26.1877H26.4236H26.6595H26.8954H27.1314H27.3673H27.6032H27.8391H28.0751H27.1314H27.3673H27.6032H27.8391H28.0751H28.311H28.5469H28.7828H29.0188H29.2547H29.4906H29.7265H29.9625H30.1984H30.4343H29.4906H29.7265H29.9625H30.1984H30.4343H30.6702H30.9062H31.1421H31.378H31.6139H31.8499H32.0858H32.3217H32.5576H32.7936H31.8499H32.0858H32.3217H32.5576H32.7936H33.0295H33.2654H33.5013H33.7373H33.9732H34.2091H34.445H34.681H34.9169H35.1528H35.3887H34.2091H34.445H34.681H34.9169H35.1528H35.3887H35.6247H35.8606H36.0965H36.3324H36.5684H36.8043H37.0402H37.2761H37.5121H37.748H36.5684H36.8043H37.0402H37.2761H37.5121H37.748H37.9839H38.2198H38.4558H38.6917H38.9276H39.1635H39.3995H39.6354H39.8713H40.1072H38.9276H39.1635H39.3995H39.6354H39.8713H40.1072H40.3432H40.5791H40.815H41.0509H41.2869H41.5228H41.7587H41.9946H42.2306H42.4665H41.2869V22.9171Z" fill="white"/>
<path fill-rule="evenodd" clip-rule="evenodd" d="M43.5 29.0913L4.70536 57L4 56.0539L42.5595 28.3817L4 0.946057L4.70536 0L43.5 27.9087L82.2946 0L83 0.946057L44.4405 28.3817L83 56.0539L82.2946 57L43.5 29.0913Z" fill="white"/>
</svg>
