<svg width="24" height="21" viewBox="0 0 24 21" fill="none" xmlns="http://www.w3.org/2000/svg">
<path d="M9 21C10.1046 21 11 20.1046 11 19C11 17.8954 10.1046 17 9 17C7.89543 17 7 17.8954 7 19C7 20.1046 7.89543 21 9 21Z" fill="#1D1D1B"/>
<path d="M20 21C21.1046 21 22 20.1046 22 19C22 17.8954 21.1046 17 20 17C18.8954 17 18 17.8954 18 19C18 20.1046 18.8954 21 20 21Z" fill="#1D1D1B"/>
<path fill-rule="evenodd" clip-rule="evenodd" d="M0.946925 0C0.423951 0 0 0.428065 0 0.956113C0 1.48416 0.423951 1.91223 0.946925 1.91223H3.10996C3.50383 1.91223 3.85658 2.15841 3.99577 2.53045L8.34134 14.1451C8.82597 15.4403 10.1578 16.2012 11.507 15.9535L19.6925 14.4508C20.432 14.315 21.0524 13.809 21.3393 13.1076L23.7818 7.13783C24.5548 5.24855 23.1783 3.17256 21.1539 3.1743L6.31201 3.18704C6.29674 3.18706 6.28146 3.18744 6.26637 3.18818L5.76742 1.85467C5.34983 0.738559 4.29158 0 3.10996 0H0.946925Z" fill="#1D1D1B"/>
</svg>
