<svg width="66" height="65" viewBox="0 0 66 65" fill="none" xmlns="http://www.w3.org/2000/svg">
<path fill-rule="evenodd" clip-rule="evenodd" d="M41.8236 23.7114C39.6863 20.7673 37.2502 18.0444 34.553 15.5848C34.1248 15.2082 33.5705 15 32.9961 15C32.4217 15 31.8674 15.2082 31.4392 15.5848C28.744 18.0453 26.3093 20.7681 24.1725 23.7114C21.8371 26.9995 20 30.8044 20 34.215C20 37.6058 21.3696 40.8577 23.8076 43.2554C26.2456 45.653 29.5522 47 33 47C36.4478 47 39.7544 45.653 42.1924 43.2554C44.6304 40.8577 46 37.6058 46 34.215C46 30.8044 44.1551 26.9995 41.8236 23.7114Z" fill="white"/>
<path d="M51.3236 57C56.5955 53.2053 60.5111 47.8734 62.5117 41.7653C64.5123 35.6572 64.4956 29.085 62.4639 22.9868C60.4322 16.8886 56.4895 11.576 51.1983 7.80714C45.9072 4.03832 39.5381 2.00592 33 2" stroke="#FFED00" stroke-width="2.61078" stroke-linecap="round" stroke-linejoin="round"/>
<path d="M65.8742 59L66 55.938L50.5028 55.3447L52.2404 40.3407L49.115 40L47 58.2728L65.8742 59Z" fill="#FFED00"/>
<path d="M18.0254 6C12.0051 9.25565 7.25965 14.3816 4.53592 20.5713C1.81218 26.761 1.26476 33.663 2.97978 40.1912C4.69481 46.7193 8.57493 52.5031 14.0095 56.6322C19.4442 60.7613 26.1247 63.0014 33 63" stroke="#FFED00" stroke-width="2.61078" stroke-linecap="round" stroke-linejoin="round"/>
<path d="M2.52269 1L2 4.03402L17.1696 6.5534L13.5069 21.2703L16.5416 22L21 4.07626L2.52269 1Z" fill="#FFED00"/>
</svg>
