<svg width="14" height="14" viewBox="0 0 14 14" fill="none" xmlns="http://www.w3.org/2000/svg">
<path d="M9.12132 6.99835L13.0003 3.11535C13.2522 2.82911 13.3856 2.45771 13.3734 2.07665C13.3612 1.69558 13.2044 1.33345 12.9348 1.06385C12.6652 0.794262 12.3031 0.637445 11.922 0.625278C11.541 0.613112 11.1696 0.746509 10.8833 0.998355L7.00032 4.87735L3.11032 0.986355C2.97099 0.847023 2.80558 0.736498 2.62353 0.661092C2.44148 0.585686 2.24637 0.546875 2.04932 0.546875C1.85228 0.546875 1.65716 0.585686 1.47511 0.661092C1.29307 0.736498 1.12765 0.847023 0.988321 0.986355C0.848988 1.12569 0.738464 1.2911 0.663058 1.47315C0.587652 1.65519 0.548841 1.85031 0.548841 2.04736C0.548841 2.2444 0.587652 2.43952 0.663058 2.62156C0.738464 2.80361 0.848988 2.96902 0.988321 3.10835L4.87932 6.99835L1.00032 10.8804C0.848194 11.0163 0.725411 11.1819 0.639485 11.367C0.553558 11.5521 0.506295 11.7527 0.500587 11.9567C0.494879 12.1607 0.530845 12.3637 0.606286 12.5533C0.681727 12.7428 0.795056 12.9151 0.93934 13.0593C1.08362 13.2036 1.25583 13.3169 1.44542 13.3924C1.63501 13.4678 1.83799 13.5038 2.04196 13.4981C2.24593 13.4924 2.44659 13.4451 2.63166 13.3592C2.81674 13.2733 2.98233 13.1505 3.11832 12.9984L7.00032 9.11936L10.8783 12.9984C11.1597 13.2797 11.5414 13.4378 11.9393 13.4378C12.3373 13.4378 12.7189 13.2797 13.0003 12.9984C13.2817 12.717 13.4398 12.3353 13.4398 11.9374C13.4398 11.5394 13.2817 11.1578 13.0003 10.8764L9.12132 6.99835Z" fill="white"/>
</svg>
