<svg width="45" height="79" viewBox="0 0 45 79" fill="none" xmlns="http://www.w3.org/2000/svg">
<path d="M22 76C25.3137 76 28 74.8807 28 73.5C28 72.1193 25.3137 71 22 71C18.6863 71 16 72.1193 16 73.5C16 74.8807 18.6863 76 22 76Z" fill="#FFED00"/>
<path d="M38.2825 12.7874C39.3814 12.6759 40.2067 11.6925 40.1259 10.5909C40.0451 9.48924 39.0887 8.68661 37.9898 8.79811C36.8909 8.90961 36.0655 9.89303 36.1464 10.9946C36.2272 12.0962 37.1836 12.8989 38.2825 12.7874Z" fill="#FFED00"/>
<path d="M31.7698 30.6214C29.3417 31.1512 26.6644 28.2986 25.7901 24.2498C24.9157 20.201 26.1753 16.4892 28.6035 15.9594C31.0316 15.4295 33.7088 18.2822 34.5832 22.331C35.4575 26.3798 34.1979 30.0915 31.7698 30.6214Z" fill="#FFED00"/>
<path d="M4.396 21.2201C3.72651 20.3415 3.71921 19.224 4.37969 18.7239C5.04017 18.2238 6.11831 18.5307 6.7878 19.4092C7.45728 20.2878 7.46458 21.4054 6.8041 21.9054C6.14362 22.4055 5.06548 22.0987 4.396 21.2201Z" stroke="white" stroke-width="2" stroke-miterlimit="10"/>
<path d="M8.08377 15.5003C7.39834 13.6929 7.88926 11.8308 9.18026 11.3413C10.4713 10.8517 12.0735 11.92 12.7589 13.7274C13.4444 15.5348 12.9534 17.3969 11.6624 17.8864C10.3714 18.376 8.7692 17.3077 8.08377 15.5003Z" stroke="white" stroke-width="2" stroke-miterlimit="10"/>
<path d="M15.5505 10.2437C15.2745 8.33047 16.1587 6.62109 17.5255 6.42564C18.8923 6.23019 20.2241 7.62269 20.5002 9.53587C20.7762 11.4491 19.892 13.1584 18.5252 13.3539C17.1584 13.5493 15.8266 12.1568 15.5505 10.2437Z" stroke="white" stroke-width="2" stroke-miterlimit="10"/>
<path d="M23.729 8.00944C23.5679 6.08317 24.7758 4.4103 26.427 4.27298C28.0781 4.13567 29.5472 5.5859 29.7083 7.51217C29.8694 9.43845 28.6615 11.1113 27.0103 11.2486C25.3592 11.3859 23.89 9.93571 23.729 8.00944Z" stroke="white" stroke-width="2" stroke-miterlimit="10"/>
<path d="M36.5335 13.2857C34.3493 12.9547 32.9171 10.4735 33.3345 7.7438C33.7519 5.01411 35.861 3.0696 38.0452 3.40063C40.2294 3.73165 41.6616 6.21285 41.2442 8.94254C40.8268 11.6722 38.7177 13.6167 36.5335 13.2857Z" stroke="white" stroke-width="2" stroke-miterlimit="10"/>
<path d="M33.5916 18.4634C36.9092 22.2326 33.6838 31.5175 30.9191 42.0895C30.0897 45.2151 29.9054 48.5246 30.4583 51.6503C32.1171 61.303 32.3014 62.8658 32.3014 62.8658C32.3014 62.8658 33.9602 73.5297 25.3898 76.4715C25.2977 76.4715 25.2055 76.5634 25.1134 76.5634C20.137 78.2181 14.6999 75.0006 13.8705 69.7605C13.2254 66.1753 12.949 60.3837 14.5156 52.6615C14.8842 50.9148 14.6999 48.1569 14.2391 46.5022C12.0274 38.5962 10.8294 33.8158 10.2765 31.0579C9.72353 28.3919 10 25.634 11.1059 23.1519C13.8705 17.1764 26.9565 10.9251 33.5916 18.4634Z" stroke="white" stroke-width="2" stroke-miterlimit="10"/>
</svg>
