<svg width="60" height="71" viewBox="0 0 60 71" fill="none" xmlns="http://www.w3.org/2000/svg">
<path d="M56.3996 48.3465H53.9171C53.6233 46.0432 52.4948 43.9251 50.7428 42.3888C48.9907 40.8525 46.7352 40.0033 44.3985 40H43.1992C42.8812 40 42.5761 40.1255 42.3512 40.349C42.1263 40.5724 42 40.8755 42 41.1915C42 41.5075 42.1263 41.8106 42.3512 42.0341C42.5761 42.2575 42.8812 42.3831 43.1992 42.3831H44.3985C46.099 42.3858 47.7438 42.9858 49.042 44.0771C50.3402 45.1684 51.2082 46.6807 51.4925 48.3465H49.1983C48.2439 48.3465 47.3285 48.723 46.6533 49.3933C45.9782 50.0636 45.5985 50.9728 45.5977 51.9211V53.1155C45.6013 53.8525 45.8339 54.5704 46.2638 55.1711C46.6936 55.7718 47.2997 56.2259 47.9991 56.4714V66.231C47.9991 67.4958 48.5048 68.7088 49.4049 69.6032C50.3051 70.4976 51.5259 71 52.7989 71C54.0719 71 55.2928 70.4976 56.193 69.6032C57.0931 68.7088 57.5988 67.4958 57.5988 66.231V56.4656C58.2985 56.2205 58.9048 55.7665 59.3347 55.1657C59.7645 54.565 59.997 53.8469 60.0002 53.1097V51.9153C59.9979 50.968 59.6175 50.0603 58.9425 49.3913C58.2675 48.7222 57.353 48.3465 56.3996 48.3465ZM55.2003 66.231C55.2115 66.5511 55.1577 66.8702 55.0422 67.1692C54.9266 67.4682 54.7516 67.741 54.5277 67.9714C54.3037 68.2018 54.0353 68.385 53.7386 68.5102C53.4418 68.6353 53.1228 68.6998 52.8004 68.6998C52.478 68.6998 52.1589 68.6353 51.8622 68.5102C51.5654 68.385 51.2971 68.2018 51.0731 67.9714C50.8492 67.741 50.6742 67.4682 50.5586 67.1692C50.4431 66.8702 50.3893 66.5511 50.4005 66.231V56.693H55.2003V66.231ZM57.5988 53.1155C57.5988 53.4315 57.4724 53.7346 57.2475 53.958C57.0226 54.1815 56.7176 54.307 56.3996 54.307H49.1983C48.8803 54.307 48.5752 54.1815 48.3503 53.958C48.1254 53.7346 47.9991 53.4315 47.9991 53.1155V51.9153C47.9999 51.5995 48.1264 51.2969 48.3512 51.0736C48.5759 50.8503 48.8805 50.7246 49.1983 50.7238H56.3996C56.7176 50.7238 57.0226 50.8493 57.2475 51.0728C57.4724 51.2962 57.5988 51.5993 57.5988 51.9153V53.1155Z" fill="white"/>
<path d="M35.4458 0.625068C30.6648 -0.524915 25.6214 -0.0793516 21.136 1.88928C16.6506 3.85792 12.987 7.23379 10.7413 11.4678C8.49557 15.7018 7.79976 20.5448 8.76706 25.2091C9.73436 29.8733 12.3079 34.0844 16.0689 37.1573C16.1904 37.2568 16.331 37.3322 16.4826 37.3792C16.6342 37.4262 16.794 37.4439 16.9527 37.4313C17.1115 37.4187 17.2661 37.376 17.4077 37.3058C17.5494 37.2355 17.6753 37.1389 17.7783 37.0217C17.8813 36.9044 17.9594 36.7687 18.0081 36.6223C18.0568 36.4759 18.0751 36.3217 18.0621 36.1684C18.049 36.0152 18.0049 35.8659 17.9321 35.7292C17.8593 35.5924 17.7593 35.4708 17.6378 35.3714C15.1404 33.3314 13.2178 30.7149 12.0487 27.7652C10.8796 24.8155 10.502 21.6283 10.951 18.4998C11.3999 15.3714 12.661 12.4034 14.6168 9.87169C16.5726 7.33997 19.1597 5.32676 22.1375 4.01921C25.1154 2.71166 28.3874 2.15223 31.6492 2.39292C34.9111 2.63362 38.057 3.66662 40.7945 5.39591C43.5319 7.12519 45.772 9.4946 47.3066 12.2839C48.8411 15.0731 49.6203 18.1917 49.5716 21.3497C49.4223 31.3531 40.2812 39.8051 29.6093 39.8051H15.6182C13.257 39.8083 10.9779 40.6422 9.20753 42.1506C7.43716 43.659 6.29684 45.7385 6 48H8.45284C8.74006 46.3649 9.61672 44.8805 10.9279 43.8091C12.2391 42.7377 13.9004 42.1482 15.6182 42.1449H29.6093C41.5779 42.1449 51.8283 32.6388 51.9981 21.3836C52.0706 16.6278 50.4745 11.9882 47.4693 8.21932C44.464 4.45042 40.2265 1.77392 35.4458 0.625068Z" fill="#FFED00"/>
<path d="M3.50003 48C2.57323 48 1.68426 48.3816 1.02812 49.061C0.371977 49.7405 0.00223686 50.6623 0 51.6243V52.8373C0.00350068 53.5858 0.229619 54.3149 0.647441 54.9249C1.06526 55.5349 1.65439 55.9961 2.33429 56.2454V66.1568C2.33429 67.4413 2.82586 68.6732 3.70087 69.5815C4.57587 70.4897 5.76263 71 7.00006 71C8.2375 71 9.42426 70.4897 10.2993 69.5815C11.1743 68.6732 11.6658 67.4413 11.6658 66.1568V56.2454C12.346 55.9965 12.9353 55.5354 13.3532 54.9253C13.7711 54.3152 13.997 53.5859 14.0001 52.8373V51.6243C13.9979 50.6623 13.6282 49.7405 12.972 49.061C12.3159 48.3816 11.4269 48 10.5001 48H3.50003ZM9.33436 66.1627C9.34524 66.4877 9.29295 66.8118 9.18061 67.1154C9.06828 67.4191 8.89818 67.6962 8.68048 67.9302C8.46278 68.1641 8.20192 68.3502 7.91346 68.4773C7.625 68.6044 7.31484 68.6699 7.00147 68.6699C6.68811 68.6699 6.37795 68.6044 6.08949 68.4773C5.80102 68.3502 5.54017 68.1641 5.32246 67.9302C5.10476 67.6962 4.93467 67.4191 4.82233 67.1154C4.70999 66.8118 4.6577 66.4877 4.66859 66.1627V56.4763H9.33436V66.1627ZM10.5001 50.4201C10.8093 50.4201 11.1058 50.5476 11.3244 50.7746C11.543 51.0015 11.6658 51.3093 11.6658 51.6302V52.8432C11.6658 53.1641 11.543 53.4719 11.3244 53.6988C11.1058 53.9258 10.8093 54.0532 10.5001 54.0532H3.50003C3.19086 54.0532 2.89435 53.9258 2.67573 53.6988C2.45711 53.4719 2.33429 53.1641 2.33429 52.8432V51.6243C2.33429 51.3034 2.45711 50.9956 2.67573 50.7687C2.89435 50.5418 3.19086 50.4143 3.50003 50.4143L10.5001 50.4201Z" fill="white"/>
<path d="M29.5001 37C32.5658 37 35.5626 36.0909 38.1116 34.3878C40.6605 32.6846 42.6472 30.2638 43.8204 27.4316C44.9936 24.5993 45.3005 21.4828 44.7024 18.4761C44.1044 15.4694 42.6281 12.7076 40.4604 10.5399C38.2927 8.37214 35.5308 6.89591 32.5241 6.29784C29.5173 5.69976 26.4008 6.00672 23.5685 7.17987C20.7362 8.35303 18.3154 10.3397 16.6122 12.8887C14.9091 15.4376 14 18.4344 14 21.5C14 25.6109 15.633 29.5533 18.5399 32.4602C21.4467 35.367 25.3892 37 29.5001 37ZM18.7974 29.0543L19.7701 28.4787C19.9076 28.4016 20.0284 28.2978 20.1255 28.1736C20.2226 28.0494 20.294 27.9072 20.3358 27.7551C20.3775 27.6031 20.3886 27.4442 20.3685 27.2879C20.3484 27.1315 20.2974 26.9807 20.2186 26.8441C20.1397 26.7076 20.0346 26.5881 19.9092 26.4925C19.7838 26.3969 19.6407 26.3271 19.4882 26.2872C19.3356 26.2473 19.1767 26.2381 19.0206 26.2601C18.8645 26.2821 18.7143 26.3349 18.5787 26.4153L17.606 26.9909C16.9762 25.6352 16.5867 24.1804 16.4548 22.6914H17.5858C17.9018 22.6914 18.2048 22.5659 18.4283 22.3425C18.6517 22.119 18.7772 21.816 18.7772 21.5C18.7772 21.184 18.6517 20.881 18.4283 20.6575C18.2048 20.4341 17.9018 20.3086 17.5858 20.3086H16.4548C16.5867 18.8196 16.9762 17.3648 17.606 16.0091L18.5787 16.5847C18.7143 16.6651 18.8645 16.7179 19.0206 16.7399C19.1767 16.7619 19.3356 16.7527 19.4882 16.7128C19.6407 16.6729 19.7838 16.6031 19.9092 16.5075C20.0346 16.412 20.1397 16.2924 20.2186 16.1559C20.2974 16.0193 20.3484 15.8685 20.3685 15.7121C20.3886 15.5558 20.3775 15.3969 20.3358 15.2449C20.294 15.0929 20.2226 14.9506 20.1255 14.8264C20.0284 14.7022 19.9076 14.5985 19.7701 14.5213L18.7974 13.9457C19.6607 12.7263 20.7242 11.6618 21.9429 10.7974L22.5185 11.7701C22.5967 11.9057 22.7009 12.0247 22.8251 12.1201C22.9493 12.2155 23.091 12.2855 23.2423 12.3261C23.3936 12.3667 23.5513 12.3772 23.7066 12.3568C23.8619 12.3365 24.0116 12.2857 24.1473 12.2075C24.283 12.1293 24.4019 12.0251 24.4974 11.9009C24.5928 11.7767 24.6628 11.6349 24.7034 11.4837C24.744 11.3324 24.7544 11.1746 24.7341 11.0193C24.7137 10.8641 24.663 10.7143 24.5848 10.5786L24.0293 9.60593C25.3831 8.97922 26.8345 8.58984 28.3202 8.4548V9.58578C28.3353 9.89202 28.4675 10.1807 28.6896 10.3921C28.9116 10.6036 29.2065 10.7215 29.5131 10.7215C29.8197 10.7215 30.1146 10.6036 30.3366 10.3921C30.5587 10.1807 30.6909 9.89202 30.706 9.58578V8.44616C32.1917 8.58082 33.6432 8.97021 34.9968 9.5973L34.4357 10.57C34.2777 10.844 34.235 11.1696 34.317 11.475C34.3991 11.7805 34.5991 12.0409 34.8731 12.1989C35.1471 12.3568 35.4727 12.3995 35.7781 12.3175C36.0836 12.2355 36.344 12.0354 36.502 11.7614L37.0775 10.7887C38.2866 11.6582 39.3403 12.7255 40.1943 13.9457L39.2215 14.5213C38.9479 14.6796 38.7484 14.9402 38.6669 15.2457C38.5854 15.5512 38.6286 15.8765 38.787 16.1501C38.9454 16.4237 39.2059 16.6232 39.5114 16.7047C39.8169 16.7862 40.1422 16.743 40.4159 16.5847L41.3886 16.0091C42.0218 17.3644 42.4161 18.819 42.5541 20.3086H41.4231C41.1071 20.3086 40.8041 20.4341 40.5806 20.6575C40.3572 20.881 40.2317 21.184 40.2317 21.5C40.2317 21.816 40.3572 22.119 40.5806 22.3425C40.8041 22.5659 41.1071 22.6914 41.4231 22.6914H42.5541C42.4195 24.1799 42.0301 25.6342 41.403 26.9909L40.4302 26.4153C40.1566 26.257 39.8313 26.2138 39.5258 26.2953C39.2203 26.3768 38.9598 26.5763 38.8014 26.8499C38.643 27.1235 38.5998 27.4488 38.6813 27.7543C38.7628 28.0598 38.9623 28.3204 39.2359 28.4787L40.2086 29.0543C39.3453 30.2737 38.2818 31.3382 37.0631 32.2027L36.502 31.2299C36.344 30.9559 36.0836 30.7559 35.7781 30.6739C35.4727 30.5919 35.1471 30.6345 34.8731 30.7925C34.5991 30.9505 34.3991 31.2109 34.317 31.5164C34.235 31.8218 34.2777 32.1474 34.4357 32.4214L35.0112 33.3941C33.6576 34.0212 32.2061 34.4106 30.7204 34.5452V33.4142C30.7053 33.108 30.5731 32.8193 30.351 32.6079C30.1289 32.3964 29.8341 32.2785 29.5275 32.2785C29.2209 32.2785 28.926 32.3964 28.704 32.6079C28.4819 32.8193 28.3497 33.108 28.3346 33.4142V34.5452C26.8468 34.4116 25.3933 34.0221 24.038 33.3941L24.5991 32.4214C24.7526 32.148 24.7922 31.8252 24.7093 31.5228C24.6263 31.2205 24.4275 30.963 24.156 30.8063C23.8845 30.6495 23.5622 30.6061 23.2589 30.6854C22.9556 30.7647 22.6957 30.9604 22.5357 31.2299L21.9602 32.2027C20.7345 31.3398 19.6641 30.2752 18.7945 29.0543H18.7974Z" fill="white"/>
<path d="M34.0086 26.6569C34.1169 26.7657 34.2455 26.852 34.387 26.9108C34.5286 26.9697 34.6803 27 34.8335 27C34.9867 27 35.1384 26.9697 35.2799 26.9108C35.4214 26.852 35.55 26.7657 35.6584 26.6569C35.7667 26.5481 35.8526 26.419 35.9113 26.2768C35.9699 26.1347 36.0001 25.9824 36.0001 25.8285C36.0001 25.6747 35.9699 25.5224 35.9113 25.3802C35.8526 25.2381 35.7667 25.109 35.6584 25.0002L31.3339 20.6662V14.1157C31.3192 13.8148 31.1899 13.5312 30.9726 13.3235C30.7554 13.1158 30.4669 13 30.167 13C29.867 13 29.5786 13.1158 29.3613 13.3235C29.1441 13.5312 29.0147 13.8148 29 14.1157V21.144C29.0002 21.2979 29.0306 21.4504 29.0895 21.5925C29.1485 21.7346 29.2348 21.8637 29.3435 21.9723L34.0086 26.6569Z" fill="white"/>
</svg>
