<svg width="45" height="79" viewBox="0 0 45 79" fill="none" xmlns="http://www.w3.org/2000/svg">
<path d="M33 33.0016C33 33.0016 25.3903 32.6014 24.1576 44.4505C22.7199 58.2469 31.5898 61 31.5898 61L30.6895 54.6757L30.1355 50.2521L30.2796 45.4304L31.0386 41.0441L32.8087 35.9299L33 33.0016Z" fill="#FFED00"/>
<path d="M10 29C10 29 15.147 29.5581 17.4389 35.3778C19.7307 41.1975 14.2615 46 14.2615 46L12.4709 39.5265L10 29Z" fill="#FFED00"/>
<path d="M31.9742 17.6804C31.5811 15.7441 26.7959 15.4359 21.2855 16.9921C15.7751 18.5483 11.6239 21.3794 12.0271 23.3186C12.4303 25.2579 17.2053 25.5632 22.7183 24.007C28.2312 22.4508 32.3672 19.6167 31.9742 17.6804Z" fill="#FFED00"/>
<path d="M4.396 21.2201C3.72651 20.3415 3.71921 19.224 4.37969 18.7239C5.04017 18.2238 6.11831 18.5307 6.7878 19.4092C7.45728 20.2878 7.46458 21.4054 6.8041 21.9054C6.14362 22.4055 5.06548 22.0987 4.396 21.2201Z" stroke="white" stroke-width="2" stroke-miterlimit="10"/>
<path d="M8.08377 15.5003C7.39834 13.6929 7.88926 11.8308 9.18026 11.3413C10.4713 10.8517 12.0735 11.92 12.7589 13.7274C13.4444 15.5348 12.9534 17.3969 11.6624 17.8864C10.3714 18.376 8.7692 17.3077 8.08377 15.5003Z" stroke="white" stroke-width="2" stroke-miterlimit="10"/>
<path d="M15.5505 10.2437C15.2745 8.33047 16.1587 6.62109 17.5255 6.42564C18.8923 6.23019 20.2241 7.62269 20.5002 9.53587C20.7762 11.4491 19.892 13.1584 18.5252 13.3539C17.1584 13.5493 15.8266 12.1568 15.5505 10.2437Z" stroke="white" stroke-width="2" stroke-miterlimit="10"/>
<path d="M23.729 8.00944C23.5679 6.08317 24.7758 4.4103 26.427 4.27298C28.0781 4.13567 29.5472 5.5859 29.7083 7.51217C29.8694 9.43845 28.6615 11.1113 27.0103 11.2486C25.3592 11.3859 23.89 9.93571 23.729 8.00944Z" stroke="white" stroke-width="2" stroke-miterlimit="10"/>
<path d="M36.5335 13.2857C34.3493 12.9547 32.9171 10.4735 33.3345 7.7438C33.7519 5.01411 35.861 3.0696 38.0452 3.40063C40.2294 3.73165 41.6616 6.21285 41.2442 8.94254C40.8268 11.6722 38.7177 13.6167 36.5335 13.2857Z" stroke="white" stroke-width="2" stroke-miterlimit="10"/>
<path d="M33.5916 18.4634C36.9092 22.2326 33.6838 31.5175 30.9191 42.0895C30.0897 45.2151 29.9054 48.5246 30.4583 51.6503C32.1171 61.303 32.3014 62.8658 32.3014 62.8658C32.3014 62.8658 33.9602 73.5297 25.3898 76.4715C25.2977 76.4715 25.2055 76.5634 25.1134 76.5634C20.137 78.2181 14.6999 75.0006 13.8705 69.7605C13.2254 66.1753 12.949 60.3837 14.5156 52.6615C14.8842 50.9148 14.6999 48.1569 14.2391 46.5022C12.0274 38.5962 10.8294 33.8158 10.2765 31.0579C9.72353 28.3919 10 25.634 11.1059 23.1519C13.8705 17.1764 26.9565 10.9251 33.5916 18.4634Z" stroke="white" stroke-width="2" stroke-miterlimit="10"/>
<path d="M22.5 73C25.5376 73 28 70.5376 28 67.5C28 64.4624 25.5376 62 22.5 62C19.4624 62 17 64.4624 17 67.5C17 70.5376 19.4624 73 22.5 73Z" fill="#FFED00"/>
</svg>
