<svg width="22" height="22" viewBox="0 0 22 22" fill="none" xmlns="http://www.w3.org/2000/svg">
<path d="M13 9H9V4.5H6L10.1464 0.353553C10.3728 0.127177 10.6799 0 11 0C11.3201 0 11.6272 0.127177 11.8536 0.353553L16 4.5H13V9Z" fill="white"/>
<path d="M9 13H13V17.5H16L11.8536 21.6464C11.6272 21.8728 11.3201 22 11 22C10.6799 22 10.3728 21.8728 10.1464 21.6464L6 17.5H9V13Z" fill="white"/>
<path d="M4 6V16L0.707107 12.7071C0.254354 12.2544 0 11.6403 0 11C0 10.3597 0.254353 9.74565 0.707106 9.29289L4 6Z" fill="white"/>
<path d="M18 16V6L21.2929 9.29289C21.7456 9.74565 22 10.3597 22 11C22 11.6403 21.7456 12.2544 21.2929 12.7071L18 16Z" fill="white"/>
</svg>
