<svg width="118" height="34" viewBox="0 0 118 34" fill="none" xmlns="http://www.w3.org/2000/svg">
<rect width="72" height="34" rx="7" fill="white"/>
<path d="M83.362 26.25H80.5V10H87.667C89.3143 10 90.6104 10.4873 91.5564 11.4617C92.5184 12.4364 93 13.6462 93 15.0917C93 16.5212 92.5184 17.731 91.5564 18.7219C90.6104 19.6963 89.3143 20.1836 87.667 20.1836H83.362V26.25ZM87.276 17.6742C88.091 17.6742 88.76 17.4388 89.2814 16.9677C89.8034 16.4966 90.0644 15.8715 90.0644 15.0917C90.0644 14.3122 89.8034 13.687 89.2814 13.2159C88.76 12.7449 88.091 12.5095 87.276 12.5095H83.362V17.6742H87.276Z" fill="white"/>
<path d="M104.25 25.9543H101.803V24.6723C100.933 25.7242 99.7204 26.25 98.1662 26.25C97.1408 26.25 96.2317 25.905 95.4389 25.2145C94.6464 24.5077 94.25 23.5381 94.25 22.3054C94.25 21.0398 94.6388 20.0783 95.4154 19.4208C96.2082 18.7633 97.125 18.4344 98.1662 18.4344C99.7671 18.4344 100.979 18.944 101.803 19.963V18.1878C101.803 17.4977 101.562 16.9551 101.08 16.5607C100.598 16.1663 99.9609 15.969 99.1687 15.969C97.9098 15.969 96.7987 16.4703 95.8353 17.4729L94.8329 15.6731C96.1072 14.391 97.6843 13.75 99.565 13.75C100.948 13.75 102.074 14.0954 102.945 14.7855C103.815 15.4759 104.25 16.5691 104.25 18.0648V25.9543ZM99.122 24.4751C100.35 24.4751 101.243 24.0639 101.803 23.2421V21.4423C101.243 20.6205 100.35 20.2096 99.122 20.2096C98.4228 20.2096 97.8479 20.4069 97.3972 20.8013C96.9464 21.1957 96.7209 21.7134 96.7209 22.3545C96.7209 22.9955 96.9464 23.5135 97.3972 23.908C97.8479 24.2859 98.4228 24.4751 99.122 24.4751Z" fill="white"/>
<path d="M106.708 29.8324L107.103 27.5828C107.399 27.7106 107.727 27.7742 108.089 27.7742C108.927 27.7742 109.494 27.4393 109.79 26.7691L110.382 25.4529L105.5 13.75H108.261L111.738 22.4134L115.214 13.75H118L112.256 27.3914C111.548 29.0986 110.184 29.968 108.163 30C107.62 30 107.135 29.9442 106.708 29.8324Z" fill="white"/>
<path fill-rule="evenodd" clip-rule="evenodd" d="M24.6757 23.1301V15.2828C24.6757 13.0568 23.4599 12 21.4185 12C19.7211 12 18.2531 12.9893 17.6109 13.9787C17.198 12.742 16.1658 12 14.5372 12C12.8398 12 11.3718 13.0343 10.9131 13.6864V12.2698H8V23.1301H10.9131V15.8225C11.3489 15.2154 12.1976 14.5408 13.2068 14.5408C14.3996 14.5408 14.8583 15.2603 14.8583 16.2722V23.1301H17.7944V15.8C18.2072 15.2154 19.0559 14.5408 20.0881 14.5408C21.2809 14.5408 21.7396 15.2603 21.7396 16.2722V23.1301H24.6757ZM32.6809 23.4C29.0338 23.4 26.8318 20.7917 26.8318 17.6888C26.8318 14.6083 29.0338 12 32.6809 12C36.3509 12 38.5529 14.6083 38.5529 17.6888C38.5529 20.7917 36.3509 23.4 32.6809 23.4ZM32.6809 20.8591C34.4929 20.8591 35.5252 19.3976 35.5252 17.6888C35.5252 16.0024 34.4929 14.5408 32.6809 14.5408C30.8688 14.5408 29.8595 16.0024 29.8595 17.6888C29.8595 19.3976 30.8688 20.8591 32.6809 20.8591ZM51.0998 23.1301V15.4627C51.0998 13.3491 49.93 12 47.4986 12C45.6865 12 44.3331 12.8544 43.6221 13.6864V12.2698H40.709V23.1301H43.6221V15.8225C44.1038 15.1704 44.9983 14.5408 46.1452 14.5408C47.3838 14.5408 48.1867 15.058 48.1867 16.5645V23.1301H51.0998ZM59.128 23.4C55.4809 23.4 53.2788 20.7917 53.2788 17.6888C53.2788 14.6083 55.4809 12 59.128 12C62.7979 12 65 14.6083 65 17.6888C65 20.7917 62.7979 23.4 59.128 23.4ZM59.128 20.8591C60.94 20.8591 61.9722 19.3976 61.9722 17.6888C61.9722 16.0024 60.94 14.5408 59.128 14.5408C57.3159 14.5408 56.3066 16.0024 56.3066 17.6888C56.3066 19.3976 57.3159 20.8591 59.128 20.8591Z" fill="#1D1D1B"/>
</svg>
