<svg width="75" height="69" viewBox="0 0 75 69" fill="none" xmlns="http://www.w3.org/2000/svg">
<path d="M54 22H64.8993C67.0481 22.001 69.1085 22.8745 70.6276 24.4286C72.1466 25.9827 73 28.09 73 30.2873V48.7127C73 49.801 72.7904 50.8786 72.3831 51.8841C71.9758 52.8896 71.3789 53.8031 70.6263 54.5727C69.8738 55.3422 68.9804 55.9527 67.9971 56.3692C67.0138 56.7856 65.96 57 64.8957 57H54" stroke="#FFED00" stroke-width="3.5" stroke-linecap="round" stroke-linejoin="round"/>
<path d="M54 38H72" stroke="#FFED00" stroke-width="3.5" stroke-linecap="round" stroke-linejoin="round"/>
<path d="M54 31H73" stroke="#FFED00" stroke-width="3.5" stroke-linecap="round" stroke-linejoin="round"/>
<path d="M8.67229 2H34.1838C37.8481 2 41.3623 3.47097 43.9533 6.08931C46.5444 8.70764 48 12.2589 48 15.9618V60.2574C48 62.0457 47.297 63.7607 46.0457 65.0251C44.7944 66.2896 43.0973 67 41.3277 67H8.67229C6.90269 67 5.20557 66.2896 3.95427 65.0251C2.70297 63.7607 2 62.0457 2 60.2574V8.74259C2 6.95434 2.70297 5.23934 3.95427 3.97486C5.20557 2.71038 6.90269 2 8.67229 2Z" fill="#1D1D1B" stroke="#FFED00" stroke-width="3.5" stroke-linecap="round" stroke-linejoin="round"/>
<path d="M47.8216 15H48H35V2.203L35.0473 2" stroke="#FFED00" stroke-width="3.5" stroke-linecap="round" stroke-linejoin="round"/>
<path d="M7.7571 40.7903V31.2113C7.7571 30.8053 7.87506 30.4871 8.11097 30.2567C8.35236 30.0208 8.65685 29.9028 9.02443 29.9028C9.3975 29.9028 9.69924 30.018 9.92966 30.2484C10.1656 30.4734 10.2835 30.7943 10.2835 31.2113V40.7903C10.2835 41.2072 10.1656 41.5309 9.92966 41.7613C9.69924 41.9863 9.3975 42.0988 9.02443 42.0988C8.65685 42.0988 8.35236 41.9835 8.11097 41.7531C7.87506 41.5172 7.7571 41.1963 7.7571 40.7903ZM11.806 40.7162V31.2606C11.806 30.8656 11.9294 30.5584 12.1763 30.339C12.4287 30.114 12.7496 30.0016 13.1391 30.0016H16.3733C16.9548 30.0016 17.487 30.125 17.9698 30.3719C18.4526 30.6188 18.8339 30.9699 19.1137 31.4252C19.3989 31.8751 19.5416 32.3881 19.5416 32.9641C19.5416 34.1327 19.0204 34.9584 17.978 35.4412V35.4741C18.3291 35.5235 18.661 35.6332 18.9738 35.8033C19.2865 35.9679 19.5608 36.1791 19.7967 36.4369C20.0381 36.6948 20.2219 36.9828 20.3481 37.301C20.4743 37.6192 20.5373 37.9676 20.5373 38.3462C20.5373 39.5092 20.1807 40.409 19.4675 41.0454C18.7598 41.6818 17.8134 42 16.6284 42H13.1556C12.7606 42 12.4369 41.882 12.1845 41.6461C11.9321 41.4102 11.806 41.1003 11.806 40.7162ZM14.3324 32.2235V34.7499H15.6491C16.066 34.7499 16.398 34.6347 16.6448 34.4043C16.8917 34.1684 17.0152 33.8419 17.0152 33.425C17.0152 33.0409 16.8862 32.7447 16.6284 32.5362C16.376 32.3277 16.0496 32.2235 15.6491 32.2235H14.3324ZM14.3324 36.9801V39.7781H16.3239C16.7957 39.7781 17.177 39.6491 17.4678 39.3913C17.764 39.1279 17.9122 38.7659 17.9122 38.305C17.9122 37.899 17.7586 37.5781 17.4513 37.3422C17.1496 37.1008 16.7052 36.9801 16.1182 36.9801H14.3324ZM20.8747 40.3624L24.2653 31.1948C24.4244 30.7724 24.6603 30.435 24.973 30.1826C25.2912 29.9247 25.656 29.7958 26.0675 29.7958C26.5009 29.7958 26.8712 29.922 27.1785 30.1744C27.4912 30.4267 27.7216 30.7669 27.8697 31.1948L31.1779 40.3624C31.2657 40.6037 31.3096 40.8122 31.3096 40.9878C31.3096 41.2017 31.2548 41.3938 31.145 41.5638C31.0408 41.7339 30.9009 41.8656 30.7253 41.9589C30.5498 42.0521 30.3577 42.0988 30.1493 42.0988C29.5238 42.0988 29.1124 41.808 28.9149 41.2264L28.4129 39.6382H23.7303L23.2201 41.21C23.0336 41.8025 22.6304 42.0988 22.0104 42.0988C21.6648 42.0988 21.3685 41.9863 21.1216 41.7613C20.8802 41.5309 20.7595 41.2511 20.7595 40.922C20.7595 40.7628 20.7979 40.5763 20.8747 40.3624ZM26.051 32.4292L24.4545 37.3175H27.6558L26.084 32.4292H26.051ZM32.0009 40.7903V31.2113C32.0009 30.7998 32.1188 30.4789 32.3547 30.2484C32.5907 30.018 32.8924 29.9028 33.26 29.9028C33.4355 29.9028 33.6303 29.9577 33.8443 30.0674C34.0582 30.1771 34.2173 30.306 34.3216 30.4542L39.6707 37.5808H39.7036V31.2113C39.7036 30.7998 39.8215 30.4789 40.0575 30.2484C40.2934 30.018 40.5951 29.9028 40.9627 29.9028C41.3412 29.9028 41.6457 30.018 41.8761 30.2484C42.1121 30.4734 42.23 30.7943 42.23 31.2113V40.7903C42.23 41.2072 42.1121 41.5309 41.8761 41.7613C41.6457 41.9863 41.3412 42.0988 40.9627 42.0988C40.8091 42.0988 40.6253 42.0466 40.4113 41.9424C40.2028 41.8327 40.0328 41.701 39.9011 41.5474L34.5602 34.503H34.5273V40.7903C34.5273 41.2072 34.4094 41.5309 34.1734 41.7613C33.943 41.9863 33.6385 42.0988 33.26 42.0988C32.8924 42.0988 32.5907 41.9835 32.3547 41.7531C32.1188 41.5227 32.0009 41.2017 32.0009 40.7903Z" fill="#FFED00"/>
</svg>
