<svg width="90" height="238" viewBox="0 0 90 238" fill="none" xmlns="http://www.w3.org/2000/svg">
<path d="M40 15.5293C40.0007 15.6325 39.9762 15.7343 39.9284 15.8263C39.8806 15.9183 39.8109 15.9977 39.7253 16.0578C39.6397 16.1179 39.5406 16.157 39.4364 16.1718C39.3322 16.1866 39.2259 16.1766 39.1264 16.1428C39.0627 16.1185 32.76 14.0006 29.0533 16.6315C27.207 17.9453 26.2945 20.2781 26.3299 23.5642C26.3542 25.1746 26.7205 26.7623 27.4056 28.2263C28.0907 29.6903 29.0795 30.9983 30.3089 32.067C31.0587 32.7187 31.7449 33.3426 32.3214 33.873C32.9316 34.4405 33.4107 35.1295 33.7267 35.8936C34.0427 36.6577 34.1883 37.4792 34.1535 38.3029L34.0368 41.076L37.2589 38.8887C37.3301 38.8408 37.4102 38.8072 37.4947 38.7899C37.5792 38.7725 37.6664 38.7717 37.7512 38.7875C37.8361 38.8032 37.9169 38.8353 37.989 38.8819C38.0611 38.9284 38.1231 38.9885 38.1714 39.0586C38.2708 39.2002 38.3087 39.3746 38.2769 39.5436C38.2451 39.7127 38.1461 39.8623 38.0016 39.9598L33.6937 42.8854C33.5935 42.9536 33.4758 42.993 33.3539 42.9992C33.232 43.0053 33.1108 42.9779 33.004 42.9201C32.8912 42.8665 32.7972 42.7811 32.7342 42.6749C32.6712 42.5687 32.642 42.4464 32.6503 42.3238L32.8236 38.2371C32.8525 37.6001 32.7411 36.9646 32.497 36.3736C32.2528 35.7827 31.8817 35.2502 31.4089 34.8123C30.843 34.2889 30.1639 33.6754 29.4211 33.0307C28.054 31.8407 26.9549 30.3847 26.1937 28.7554C25.4325 27.1262 25.026 25.3594 25 23.5676V23.3423C25 19.7235 26.1 17.103 28.2752 15.5639C32.5194 12.5448 39.2608 14.8083 39.5437 14.9088C39.6736 14.953 39.7861 15.0359 39.8654 15.1459C39.9446 15.256 39.9868 15.3876 39.9858 15.5223" fill="#FFED00"/>
<path d="M34.9893 42.7375C34.99 42.8449 34.9634 42.9508 34.9119 43.0458C34.8605 43.1408 34.7858 43.2219 34.6945 43.2819L29.2878 46.8014C28.2407 47.486 27.0291 47.8928 25.7721 47.9815C24.5151 48.0703 23.2561 47.838 22.119 47.3076C20.2967 46.4088 18.6563 45.1953 17.2771 43.7257C15.808 42.2007 14.9931 40.1843 15 38.091V38.0737C15 35.0119 15.9841 32.5812 17.8988 30.8474C21.4867 27.6019 27.0391 28.0076 27.2736 28.0249C27.441 28.0489 27.5929 28.134 27.6985 28.2631C27.8041 28.3922 27.8555 28.5556 27.8424 28.7203C27.8293 28.885 27.7527 29.0387 27.628 29.1503C27.5032 29.262 27.3398 29.3232 27.1705 29.3217C27.1172 29.3217 21.945 28.9507 18.7904 31.8114C17.1599 33.2885 16.3286 35.3968 16.3251 38.0772C16.328 39.8357 17.0105 41.5284 18.2363 42.8172C19.5092 44.1732 21.0233 45.2928 22.7052 46.1217C23.6352 46.5554 24.665 46.7449 25.6929 46.6713C26.7209 46.5977 27.7114 46.2637 28.5666 45.7022L33.9734 42.1965C34.0459 42.1497 34.1271 42.1174 34.2125 42.1013C34.2978 42.0852 34.3855 42.0857 34.4707 42.1028C34.5558 42.1199 34.6367 42.1532 34.7086 42.2008C34.7805 42.2484 34.8421 42.3094 34.8899 42.3803C34.9595 42.4834 34.9977 42.6036 35 42.7271" fill="#FFED00"/>
<path d="M89.9989 26.8744C89.9989 27.9041 89.8611 30.4467 89.1546 36.7262C88.8675 39.6442 88.8179 42.5804 89.0062 45.5063C90.0449 58.1144 90.2533 69.3812 89.6315 78.9633C89.0348 88.1211 86.8849 97.1136 83.2724 105.563C80.1599 112.872 73.5394 134.698 79.2909 179.422C79.9268 184.217 80.256 189.046 80.2765 193.882C80.2765 227.795 61.7043 235.727 52.9323 237.58C49.6891 238.305 46.304 238.088 43.1816 236.957C40.4507 235.934 39.0799 235.419 33.4274 231.251C25.4219 225.35 21.3132 213.082 20.7904 203.538C20.37 195.914 17.1197 176.448 15.5512 167.083C15.0848 164.299 14.7775 162.46 14.6962 161.851C14.3429 159.21 8.02972 131.907 3.79736 120.812C2.08747 116.325 0.872164 109.254 0.186791 99.7631C-0.487418 90.3058 0.667332 80.8079 3.58893 71.7802C4.93693 67.5748 5.95159 63.2715 6.62365 58.9094C7.1889 55.2041 7.6835 51.8804 8.06504 49.0331C8.44306 46.2313 9.50645 44.2 11.2164 42.9532C12.6906 41.9212 14.5049 41.4819 16.2931 41.7239C16.4604 41.7603 16.607 41.8594 16.7024 42.0005C16.7978 42.1415 16.8345 42.3137 16.8048 42.481C16.7752 42.6482 16.6815 42.7977 16.5433 42.8981C16.4052 42.9985 16.2332 43.0421 16.0634 43.0197C14.6223 42.8402 13.1653 43.1985 11.9759 44.0249C10.5628 45.0511 9.69722 46.7952 9.36867 49.2082C8.97652 52.066 8.49252 55.3967 7.92373 59.1091C7.24187 63.5388 6.21185 67.9089 4.84309 72.1794C1.9739 81.048 0.838388 90.378 1.49748 99.6686C2.17578 109.02 3.36282 115.975 5.03033 120.332C9.40753 131.805 15.6289 158.934 16.0034 161.658C16.0811 162.243 16.4061 164.173 16.8512 166.845C18.4198 176.224 21.6842 195.735 22.1046 203.437C22.6098 212.672 26.5454 224.517 34.2081 230.162C39.7123 234.221 41.0265 234.715 43.6444 235.696C46.5326 236.738 49.6622 236.935 52.6602 236.263C62.1989 234.249 83.7846 224.706 77.9837 179.558C72.1934 134.547 78.9058 112.448 82.0606 105.048C85.6138 96.7351 87.7301 87.8886 88.3208 78.8792C88.9391 69.3601 88.7271 58.167 87.6955 45.6079C87.5048 42.5967 87.5556 39.5753 87.8474 36.5721C88.8296 27.8165 88.6847 26.5452 88.6776 26.4961C88.6423 26.251 85.4062 4.33394 71.5115 1.50413C70.4649 1.25423 69.3758 1.23512 68.321 1.44813C67.2661 1.66114 66.2713 2.10109 65.4067 2.73692C60.1463 6.52635 58.1644 17.0366 57.4472 22.9624C57.0324 26.438 57.8411 29.949 59.7365 32.9018L61.7079 35.9662C61.748 36.0289 61.7778 36.0974 61.7962 36.1694L62.856 40.7223C62.8795 40.8184 62.8807 40.9185 62.8596 41.0152C62.8384 41.1118 62.7955 41.2025 62.734 41.2803C62.6724 41.3582 62.5939 41.4212 62.5043 41.4646C62.4147 41.5081 62.3163 41.5309 62.2166 41.5313H59.0547C57.928 41.5207 56.8497 41.0764 56.0474 40.2921C55.2451 39.5079 54.7817 38.4452 54.7552 37.3286L54.2959 16.7074C54.2924 16.6666 54.2924 16.6256 54.2959 16.5848C54.2959 16.5498 54.8859 12.7919 52.6779 10.0636C51.2365 8.28097 48.9119 7.29684 45.7676 7.14275C44.0012 7.05519 42.6446 7.49297 41.7225 8.47009C40.486 9.76943 39.9561 12.0984 40.267 15.0368C40.7298 19.6493 42.9343 23.9991 44.1284 24.3983C47.7849 25.6136 44.6689 36.0363 44.0083 38.1131C43.9821 38.1947 43.9399 38.2705 43.8841 38.3359C43.8284 38.4014 43.7602 38.4554 43.6835 38.4947C43.6067 38.5341 43.5229 38.558 43.4368 38.5653C43.3506 38.5725 43.2639 38.5629 43.1816 38.5369C43.0992 38.5109 43.0229 38.4691 42.9568 38.4138C42.8908 38.3586 42.8363 38.291 42.7966 38.2149C42.7569 38.1388 42.7328 38.0557 42.7255 37.9703C42.7182 37.8849 42.7279 37.799 42.7541 37.7173C44.192 33.1959 45.4921 26.237 43.7115 25.6451C41.5529 24.9271 39.3838 19.4216 38.9563 15.1699C38.7196 12.8164 38.8432 9.58731 40.7686 7.56651C41.9663 6.30571 43.6726 5.72083 45.8348 5.81539C49.3676 5.9905 52.0243 7.14274 53.7095 9.23358C56.1401 12.249 55.6843 16.1505 55.6031 16.7214L56.0624 37.2831C56.0798 38.058 56.4007 38.7959 56.9572 39.3404C57.5137 39.8849 58.2622 40.1933 59.0441 40.2004H61.3758L60.5385 36.5896L58.6307 33.6197C56.574 30.4075 55.7004 26.5893 56.1577 22.8118C57.0622 15.3135 59.2702 5.55623 64.6366 1.67924C65.6495 0.940085 66.812 0.427389 68.0439 0.176474C69.2759 -0.0744403 70.5481 -0.0576058 71.7729 0.22581C86.5791 3.23774 89.8435 25.3579 89.9742 26.2965C89.9949 26.4884 90.0032 26.6814 89.9989 26.8744Z" fill="#FFED00"/>
<path d="M43 32.6056C43.0001 32.6973 42.9771 32.7879 42.9327 32.8706C42.8883 32.9533 42.8237 33.0261 42.7436 33.0835C40.1046 34.821 36.9566 35.8344 33.6839 36C33.5078 35.9989 33.3388 35.9375 33.2118 35.8286C33.0847 35.7196 33.0092 35.5713 33.0008 35.4141C32.9923 35.257 33.0516 35.1029 33.1664 34.9835C33.2812 34.8642 33.4428 34.7887 33.6179 34.7725C36.5973 34.609 39.4628 33.6905 41.879 32.1244C41.9801 32.0559 42.1006 32.0138 42.2269 32.0029C42.3532 31.9919 42.4805 32.0125 42.5944 32.0624C42.7084 32.1123 42.8046 32.1895 42.8724 32.2855C42.9401 32.3814 42.9767 32.4922 42.978 32.6056" fill="#FFED00"/>
<path d="M77.9896 45.3599C77.9929 45.3997 77.9929 45.4398 77.9896 45.4796C77.9576 45.6459 77.86 45.7929 77.7182 45.8885C77.5763 45.984 77.4019 46.0202 77.233 45.9892C74.9251 45.548 62.9447 41.4235 62.438 41.2456C62.3574 41.2182 62.283 41.1754 62.2191 41.1197C62.1552 41.064 62.1031 40.9964 62.0657 40.9208C62.0283 40.8452 62.0064 40.7631 62.0012 40.6792C61.996 40.5953 62.0077 40.5112 62.0355 40.4317C62.0633 40.3522 62.1067 40.2789 62.1632 40.2159C62.2198 40.1529 62.2884 40.1016 62.3651 40.0647C62.4418 40.0279 62.5251 40.0063 62.6103 40.0012C62.6954 39.9961 62.7808 40.0076 62.8614 40.0349C62.9829 40.0794 75.2582 44.3065 77.4759 44.7306C77.6242 44.7586 77.7577 44.8369 77.8535 44.9518C77.9492 45.0668 78.0011 45.2112 78 45.3599" fill="#FFED00"/>
<path d="M87 76.4063C86.999 79.5818 86.4054 82.73 85.2491 85.693C80.5599 97.8056 75.2399 96.7131 72.3796 96.1283C72.0305 96.0436 71.6748 95.9886 71.3163 95.9637C70.3487 95.9637 67.5309 94.8221 62.6397 92.8121C57.2169 90.5815 49.795 87.5244 47.5302 87.6155H47.0198C45.6606 87.5956 44.3066 87.787 43.0076 88.1827C38.0182 89.8643 33.2493 92.1272 28.8019 94.9237C20.9334 99.8051 14.465 100.32 10.5875 96.3734C8.91539 94.6108 7.98958 92.2828 8.00009 89.8671V89.65C8.00009 67.7148 22.1562 57.4056 34.051 52.6187C44.3961 48.4544 55.8619 47.8658 66.5881 50.9483C77.93 54.2435 81.6268 59.8463 81.9529 60.3751C85.1843 65.1169 86.9389 70.6901 87 76.4063ZM9.33277 89.657V89.8706C9.31671 91.9491 10.1083 93.9545 11.5444 95.4734C16.1344 100.145 23.9 96.4504 28.1213 93.8311C32.6559 90.9785 37.5189 88.6709 42.6071 86.9571C44.0295 86.52 45.5125 86.3062 47.0021 86.3233H47.4912C50.0467 86.2217 57.0113 89.0897 63.1572 91.6215C66.6342 93.0537 70.5791 94.6785 71.3305 94.6785C71.7765 94.6991 72.2194 94.7636 72.6525 94.8711C75.3037 95.4139 79.7412 96.3244 84.0263 85.2517C89.0912 72.1621 80.9604 61.2821 80.8789 61.1735C80.8623 61.1542 80.8481 61.133 80.8364 61.1105C80.8009 61.0544 77.3417 55.4726 66.2195 52.244C55.7825 49.2473 44.627 49.8211 34.5614 53.8723C23.0387 58.4771 9.33277 68.4572 9.33277 89.657Z" fill="#FFED00"/>
<path d="M79.9931 105.203C79.9935 105.702 79.9448 106.2 79.8476 106.689C79.8435 106.714 79.8377 106.739 79.8303 106.763L77.7525 113.104C74.0483 124.42 72.673 136.384 73.7111 148.259C74.2513 154.512 74.8331 160.299 75.0582 162.497C75.1815 163.579 75.1815 164.671 75.0582 165.753C74.7638 168.066 74.1855 169.405 73.2955 169.847C73.0315 169.97 72.7402 170.02 72.4509 169.993C72.1616 169.966 71.8844 169.862 71.6471 169.693C69.029 168.08 61.6735 155.497 58.1827 148.123C54.6019 140.566 56.4858 132.052 56.5689 131.694C56.652 131.337 59.1281 123.377 66.9235 110.815C68.6046 108.054 70.8233 105.669 73.4444 103.805C75.9413 102.052 77.7178 101.582 78.8745 102.368C79.7888 102.991 80 104.215 80 105.207M78.6148 106.391C78.7671 105.606 78.8503 103.92 78.175 103.461C77.8737 103.258 76.8867 102.991 74.1924 104.884C71.7132 106.65 69.6147 108.907 68.0247 111.519C60.3159 123.91 57.8295 131.971 57.8052 132.038C57.781 132.105 55.9594 140.422 59.3359 147.551C63.0552 155.413 70.151 167.239 72.3085 168.564C72.5821 168.736 72.6895 168.68 72.7276 168.662C73.0496 168.505 73.5171 167.611 73.7665 165.585C73.8852 164.605 73.891 163.615 73.7838 162.634C73.5587 160.432 72.9769 154.639 72.4332 148.375C71.38 136.322 72.7778 124.179 76.5404 112.693L78.6148 106.391Z" fill="#FFED00"/>
<path d="M70 201.329C70 210.803 66.5736 220.252 58.8686 225.266C53.2096 228.947 45.7546 228.908 39.8773 225.168C25.0871 215.75 25.1997 203.098 26.5943 196.396C28.9607 185.017 38.1095 174.617 46.9871 173.218C55.8648 171.82 63.5381 177.204 67.5244 187.614C69.1684 192.002 70.0034 196.648 69.9894 201.329M27.3021 202.084C27.3021 208.614 29.8094 217.218 40.571 224.063C46.0152 227.527 52.8962 227.559 58.1432 224.168C69.1584 217.001 70.9332 200.193 66.2884 188.083C62.5345 178.294 55.3894 173.222 47.1808 174.515C38.9722 175.809 30.0911 185.957 27.8655 196.665C27.4932 198.448 27.3044 200.264 27.3021 202.084Z" fill="#FFED00"/>
<path d="M21 48.5409C20.9988 49.2099 20.8617 49.8715 20.5972 50.4848C18.6473 55.0529 10.1635 56.9068 9.80345 56.986C9.62997 57.0223 9.44932 56.9875 9.30124 56.8892C9.15317 56.791 9.04981 56.6374 9.01388 56.4622C8.97795 56.287 9.01242 56.1046 9.10969 55.9551C9.20695 55.8055 9.35905 55.7011 9.53253 55.6649C9.61452 55.6469 17.7063 53.865 19.3781 49.9449C19.895 48.7353 19.7346 47.4538 18.8755 46.0247C18.7846 45.8717 18.7572 45.6887 18.7993 45.5155C18.8413 45.3422 18.9494 45.1928 19.1 45.0996C19.174 45.0532 19.2564 45.0222 19.3424 45.0083C19.4284 44.9944 19.5162 44.998 19.6009 45.0188C19.6855 45.0395 19.7651 45.0771 19.8352 45.1293C19.9053 45.1815 19.9644 45.2473 20.009 45.3228C20.6251 46.2835 20.9679 47.3968 21 48.5409Z" fill="#FFED00"/>
<path d="M85 20.1848C85 20.6469 85 21.109 84.9587 21.5781C84.2706 32.866 74.74 33 74.6368 33C73.7869 33 65.261 31.4232 61.4832 25.7582C60.4008 24.085 59.8868 22.0926 60.0209 20.0896C60.5129 11.6237 63.5613 7.2955 66.0317 5.15787C67.4193 3.9592 69.1295 3.22145 70.9356 3.04253C72.7416 2.86361 74.558 3.25197 76.1438 4.15607C81.7555 7.28139 85 13.2075 85 20.1848ZM61.2905 20.6751C61.2748 22.2162 61.7111 23.7266 62.5429 25.0103C66.2003 30.4885 74.5852 31.6737 74.6505 31.6772C74.7159 31.6807 83.0698 31.5608 83.6788 21.497C84.1054 14.4421 81.0639 8.38548 75.5451 5.32013C74.1832 4.54527 72.6241 4.21205 71.0737 4.36445C69.5233 4.51686 68.0544 5.14773 66.8609 6.17377C63.5957 8.99573 61.6759 13.8389 61.3077 20.1672C61.3077 20.3365 61.2905 20.5199 61.2905 20.6751Z" fill="#FFED00"/>
<path d="M55 16.9664C55.0011 17.7424 54.883 18.5141 54.6497 19.2548C54.0366 21.1647 52.6179 22.5745 50.4285 23.4218C48.4808 24.1892 46.7012 24.1962 45.1389 23.4218C42.5046 22.1405 41.0788 18.9423 40.3467 16.4768C39.9745 15.1862 39.9008 13.829 40.1313 12.5062C40.3618 11.1835 40.8904 9.92936 41.6778 8.8373C42.9039 7.10105 44.3927 6.13917 46.0952 6.01416C49.3425 5.77456 52.124 8.65326 52.2396 8.7748C52.2671 8.80364 52.2917 8.83504 52.3131 8.86856C52.4427 9.06649 54.986 13.0356 54.986 16.9421M41.296 14.053C41.2952 14.7525 41.3966 15.4485 41.5973 16.1191C42.2523 18.3277 43.4994 21.1855 45.7099 22.2585C46.9289 22.8523 48.3547 22.8315 49.9486 22.203C51.7562 21.4876 52.9192 20.3556 53.4061 18.8346C54.5866 15.1295 51.6055 10.1951 51.2517 9.63251C50.9014 9.30262 48.6279 7.12883 46.1863 7.31287C44.8937 7.4101 43.7341 8.17406 42.7428 9.5839C41.8107 10.8918 41.3057 12.4517 41.296 14.053Z" fill="#FFED00"/>
<path d="M41.9997 25.1316C42.0049 25.7022 41.9404 26.2714 41.8074 26.8274C41.4051 28.3887 39.525 30.5602 36.8224 31.5149C34.9175 32.187 31.9549 32.4972 28.6328 30.1362C27.5241 29.3398 26.7371 28.1941 26.4073 26.8963C24.8406 20.8336 28.1521 17.9349 30.26 16.7355C31.2364 16.1845 32.3626 15.9333 33.4896 16.0151C36.3702 16.2461 38.6847 17.4421 40.1837 19.4791C41.3539 21.1441 41.9804 23.111 41.9819 25.1247M27.326 23.9046C27.3322 24.8068 27.4518 25.705 27.6821 26.5792C27.9348 27.5854 28.5432 28.4743 29.4019 29.0919C32.2505 31.1116 34.743 30.86 36.3489 30.2913C38.5316 29.5193 40.1695 27.7614 40.4935 26.5C40.8176 25.2385 40.7214 22.4363 39.0942 20.227C37.8123 18.483 35.8895 17.4972 33.3721 17.2973C32.5142 17.2344 31.6569 17.4268 30.9152 17.8488C29.7956 18.4358 28.8663 19.3121 28.2308 20.38C27.5952 21.448 27.2783 22.6657 27.3153 23.8977" fill="#FFED00"/>
<path d="M30 34.8205C30 37.8172 28.0749 40.6243 25.6147 42.0227C23.0899 43.4584 19.4815 43.6954 16.8783 40.0622C15.2053 37.7156 14.6465 35.4808 15.2155 33.4153C16.1185 30.1545 19.519 28.5461 19.8802 28.3836C20.9978 27.7978 24.4733 27.6759 27.2809 29.5382C28.2219 30.1521 28.9639 31.0235 29.4173 32.0473C29.8022 32.9218 30.0006 33.866 30 34.8205ZM16.2718 35.0101C16.2718 36.3646 16.817 37.7935 17.9073 39.324C19.6928 41.8263 22.3369 42.4223 24.9878 40.9188C27.7137 39.3714 29.6797 35.8194 28.2554 32.5552C27.897 31.7557 27.3152 31.0752 26.579 30.5947C24.1939 29.0168 21.175 29.1217 20.4663 29.5111L20.4117 29.5382C20.3811 29.5382 17.202 30.9773 16.4388 33.7607C16.3268 34.1678 16.2706 34.5881 16.2718 35.0101Z" fill="#FFED00"/>
<path d="M18 47.5575C17.9776 48.1694 17.8399 48.7715 17.5943 49.3315C17.5427 49.4773 17.4911 49.6057 17.4602 49.7203C17.1851 50.6889 15.0327 52.1713 13.3101 51.9838C12.5193 51.897 11.168 51.3797 11.0167 48.8975C10.8207 45.7487 12.3921 44.61 13.3651 44.2108C13.8634 44.0142 14.4041 43.9537 14.9329 44.0353C15.4617 44.117 15.9599 44.338 16.3771 44.676C17.6459 45.6724 18 46.6826 18 47.5575ZM12.2786 48.3664C12.2786 48.5122 12.2786 48.6614 12.2786 48.8142C12.3852 50.5014 13.1038 50.6333 13.3411 50.675C14.4654 50.8798 16.047 49.7446 16.2189 49.3488C16.2568 49.2169 16.3186 49.0468 16.3874 48.8663C16.7313 47.9532 17.1232 46.9187 15.5794 45.7036C15.3404 45.5034 15.0528 45.3714 14.7462 45.3214C14.4397 45.2713 14.1255 45.305 13.8362 45.4189C12.8047 45.8494 12.2648 46.8423 12.2648 48.3664" fill="#FFED00"/>
</svg>
