<svg width="93" height="259" viewBox="0 0 93 259" fill="none" xmlns="http://www.w3.org/2000/svg">
<path d="M92.9858 55.5644C92.9858 61.6565 92.5998 66.9876 92.2244 70.7197C91.9875 73.0823 91.3905 75.3962 90.4538 77.5834C87.7305 83.9548 81.2676 100.102 80.1414 112.439C78.778 127.333 79.6598 178.186 79.766 183.936C79.766 184.55 79.766 185.14 79.7271 185.748C79.5288 189.099 78.5124 200.917 73.7422 212.302C67.7574 226.615 58.3976 234.534 45.9321 235.881C44.6539 236.03 43.363 236.039 42.0827 235.909C37.5286 235.427 30.7504 233.437 24.376 221.749C15.9477 206.241 11.2271 178.734 10.3878 139.992C10.3878 139.447 10.3417 138.899 10.2921 138.358C6.6304 100.395 5.44052 85.3198 5.05452 79.706C4.94146 78.0446 5.00435 76.3761 5.2422 74.7276C6.20898 68.0943 9.25453 50.9106 16.6913 34.6172C26.1786 13.8271 39.1115 2.26082 55.1396 0.19054C56.5013 0.0163392 57.876 -0.0385713 59.2475 0.0264536C68.0194 0.459362 75.2225 3.86677 80.662 10.1509C90.7513 21.7871 93 40.8734 93 55.5818M78.0485 144.747C78.0485 131.592 78.222 118.692 78.8064 112.317C79.9537 99.7943 86.4733 83.4939 89.2214 77.0562C90.1098 74.9968 90.6781 72.817 90.9071 70.5905C91.888 60.7872 93.9739 27.5196 79.6492 10.9993C74.4576 5.01188 67.5697 1.76507 59.1767 1.34961C57.8843 1.28759 56.5889 1.34017 55.306 1.50672C18.4053 6.2303 8.23817 63.4894 6.57374 74.9196C6.35005 76.4769 6.29071 78.0528 6.39668 79.6222C6.78268 85.2081 7.97258 100.283 11.6308 138.232C11.6839 138.805 11.7193 139.384 11.7335 139.978C12.6507 181.771 18.6886 232.114 42.2279 234.589C43.4139 234.71 44.6098 234.702 45.794 234.565C57.7425 233.27 66.7304 225.61 72.5169 211.792C77.2057 200.599 78.2079 188.97 78.4026 185.671C78.4345 185.098 78.4487 184.536 78.438 183.957C78.3778 180.654 78.0591 162.468 78.0591 144.747" fill="#FFED00"/>
<path d="M92 66.6538C91.9931 67.2089 91.8979 67.7594 91.7181 68.2849C90.4987 72.0382 84.9022 78.366 65.1735 87.2019C43.3231 97.9074 44.3487 105.744 44.3804 105.817V105.891L45.8218 125.723C46.5707 136.236 49.4274 146.493 54.2236 155.89C61.7761 170.706 73.4413 198.14 66.7171 215.419C64.2501 221.764 59.5029 226.293 52.6201 228.825C51.9434 229.078 51.9435 229.078 50.9531 229.527C46.1355 231.631 41.2826 231.481 37.2932 229.078C29.8006 224.567 25.2473 212.592 23.7671 193.485C22.4138 176.013 21.5328 163.572 20.8913 154.487C19.7248 137.951 19.2878 131.767 18.0719 124.605C17.7195 122.637 17.4235 120.244 17.0887 117.715C15.4957 105.656 13.3142 89.1382 5.40229 85.8936C5.24171 85.8233 5.11502 85.6935 5.0492 85.5316C4.98337 85.3698 4.98361 85.1888 5.04986 85.0272C5.11827 84.8664 5.24796 84.7391 5.41048 84.6734C5.57301 84.6076 5.75511 84.6087 5.91683 84.6764C14.516 88.1595 16.7433 105.119 18.3891 117.515C18.7415 120.034 19.0376 122.426 19.3689 124.355C20.5988 131.581 21.0358 137.786 22.1883 154.371C22.8297 163.452 23.7107 175.891 25.064 193.355C26.509 212.006 30.8473 223.634 37.9487 227.91C42.8227 230.846 47.8377 229.404 50.3928 228.282C51.4078 227.836 51.4254 227.833 52.1338 227.58C58.6466 225.167 63.1294 220.915 65.4554 214.952C71.9893 198.161 60.4651 171.131 53.0148 156.514C48.1398 146.961 45.2351 136.534 44.4721 125.846L43.0307 106.042C42.9143 105.242 42.2447 96.9568 64.592 86.0198C84.6625 77.0331 89.3674 70.9052 90.3859 68.0534C90.8758 66.6819 90.5516 66.0049 90.5375 65.9769C90.4597 65.821 90.4449 65.6415 90.496 65.4752C90.5471 65.3088 90.6603 65.1683 90.8123 65.0824C90.9625 64.9989 91.1397 64.9779 91.3054 65.0239C91.4711 65.0698 91.6118 65.1791 91.6969 65.3279C91.9035 65.7474 92.0017 66.2116 91.9824 66.6784" fill="#FFED00"/>
<path d="M91.986 68.4977C91.9866 68.6583 91.9293 68.8138 91.8246 68.9351C91.7439 69.0304 83.4807 78.5983 70.4667 75.3138C68.5638 74.8316 66.8568 73.7671 65.5815 72.2674C64.3062 70.7677 63.5255 68.9068 63.3474 66.9418L62.5509 58.1395C62.4912 57.5044 62.4175 56.8764 62.3158 56.2132C61.9649 53.7683 61.0912 45.3963 65.407 40.2348C67.7018 37.4865 71.0807 36.0647 75.4561 36.0012C81.8351 35.9518 86.4983 37.3772 89.3158 40.2348C91.9018 42.8561 91.8983 45.7244 91.9088 45.8373L92 68.5012L91.986 68.4977ZM63.8526 58.016L64.6526 66.836C64.8081 68.5265 65.4816 70.1267 66.5802 71.4159C67.6789 72.7051 69.1484 73.6195 70.786 74.0331C82.014 76.8555 89.4912 69.5102 90.6597 68.2578L90.5719 45.8479C90.5719 45.7456 90.5439 43.3783 88.3368 41.1662C85.7719 38.5908 81.4386 37.3101 75.4561 37.3525C71.4877 37.4124 68.4386 38.679 66.4 41.1133C62.4456 45.8444 63.2667 53.7224 63.593 56.0262C63.6982 56.7318 63.7754 57.3704 63.8351 58.0336" fill="#FFED00"/>
<path d="M28 71.3971C28 80.2562 22.1583 84.5893 20.2111 85.3611C19.9401 85.4699 19.6476 85.6067 19.3267 85.7541C16.4415 87.0909 11.0706 89.5749 5.08628 79.0037C4.99889 78.85 4.97683 78.6686 5.02494 78.499C5.07305 78.3294 5.1874 78.1854 5.34304 78.0985C5.42 78.0555 5.50486 78.028 5.59269 78.0174C5.68052 78.0069 5.76959 78.0135 5.85479 78.037C5.93999 78.0605 6.01964 78.1003 6.08911 78.1542C6.15859 78.2081 6.21652 78.275 6.25959 78.3511C11.6305 87.8452 15.9208 85.8594 18.7418 84.5472C19.0984 84.3858 19.4051 84.2384 19.694 84.1226C21.8338 83.2806 29.077 77.6529 25.8031 65.4922C25.3595 63.7403 24.4795 62.1245 23.2425 60.7908C21.6448 59.1277 19.8117 58.3032 17.7931 58.3348C12.9358 58.426 8.47787 63.3696 8.43507 63.4187C8.37689 63.4841 8.30615 63.5375 8.22691 63.5759C8.14768 63.6143 8.0615 63.6369 7.97335 63.6425C7.8852 63.648 7.79679 63.6364 7.71323 63.6082C7.62967 63.58 7.55259 63.5359 7.48642 63.4783C7.35233 63.3604 7.27082 63.1953 7.25947 63.0187C7.24813 62.842 7.30787 62.6681 7.42579 62.5345C7.62194 62.3135 12.3224 57.1068 17.7682 57.0015C20.179 56.9559 22.3474 57.9208 24.2161 59.8645C25.6071 61.3559 26.5986 63.1646 27.1013 65.1273C27.6687 67.164 27.9648 69.2644 27.9822 71.3761" fill="#FFED00"/>
<mask id="mask0_1507_8515" style="mask-type:luminance" maskUnits="userSpaceOnUse" x="5" y="1" width="87" height="235">
<path d="M54.7469 1.20277C17.3915 5.95739 7.07011 62.6422 5.23844 75.2664C5.00443 76.8708 4.94243 78.4948 5.05348 80.1119C5.40915 85.2231 6.56862 100.127 10.3102 138.824C10.3671 139.384 10.3991 139.95 10.4098 140.51C12.4193 231.497 35.2636 235.252 41.6371 235.913C42.8769 236.037 44.1266 236.028 45.3645 235.888C74.3689 232.742 78.2706 193.656 78.7081 186.304C78.7436 185.713 78.7543 185.133 78.7436 184.539C78.6191 177.791 77.762 127.721 79.1242 112.87C80.2623 100.452 86.7354 84.2932 89.5345 77.7696C90.449 75.6404 91.0329 73.3883 91.2666 71.0886C92.7497 56.3004 95.5345 2.83892 58.7659 1.02797C58.4103 1.00699 58.0546 1 57.6812 1C56.7035 0.999856 55.7269 1.06292 54.7576 1.18879" fill="white"/>
</mask>
<g mask="url(#mask0_1507_8515)">
<path d="M135.826 236H-51.8225C-51.8455 236 -51.8683 235.996 -51.8897 235.988C-51.9111 235.98 -51.9304 235.967 -51.9467 235.951C-51.9639 235.935 -51.9775 235.915 -51.9866 235.893C-51.9958 235.872 -52.0003 235.848 -52 235.825C-51.5811 195.839 -42.2629 156.5 -33.2465 118.46C-24.23 80.4192 -14.9225 41.133 -14.5072 1.17145C-14.5072 1.12598 -14.4889 1.08237 -14.4562 1.05022C-14.4236 1.01807 -14.3794 1 -14.3333 1H118.51C118.556 1 118.601 1.01807 118.633 1.05022C118.666 1.08237 118.684 1.12598 118.684 1.17145C118.879 40.4577 123.182 80.1218 127.342 118.481C131.502 156.84 135.805 196.507 136 235.829C136 235.851 135.996 235.874 135.988 235.895C135.979 235.916 135.966 235.935 135.95 235.951C135.934 235.967 135.914 235.979 135.893 235.988C135.872 235.996 135.849 236 135.826 236ZM-51.6486 235.65H135.652C135.443 196.416 131.147 156.815 126.994 118.512C122.841 80.2092 118.542 40.5871 118.336 1.3394H-14.1593C-14.5995 41.2694 -23.907 80.5451 -32.9093 118.533C-41.9115 156.521 -51.2084 195.766 -51.6415 235.657L-51.6486 235.65Z" fill="#FFED00"/>
<path d="M117.823 10.3499H-14.8231C-14.87 10.3499 -14.915 10.3315 -14.9482 10.2987C-14.9814 10.2658 -15 10.2213 -15 10.1749C-15 10.1285 -14.9814 10.0841 -14.9482 10.0512C-14.915 10.0184 -14.87 10 -14.8231 10H117.823C117.87 10 117.915 10.0184 117.948 10.0512C117.981 10.0841 118 10.1285 118 10.1749C118 10.2213 117.981 10.2658 117.948 10.2987C117.915 10.3315 117.87 10.3499 117.823 10.3499Z" fill="#FFED00"/>
<path d="M117.823 19.3499H-15.8227C-15.8697 19.3499 -15.9148 19.3315 -15.9481 19.2987C-15.9813 19.2658 -16 19.2213 -16 19.1749C-16 19.1285 -15.9813 19.084 -15.9481 19.0512C-15.9148 19.0184 -15.8697 19 -15.8227 19H117.823C117.87 19 117.915 19.0184 117.948 19.0512C117.981 19.084 118 19.1285 118 19.1749C118 19.2213 117.981 19.2658 117.948 19.2987C117.915 19.3315 117.87 19.3499 117.823 19.3499Z" fill="#FFED00"/>
<path d="M118.823 28.3499H-15.8228C-15.8698 28.3499 -15.9149 28.3315 -15.9481 28.2987C-15.9813 28.2658 -16 28.2213 -16 28.1749C-16 28.1285 -15.9813 28.084 -15.9481 28.0512C-15.9149 28.0184 -15.8698 28 -15.8228 28H118.823C118.87 28 118.915 28.0184 118.948 28.0512C118.981 28.084 119 28.1285 119 28.1749C119 28.2213 118.981 28.2658 118.948 28.2987C118.915 28.3315 118.87 28.3499 118.823 28.3499Z" fill="#FFED00"/>
<path d="M118.827 37.3464H-16.827C-16.8729 37.3464 -16.9169 37.3283 -16.9493 37.2962C-16.9818 37.264 -17 37.2204 -17 37.1749C-17 37.1291 -16.9819 37.0852 -16.9495 37.0525C-16.9172 37.0198 -16.8732 37.0009 -16.827 37H118.827C118.873 37.0009 118.917 37.0198 118.95 37.0525C118.982 37.0852 119 37.1291 119 37.1749C119 37.2204 118.982 37.264 118.949 37.2962C118.917 37.3283 118.873 37.3464 118.827 37.3464Z" fill="#FFED00"/>
<path d="M118.827 46.3464H-18.8267C-18.873 46.3455 -18.9171 46.3266 -18.9495 46.2939C-18.9819 46.2612 -19 46.2172 -19 46.1714C-19 46.126 -18.9818 46.0824 -18.9493 46.0502C-18.9168 46.0181 -18.8727 46 -18.8267 46H118.827C118.873 46 118.917 46.0181 118.949 46.0502C118.982 46.0824 119 46.126 119 46.1714C119 46.2172 118.982 46.2612 118.949 46.2939C118.917 46.3266 118.873 46.3455 118.827 46.3464Z" fill="#FFED00"/>
<path d="M119.823 55.3499H-19.8233C-19.8702 55.3499 -19.9151 55.3315 -19.9483 55.2987C-19.9814 55.2658 -20 55.2213 -20 55.1749C-20 55.1285 -19.9814 55.084 -19.9483 55.0512C-19.9151 55.0184 -19.8702 55 -19.8233 55H119.823C119.87 55 119.915 55.0184 119.948 55.0512C119.981 55.084 120 55.1285 120 55.1749C120 55.2213 119.981 55.2658 119.948 55.2987C119.915 55.3315 119.87 55.3499 119.823 55.3499Z" fill="#FFED00"/>
<path d="M120.823 64.3499H-21.8225C-21.8696 64.3499 -21.9147 64.3315 -21.948 64.2987C-21.9813 64.2659 -22 64.2213 -22 64.1749C-22 64.1285 -21.9813 64.0841 -21.948 64.0512C-21.9147 64.0184 -21.8696 64 -21.8225 64H120.823C120.87 64 120.915 64.0184 120.948 64.0512C120.981 64.0841 121 64.1285 121 64.1749C121 64.2213 120.981 64.2659 120.948 64.2987C120.915 64.3315 120.87 64.3499 120.823 64.3499Z" fill="#FFED00"/>
<path d="M122.822 73.3499H-22.822C-22.8692 73.3499 -22.9145 73.3315 -22.9479 73.2987C-22.9813 73.2658 -23 73.2213 -23 73.1749C-23 73.1285 -22.9813 73.0841 -22.9479 73.0512C-22.9145 73.0184 -22.8692 73 -22.822 73H122.822C122.869 73 122.914 73.0184 122.948 73.0512C122.981 73.0841 123 73.1285 123 73.1749C123 73.2213 122.981 73.2658 122.948 73.2987C122.914 73.3315 122.869 73.3499 122.822 73.3499Z" fill="#FFED00"/>
<path d="M123.825 82.3464H-24.8253C-24.8716 82.3464 -24.9161 82.3283 -24.9488 82.2962C-24.9816 82.264 -25 82.2204 -25 82.1749C-25 82.1291 -24.9817 82.0852 -24.949 82.0525C-24.9164 82.0198 -24.872 82.0009 -24.8253 82H123.825C123.849 82 123.872 82.0045 123.893 82.0134C123.914 82.0222 123.934 82.0352 123.95 82.0514C123.966 82.0677 123.979 82.0871 123.988 82.1083C123.996 82.1295 124 82.1521 124 82.1749C124 82.1976 123.996 82.2201 123.988 82.2411C123.979 82.2621 123.966 82.2812 123.95 82.2972C123.934 82.3133 123.914 82.3259 123.893 82.3343C123.871 82.3428 123.848 82.3469 123.825 82.3464Z" fill="#FFED00"/>
<path d="M124.822 91.3499H-26.8217C-26.869 91.3499 -26.9143 91.3315 -26.9478 91.2987C-26.9812 91.2658 -27 91.2213 -27 91.1749C-27 91.1285 -26.9812 91.0841 -26.9478 91.0512C-26.9143 91.0184 -26.869 91 -26.8217 91H124.822C124.869 91 124.914 91.0184 124.948 91.0512C124.981 91.0841 125 91.1285 125 91.1749C125 91.2213 124.981 91.2658 124.948 91.2987C124.914 91.3315 124.869 91.3499 124.822 91.3499Z" fill="#FFED00"/>
<path d="M125.822 100.35H-28.8218C-28.869 100.35 -28.9144 100.331 -28.9478 100.299C-28.9812 100.266 -29 100.221 -29 100.175C-29 100.129 -28.9812 100.084 -28.9478 100.051C-28.9144 100.018 -28.869 100 -28.8218 100H125.822C125.869 100 125.914 100.018 125.948 100.051C125.981 100.084 126 100.129 126 100.175C126 100.221 125.981 100.266 125.948 100.299C125.914 100.331 125.869 100.35 125.822 100.35Z" fill="#FFED00"/>
<path d="M126.825 109.346H-30.8255C-30.8721 109.345 -30.9165 109.327 -30.9491 109.294C-30.9817 109.261 -31 109.217 -31 109.171C-31 109.126 -30.9816 109.082 -30.9489 109.05C-30.9161 109.018 -30.8717 109 -30.8255 109H126.825C126.848 109 126.871 109.004 126.892 109.013C126.913 109.022 126.933 109.034 126.949 109.05C126.965 109.066 126.978 109.085 126.987 109.106C126.995 109.127 127 109.149 127 109.171C127 109.217 126.982 109.261 126.949 109.294C126.916 109.327 126.872 109.345 126.825 109.346Z" fill="#FFED00"/>
<path d="M127.822 118.35H-32.8221C-32.8693 118.35 -32.9145 118.331 -32.9479 118.299C-32.9812 118.266 -33 118.221 -33 118.175C-33 118.129 -32.9812 118.084 -32.9479 118.051C-32.9145 118.018 -32.8693 118 -32.8221 118H127.822C127.869 118 127.915 118.018 127.948 118.051C127.981 118.084 128 118.129 128 118.175C128 118.221 127.981 118.266 127.948 118.299C127.915 118.331 127.869 118.35 127.822 118.35Z" fill="#FFED00"/>
<path d="M127.822 127.35H-35.8222C-35.8694 127.35 -35.9146 127.331 -35.9479 127.299C-35.9813 127.266 -36 127.221 -36 127.175C-36 127.129 -35.9813 127.084 -35.9479 127.051C-35.9146 127.018 -35.8694 127 -35.8222 127H127.822C127.869 127 127.915 127.018 127.948 127.051C127.981 127.084 128 127.129 128 127.175C128 127.221 127.981 127.266 127.948 127.299C127.915 127.331 127.869 127.35 127.822 127.35Z" fill="#FFED00"/>
<path d="M128.822 136.35H-37.8224C-37.8695 136.35 -37.9146 136.331 -37.948 136.299C-37.9813 136.266 -38 136.221 -38 136.175C-38 136.129 -37.9813 136.084 -37.948 136.051C-37.9146 136.018 -37.8695 136 -37.8224 136H128.822C128.869 136 128.915 136.018 128.948 136.051C128.981 136.084 129 136.129 129 136.175C129 136.221 128.981 136.266 128.948 136.299C128.915 136.331 128.869 136.35 128.822 136.35Z" fill="#FFED00"/>
<path d="M129.826 145.346H-39.826C-39.8721 145.346 -39.9164 145.328 -39.949 145.296C-39.9817 145.264 -40 145.22 -40 145.175C-40 145.129 -39.9818 145.085 -39.9492 145.052C-39.9167 145.02 -39.8724 145.001 -39.826 145H129.826C129.872 145.001 129.917 145.02 129.949 145.052C129.982 145.085 130 145.129 130 145.175C130 145.22 129.982 145.264 129.949 145.296C129.916 145.328 129.872 145.346 129.826 145.346Z" fill="#FFED00"/>
<path d="M130.826 154.346H-41.8259C-41.8724 154.345 -41.9167 154.327 -41.9492 154.294C-41.9818 154.261 -42 154.217 -42 154.171C-42 154.126 -41.9817 154.082 -41.949 154.05C-41.9164 154.018 -41.8721 154 -41.8259 154H130.826C130.872 154 130.916 154.018 130.949 154.05C130.982 154.082 131 154.126 131 154.171C131 154.217 130.982 154.261 130.949 154.294C130.917 154.327 130.872 154.345 130.826 154.346Z" fill="#FFED00"/>
<path d="M131.822 163.35H-43.8221C-43.8693 163.35 -43.9145 163.331 -43.9479 163.299C-43.9813 163.266 -44 163.221 -44 163.175C-44 163.129 -43.9813 163.084 -43.9479 163.051C-43.9145 163.018 -43.8693 163 -43.8221 163H131.822C131.869 163 131.915 163.018 131.948 163.051C131.981 163.084 132 163.129 132 163.175C132 163.221 131.981 163.266 131.948 163.299C131.915 163.331 131.869 163.35 131.822 163.35Z" fill="#FFED00"/>
<path d="M132.823 172.35H-44.8227C-44.8697 172.35 -44.9148 172.331 -44.9481 172.299C-44.9813 172.266 -45 172.221 -45 172.175C-45 172.129 -44.9813 172.084 -44.9481 172.051C-44.9148 172.018 -44.8697 172 -44.8227 172H132.823C132.87 172 132.915 172.018 132.948 172.051C132.981 172.084 133 172.129 133 172.175C133 172.221 132.981 172.266 132.948 172.299C132.915 172.331 132.87 172.35 132.823 172.35Z" fill="#FFED00"/>
<path d="M133.822 181.35H-46.8221C-46.8693 181.35 -46.9145 181.331 -46.9479 181.299C-46.9813 181.266 -47 181.221 -47 181.175C-47 181.129 -46.9813 181.084 -46.9479 181.051C-46.9145 181.018 -46.8693 181 -46.8221 181H133.822C133.869 181 133.915 181.018 133.948 181.051C133.981 181.084 134 181.129 134 181.175C134 181.221 133.981 181.266 133.948 181.299C133.915 181.331 133.869 181.35 133.822 181.35Z" fill="#FFED00"/>
<path d="M134.826 191.346H-47.8257C-47.872 191.346 -47.9163 191.328 -47.949 191.296C-47.9816 191.264 -48 191.22 -48 191.175C-48 191.129 -47.9818 191.085 -47.9492 191.052C-47.9166 191.02 -47.8723 191.001 -47.8257 191H134.826C134.872 191.001 134.917 191.02 134.949 191.052C134.982 191.085 135 191.129 135 191.175C135 191.22 134.982 191.264 134.949 191.296C134.916 191.328 134.872 191.346 134.826 191.346Z" fill="#FFED00"/>
<path d="M134.822 200.35H-49.822C-49.8692 200.35 -49.9145 200.331 -49.9479 200.299C-49.9813 200.266 -50 200.221 -50 200.175C-50 200.129 -49.9813 200.084 -49.9479 200.051C-49.9145 200.018 -49.8692 200 -49.822 200H134.822C134.869 200 134.914 200.018 134.948 200.051C134.981 200.084 135 200.129 135 200.175C135 200.221 134.981 200.266 134.948 200.299C134.914 200.331 134.869 200.35 134.822 200.35Z" fill="#FFED00"/>
<path d="M134.822 209.35H-50.8225C-50.8696 209.35 -50.9147 209.331 -50.948 209.299C-50.9813 209.266 -51 209.221 -51 209.175C-51 209.129 -50.9813 209.084 -50.948 209.051C-50.9147 209.018 -50.8696 209 -50.8225 209H134.822C134.87 209 134.915 209.018 134.948 209.051C134.981 209.084 135 209.129 135 209.175C135 209.221 134.981 209.266 134.948 209.299C134.915 209.331 134.87 209.35 134.822 209.35Z" fill="#FFED00"/>
<path d="M135.808 218.346H-50.8261C-50.8726 218.345 -50.9168 218.327 -50.9493 218.294C-50.9818 218.261 -51 218.217 -51 218.171C-51 218.126 -50.9817 218.082 -50.9491 218.05C-50.9165 218.018 -50.8722 218 -50.8261 218H135.826C135.872 218 135.916 218.018 135.949 218.05C135.982 218.082 136 218.126 136 218.171C136 218.196 135.995 218.22 135.985 218.242C135.975 218.264 135.961 218.284 135.943 218.3C135.925 218.317 135.904 218.329 135.881 218.337C135.857 218.345 135.833 218.348 135.808 218.346Z" fill="#FFED00"/>
<path d="M135.812 227.35H-51.8223C-51.8694 227.35 -51.9146 227.331 -51.948 227.299C-51.9813 227.266 -52 227.221 -52 227.175C-52 227.129 -51.9813 227.084 -51.948 227.051C-51.9146 227.018 -51.8694 227 -51.8223 227H135.822C135.869 227 135.915 227.018 135.948 227.051C135.981 227.084 136 227.129 136 227.175C136 227.221 135.981 227.266 135.948 227.299C135.915 227.331 135.869 227.35 135.822 227.35H135.812Z" fill="#FFED00"/>
<path d="M98.8306 236C98.8085 236 98.7866 235.996 98.7661 235.988C98.7455 235.98 98.7268 235.968 98.7111 235.952C98.6953 235.936 98.6828 235.918 98.6742 235.897C98.6657 235.876 98.6613 235.854 98.6613 235.832C97.7385 196.675 95.2431 156.938 92.8307 118.512C90.4183 80.0868 87.9195 40.3422 87.0001 1.17495C86.9992 1.1526 87.0027 1.1303 87.0104 1.10934C87.0181 1.08838 87.0299 1.06918 87.045 1.05289C87.0601 1.03659 87.0783 1.02352 87.0985 1.01444C87.1187 1.00535 87.1405 1.00045 87.1626 1C87.2073 1.00074 87.2502 1.01836 87.2828 1.04943C87.3154 1.08049 87.3354 1.12276 87.3388 1.16795C88.2582 40.3247 90.7535 80.0623 93.1694 118.488C95.5853 156.913 98.0772 196.661 99 235.825C99.0004 235.848 98.9965 235.87 98.9884 235.891C98.9803 235.912 98.9682 235.931 98.9528 235.947C98.9374 235.964 98.919 235.977 98.8986 235.986C98.8782 235.995 98.8563 236 98.8341 236H98.8306Z" fill="#FFED00"/>
<path d="M91.8298 236C91.8076 236 91.7855 235.996 91.7649 235.988C91.7443 235.98 91.7255 235.968 91.7096 235.952C91.6938 235.936 91.6812 235.918 91.6726 235.897C91.664 235.876 91.6596 235.854 91.6596 235.832C90.7495 196.696 88.7593 156.948 86.8281 118.509C84.8969 80.0694 82.9031 40.3178 82 1.17509C81.9996 1.15258 82.0035 1.13019 82.0117 1.10921C82.0198 1.08823 82.0319 1.06907 82.0474 1.05283C82.0629 1.03658 82.0814 1.02357 82.1019 1.01453C82.1224 1.00549 82.1444 1.0006 82.1668 1.00015C82.1892 0.999202 82.2117 1.00285 82.2327 1.01087C82.2537 1.01888 82.2729 1.0311 82.2892 1.04679C82.3054 1.06248 82.3183 1.08132 82.3271 1.10217C82.3359 1.12301 82.3404 1.14544 82.3404 1.16809C83.2435 40.3038 85.2407 80.0519 87.1685 118.491C89.0962 156.931 91.0969 196.696 92 235.825C92.0004 235.848 91.9965 235.87 91.9883 235.891C91.9802 235.912 91.9681 235.931 91.9526 235.947C91.9371 235.964 91.9186 235.977 91.8981 235.986C91.8776 235.995 91.8556 235.999 91.8332 236H91.8298Z" fill="#FFED00"/>
<path d="M84.8226 236C84.7764 235.999 84.7324 235.981 84.6994 235.95C84.6665 235.919 84.6471 235.877 84.6453 235.832C83.7769 196.714 82.2753 156.959 80.8244 118.509C79.3735 80.0589 77.872 40.2933 77 1.17509C76.9996 1.15258 77.0037 1.13019 77.0121 1.10921C77.0206 1.08823 77.0333 1.06907 77.0494 1.05283C77.0655 1.03658 77.0848 1.02357 77.1061 1.01453C77.1275 1.00549 77.1504 1.0006 77.1737 1.00015C77.1971 0.999202 77.2205 1.00285 77.2424 1.01087C77.2643 1.01888 77.2843 1.0311 77.3012 1.04679C77.3181 1.06248 77.3316 1.08132 77.3407 1.10217C77.3499 1.12301 77.3546 1.14544 77.3546 1.16809C78.2266 40.2898 79.7281 80.0484 81.179 118.498C82.6299 156.948 84.1315 196.696 84.9998 235.825C85.0008 235.847 84.9972 235.87 84.9891 235.891C84.981 235.912 84.9687 235.931 84.9529 235.947C84.937 235.963 84.918 235.976 84.8968 235.986C84.8757 235.995 84.8529 236 84.8298 236H84.8226Z" fill="#FFED00"/>
<path d="M77.8344 236C77.7914 235.999 77.7503 235.981 77.7196 235.95C77.6888 235.919 77.6707 235.877 77.669 235.832C76.9567 196.714 76.1329 156.945 75.3362 118.481C74.5395 80.0168 73.7157 40.2792 73 1.17495C72.9996 1.15243 73.0034 1.13004 73.0113 1.10906C73.0192 1.08809 73.031 1.06893 73.0461 1.05268C73.0611 1.03643 73.0791 1.02342 73.099 1.01438C73.1189 1.00534 73.1404 1.00045 73.1621 1C73.2052 1.00159 73.2463 1.01959 73.2774 1.05058C73.3086 1.08156 73.3276 1.12334 73.3309 1.16795C74.0466 40.2722 74.8703 80.0273 75.6671 118.474C76.4638 156.92 77.2875 196.707 77.9999 235.825C78.0008 235.848 77.9973 235.87 77.9895 235.891C77.9818 235.913 77.97 235.932 77.9549 235.948C77.9397 235.965 77.9215 235.978 77.9014 235.987C77.8813 235.995 77.8597 236 77.8378 236H77.8344Z" fill="#FFED00"/>
<path d="M69.8595 236C69.823 235.999 69.7881 235.981 69.762 235.95C69.7359 235.919 69.7206 235.877 69.7191 235.832C69.2234 196.717 69.0372 156.945 68.8596 118.484C68.6819 80.024 68.4957 40.276 68 1.1753C67.9996 1.15249 68.003 1.12982 68.0099 1.10862C68.0168 1.08741 68.0271 1.06809 68.0401 1.0518C68.0532 1.03551 68.0688 1.02257 68.086 1.01373C68.1033 1.0049 68.1217 1.00035 68.1404 1.00035C68.1589 0.998853 68.1775 1.00214 68.1949 1.01C68.2123 1.01786 68.2281 1.03012 68.2414 1.04598C68.2546 1.06183 68.265 1.08092 68.2718 1.102C68.2786 1.12308 68.2817 1.14567 68.2808 1.1683C68.7793 40.2725 68.9627 80.031 69.1403 118.481C69.318 156.931 69.5042 196.714 69.9999 235.825C70.0007 235.848 69.9977 235.87 69.9911 235.891C69.9846 235.913 69.9745 235.932 69.9617 235.948C69.9488 235.965 69.9334 235.978 69.9163 235.987C69.8993 235.995 69.8809 236 69.8624 236H69.8595Z" fill="#FFED00"/>
<path d="M63.4786 235.996C63.4197 235.996 63.3634 235.978 63.3213 235.947C63.2792 235.915 63.2545 235.873 63.2521 235.829C62.6606 196.714 63.2244 156.949 63.7697 118.496C64.315 80.0436 64.8788 40.2821 64.2827 1.17494C64.2827 1.12855 64.307 1.08405 64.3504 1.05124C64.3937 1.01843 64.4525 1 64.5137 1C64.575 1 64.6338 1.01843 64.6771 1.05124C64.7204 1.08405 64.7448 1.12855 64.7448 1.17494C65.3409 40.2856 64.7771 80.0506 64.2318 118.504C63.6865 156.956 63.1227 196.718 63.7143 235.825C63.7155 235.848 63.7107 235.87 63.7001 235.891C63.6895 235.913 63.6734 235.932 63.6527 235.948C63.6319 235.965 63.6071 235.978 63.5795 235.987C63.552 235.995 63.5224 236 63.4925 236L63.4786 235.996Z" fill="#FFED00"/>
<path d="M56.2067 236C56.1634 235.999 56.122 235.981 56.091 235.949C56.0601 235.917 56.0419 235.874 56.0402 235.829C55.7804 196.703 56.8261 156.945 57.8385 118.498C58.8509 80.0518 59.8932 40.2932 59.6334 1.17149C59.6334 1.12602 59.6506 1.08241 59.6812 1.05026C59.7118 1.0181 59.7533 1.00004 59.7966 1.00004C59.8182 0.99956 59.8396 1.00367 59.8596 1.01212C59.8796 1.02057 59.8978 1.03318 59.913 1.04919C59.9283 1.06521 59.9403 1.0843 59.9483 1.10532C59.9564 1.12633 59.9603 1.14884 59.9598 1.17149C60.2196 40.2967 59.1739 80.0553 58.1649 118.505C57.1558 156.955 56.1068 196.696 56.3865 235.829C56.3865 235.874 56.3693 235.918 56.3387 235.95C56.3081 235.982 56.2666 236 56.2234 236H56.2067Z" fill="#FFED00"/>
<path d="M49.17 236C49.1257 236 49.0832 235.982 49.0519 235.95C49.0206 235.918 49.003 235.874 49.003 235.829C48.9178 196.682 50.6527 156.931 52.333 118.491C54.0133 80.0518 55.7414 40.3107 55.663 1.17145C55.663 1.12598 55.6806 1.08237 55.7119 1.05022C55.7432 1.01807 55.7857 1 55.83 1C55.8743 1 55.9168 1.01807 55.9481 1.05022C55.9794 1.08237 55.997 1.12598 55.997 1.17145C56.0822 40.3212 54.3473 80.0693 52.667 118.509C50.9867 156.948 49.2586 196.689 49.337 235.829C49.337 235.874 49.3194 235.918 49.2881 235.95C49.2568 235.982 49.2143 236 49.17 236Z" fill="#FFED00"/>
<path d="M42.1668 236C42.1225 236 42.0801 235.982 42.0488 235.95C42.0176 235.918 42 235.874 42 235.829C42.1021 196.64 44.5085 156.917 46.8366 118.488C49.1647 80.0588 51.5677 40.3387 51.6698 1.17145C51.6698 1.12598 51.6874 1.08237 51.7187 1.05022C51.7499 1.01807 51.7924 1 51.8366 1C51.8583 0.999995 51.8799 1.00445 51.8999 1.01311C51.92 1.02177 51.9381 1.03445 51.9533 1.05042C51.9685 1.06639 51.9805 1.08532 51.9885 1.1061C51.9965 1.12688 52.0004 1.1491 52 1.17145C51.8979 40.3597 49.4915 80.0833 47.1634 118.512C44.8352 156.941 42.4323 196.661 42.3302 235.829C42.3302 235.873 42.3131 235.917 42.2825 235.949C42.252 235.981 42.2104 235.999 42.1668 236Z" fill="#FFED00"/>
<path d="M35.1631 235.999C35.1414 235.999 35.1199 235.995 35.0999 235.986C35.0799 235.977 35.0618 235.965 35.0466 235.949C35.0314 235.933 35.0195 235.914 35.0115 235.893C35.0035 235.872 34.9996 235.85 35 235.828C35.2922 196.608 38.3638 156.895 41.3335 118.487C44.3031 80.0795 47.3747 40.3735 47.6669 1.17145C47.6678 1.12566 47.6861 1.08206 47.7178 1.05C47.7496 1.01794 47.7923 0.999991 47.8368 1C47.8588 0.99998 47.8805 1.00455 47.9008 1.01342C47.921 1.0223 47.9393 1.03529 47.9546 1.05164C47.9698 1.06798 47.9817 1.08733 47.9894 1.10852C47.9972 1.12972 48.0008 1.15231 47.9999 1.17495C47.7077 40.391 44.6361 80.1075 41.6664 118.512C38.6968 156.916 35.6218 196.626 35.3432 235.828C35.3438 235.852 35.3395 235.875 35.3305 235.897C35.3214 235.919 35.3079 235.939 35.2909 235.955C35.2738 235.972 35.2536 235.984 35.2316 235.991C35.2096 235.999 35.1862 236.002 35.1631 235.999Z" fill="#FFED00"/>
<path d="M28.1636 236C28.1416 236 28.1198 235.995 28.0995 235.986C28.0792 235.978 28.0608 235.965 28.0456 235.948C28.0303 235.932 28.0184 235.913 28.0106 235.891C28.0028 235.87 27.9992 235.848 28.0001 235.825C28.4769 196.563 32.2198 156.871 35.8332 118.484C39.4466 80.0972 43.1962 40.4191 43.6662 1.16795C43.6679 1.12337 43.6862 1.08116 43.7172 1.04994C43.7482 1.01872 43.7897 1.00086 43.8331 1C43.8553 0.999995 43.8773 1.00455 43.8977 1.01338C43.9182 1.02221 43.9368 1.03515 43.9523 1.05145C43.9678 1.06774 43.9801 1.08706 43.9882 1.10826C43.9964 1.12947 44.0004 1.15214 44 1.17495C43.5232 40.4401 39.7769 80.1322 36.1669 118.519C32.5569 156.906 28.8039 196.581 28.3339 235.832C28.3339 235.855 28.3295 235.877 28.3208 235.898C28.3122 235.919 28.2996 235.937 28.2836 235.953C28.2677 235.969 28.2489 235.981 28.2283 235.989C28.2076 235.997 28.1857 236.001 28.1636 236Z" fill="#FFED00"/>
<path d="M20.1729 236C20.1496 236 20.1265 235.995 20.1051 235.987C20.0836 235.978 20.0643 235.965 20.0481 235.948C20.032 235.932 20.0194 235.913 20.0112 235.891C20.0029 235.87 19.9992 235.848 20.0001 235.825C20.6876 196.507 25.3339 156.84 29.8254 118.481C34.317 80.1218 38.9561 40.4717 39.6471 1.16795C39.6498 1.12306 39.6699 1.08083 39.7033 1.04969C39.7366 1.01855 39.7808 1.0008 39.8271 1C39.8504 0.99998 39.8735 1.00455 39.8949 1.01342C39.9163 1.0223 39.9357 1.03529 39.9519 1.05164C39.968 1.06798 39.9806 1.08733 39.9888 1.10853C39.9971 1.12972 40.0008 1.15231 39.9998 1.17495C39.316 40.4927 34.6661 80.1603 30.1745 118.519C25.683 156.878 21.0367 196.546 20.3492 235.832C20.3483 235.877 20.3293 235.92 20.2963 235.951C20.2634 235.982 20.219 236 20.1729 236Z" fill="#FFED00"/>
<path d="M13.1656 236C13.1433 236 13.1212 235.995 13.1006 235.986C13.0801 235.977 13.0615 235.964 13.0461 235.948C13.0306 235.932 13.0186 235.912 13.0107 235.891C13.0028 235.87 12.9992 235.847 13.0001 235.825C13.817 196.448 18.9077 156.812 23.8329 118.477C28.7581 80.1427 33.8453 40.5276 34.6622 1.16795C34.664 1.12277 34.6829 1.08006 34.715 1.04874C34.7472 1.01743 34.79 0.999964 34.8345 1C34.8567 1.00045 34.8786 1.00534 34.8989 1.01438C34.9192 1.02342 34.9376 1.03643 34.9529 1.05268C34.9683 1.06893 34.9804 1.08809 34.9884 1.10906C34.9965 1.13004 35.0004 1.15243 35 1.17495C34.1797 40.5556 29.089 80.1811 24.1638 118.523C19.2385 156.864 14.1479 196.472 13.3448 235.832C13.3444 235.855 13.3394 235.878 13.33 235.899C13.3207 235.92 13.3073 235.939 13.2905 235.955C13.2738 235.97 13.2541 235.982 13.2326 235.99C13.2111 235.998 13.1883 236.001 13.1656 236Z" fill="#FFED00"/>
<path d="M6.16766 236C6.14507 236 6.12268 235.995 6.10189 235.986C6.0811 235.977 6.06233 235.964 6.04668 235.948C6.03104 235.932 6.01883 235.912 6.01084 235.891C6.00284 235.87 5.9992 235.847 6.00015 235.825C6.95631 196.381 12.7456 156.777 18.3291 118.474C23.9125 80.1706 29.6983 40.5906 30.658 1.16795C30.6598 1.12277 30.679 1.08006 30.7115 1.04874C30.744 1.01743 30.7874 0.999964 30.8325 1C30.8549 1.00045 30.8771 1.00534 30.8976 1.01438C30.9182 1.02342 30.9368 1.03643 30.9524 1.05268C30.9679 1.06893 30.9801 1.08809 30.9883 1.10906C30.9965 1.13004 31.0004 1.15243 31 1.17495C30.0403 40.6221 24.2615 80.2231 18.678 118.526C13.0946 156.829 7.30876 196.409 6.34911 235.832C6.34868 235.855 6.34361 235.878 6.33416 235.899C6.32471 235.92 6.31109 235.939 6.29414 235.955C6.27718 235.97 6.25724 235.982 6.2355 235.99C6.21376 235.998 6.19069 236.001 6.16766 236Z" fill="#FFED00"/>
<path d="M-0.82969 236C-0.852646 236 -0.875365 235.995 -0.896487 235.987C-0.917609 235.978 -0.936696 235.965 -0.952594 235.948C-0.968492 235.932 -0.980888 235.913 -0.989011 235.891C-0.997133 235.87 -1.00081 235.848 -0.999852 235.825C0.063702 196.308 6.55847 156.749 12.8263 118.47C19.0942 80.192 25.5606 40.6574 26.6525 1.16829C26.652 1.14549 26.6563 1.12282 26.6651 1.10174C26.6739 1.08066 26.687 1.06162 26.7037 1.04582C26.7204 1.03003 26.7402 1.01783 26.7619 1.01C26.7836 1.00217 26.8067 0.998876 26.8298 1.00034C26.8526 1.00079 26.8751 1.00568 26.896 1.01472C26.9169 1.02376 26.9358 1.03677 26.9516 1.05302C26.9674 1.06926 26.9798 1.08842 26.9881 1.1094C26.9964 1.13038 27.0004 1.15277 27 1.17529C25.9151 40.6924 19.4381 80.2514 13.1738 118.526C6.90944 156.801 0.435939 196.343 -0.652431 235.832C-0.654263 235.877 -0.67374 235.92 -0.706786 235.951C-0.739832 235.983 -0.783881 236 -0.82969 236Z" fill="#FFED00"/>
<path d="M-8.83518 236C-8.85757 235.999 -8.87964 235.995 -8.90011 235.986C-8.92058 235.976 -8.93903 235.963 -8.95437 235.947C-8.9697 235.931 -8.98163 235.912 -8.98944 235.891C-8.99725 235.87 -9.00079 235.847 -8.99985 235.825C-7.86111 196.234 -0.902493 156.703 5.82837 118.47C12.5592 80.2373 19.5178 40.7307 20.6566 1.16809C20.6566 1.14544 20.6611 1.12301 20.67 1.10217C20.6789 1.08132 20.6919 1.06248 20.7083 1.04679C20.7246 1.0311 20.744 1.01888 20.7653 1.01087C20.7865 1.00285 20.8091 0.999202 20.8318 1.00015C20.8776 1.00197 20.9209 1.02168 20.9524 1.05505C20.9838 1.08842 21.0009 1.13278 21 1.1786C19.8612 40.7657 12.8991 80.2968 6.16823 118.53C-0.562631 156.763 -7.52475 196.269 -8.65648 235.832C-8.65831 235.878 -8.67805 235.921 -8.71147 235.952C-8.74488 235.984 -8.78931 236.001 -8.83518 236Z" fill="#FFED00"/>
<path d="M-15.8354 236C-15.8581 235.999 -15.8804 235.994 -15.901 235.985C-15.9217 235.976 -15.9403 235.962 -15.9556 235.946C-15.971 235.929 -15.9828 235.909 -15.9903 235.888C-15.9979 235.867 -16.0011 235.844 -15.9997 235.821C-14.843 196.161 -7.38912 156.665 -0.165901 118.467C7.05732 80.2686 14.5112 40.79 15.6574 1.16799C15.6592 1.1222 15.6789 1.07895 15.7122 1.04755C15.7456 1.01614 15.7898 0.999085 15.8356 1.00004C15.8581 1.00094 15.8802 1.00627 15.9006 1.01573C15.9211 1.02519 15.9394 1.03859 15.9547 1.05516C15.9699 1.07174 15.9818 1.09116 15.9895 1.11232C15.9973 1.13348 16.0008 1.15597 15.9999 1.17849C14.8397 40.839 7.3823 80.3351 0.173059 118.533C-7.03618 156.731 -14.504 196.21 -15.6502 235.832C-15.6511 235.855 -15.6566 235.878 -15.6665 235.899C-15.6763 235.92 -15.6903 235.939 -15.7075 235.955C-15.7248 235.97 -15.745 235.982 -15.7669 235.99C-15.7889 235.998 -15.8122 236.001 -15.8354 236Z" fill="#FFED00"/>
<path d="M-22.8311 236C-22.8537 236 -22.8761 235.995 -22.8968 235.986C-22.9175 235.977 -22.9363 235.964 -22.952 235.947C-22.9677 235.931 -22.98 235.912 -22.9882 235.891C-22.9964 235.87 -23.0004 235.848 -23 235.825C-21.8531 196.089 -13.8782 156.629 -6.16707 118.47C1.54404 80.3118 9.50843 40.8798 10.6482 1.17494C10.6482 1.12854 10.6667 1.08405 10.6997 1.05124C10.7327 1.01843 10.7775 1 10.8241 1C10.8708 1 10.9155 1.01843 10.9485 1.05124C10.9815 1.08405 11 1.12854 11 1.17494C9.8567 40.9078 1.88176 80.3678 -5.83287 118.526C-13.5475 156.685 -21.5154 196.117 -22.6587 235.822C-22.6573 235.845 -22.6607 235.868 -22.6687 235.89C-22.6768 235.912 -22.6893 235.932 -22.7055 235.948C-22.7217 235.965 -22.7412 235.978 -22.7629 235.987C-22.7845 235.996 -22.8077 236 -22.8311 236Z" fill="#FFED00"/>
</g>
<path d="M93 193.209C93 210.604 92.186 228.475 89.2252 236.038C82.6282 252.913 60.0791 258.385 47.8057 258.975C36.261 259.52 11.0532 251.227 6.02726 234.086C0.780963 216.195 -3.48076 163.554 4.14343 147.097C9.00586 136.622 25.2566 129.674 38.0347 125.704C46.42 123.104 55.4698 123.489 63.5944 126.793C70.753 129.705 76.9519 133.48 82.024 138.012C88.1681 143.564 91.8222 151.282 92.186 159.475C92.5415 167.44 93 180.192 93 193.209ZM1.40298 178.46C1.40298 199.103 4.20385 223.115 7.31396 233.716C12.1515 250.207 36.556 258.179 47.7418 257.648C59.6988 257.086 81.6259 251.799 87.9776 235.56C93.0569 222.57 91.6777 178.065 90.8496 159.531C90.4994 151.693 87.0042 144.31 81.1283 138.997C76.1521 134.569 70.1096 130.875 63.0861 128.019C55.2501 124.835 46.5229 124.464 38.4363 126.971C28.189 130.156 10.2641 137.076 5.38036 147.653C2.53684 153.795 1.42075 165.46 1.42075 178.463" fill="#FFED00"/>
</svg>
