<svg width="79" height="34" viewBox="0 0 79 34" fill="none" xmlns="http://www.w3.org/2000/svg">
<path fill-rule="evenodd" clip-rule="evenodd" d="M45.3278 19.143V25.1385H42.4465V9H48.7896C50.6388 9 52.1117 9.4725 53.1975 10.407C53.7361 10.8709 54.1622 11.4461 54.4448 12.0908C54.7275 12.7356 54.8596 13.4337 54.8317 14.1345C54.8317 15.7095 54.2941 16.9485 53.2298 17.82C52.1654 18.702 50.671 19.143 48.7573 19.143H45.317H45.3278ZM45.2417 16.7805H48.6821C49.7142 16.7805 50.4883 16.539 51.0258 16.077C51.5634 15.6045 51.8321 14.922 51.8321 14.04C51.8321 13.158 51.5634 12.465 51.0151 11.94C50.4775 11.415 49.7249 11.1525 48.7681 11.142H45.2417V16.7805ZM63.8733 23.994C63.9593 24.519 64.0668 24.8865 64.1958 25.107H67.0126V24.918C66.6693 24.0997 66.5116 23.2185 66.5503 22.335V16.9275C66.5708 16.3657 66.4627 15.8065 66.234 15.2906C66.0052 14.7748 65.6615 14.3152 65.2279 13.9455C64.3678 13.242 63.2175 12.8955 61.7768 12.8955C60.8919 12.8819 60.0136 13.0463 59.1966 13.3785C58.4225 13.6935 57.8097 14.1555 57.3689 14.7225C56.9361 15.2462 56.6974 15.8975 56.6916 16.5705H59.4654C59.4654 16.098 59.6589 15.7095 60.0674 15.405C60.4652 15.09 60.9813 14.943 61.6156 14.943C62.3466 14.943 62.8842 15.132 63.239 15.4995C63.6102 15.9092 63.803 16.4441 63.7765 16.9905V17.778H62.0779C60.2609 17.778 58.8741 18.1245 57.885 18.807C57.4101 19.139 57.0283 19.5822 56.7747 20.0959C56.5211 20.6096 56.4038 21.1774 56.4336 21.747C56.4336 22.7655 56.8206 23.616 57.6054 24.2985C58.3903 24.9915 59.4009 25.338 60.6372 25.338C61.9058 25.338 62.9917 24.8865 63.8625 23.994H63.8733ZM61.1855 23.196C61.7231 23.196 62.2391 23.07 62.7229 22.8075C63.2067 22.545 63.583 22.1985 63.8195 21.7575V19.5H62.3144C61.293 19.5 60.519 19.6785 60.0029 20.025C59.4869 20.3715 59.2288 20.865 59.2288 21.495C59.2288 22.02 59.4009 22.4295 59.7664 22.734C60.1104 23.049 60.5835 23.196 61.1748 23.196H61.1855ZM76.065 13.0845L73.5707 21.2535L70.9905 13.0845H68.0124L72.3129 25.0755L71.9258 26.115C71.7108 26.703 71.442 27.1125 71.0872 27.375C70.7324 27.6165 70.2164 27.7425 69.5176 27.7425L69.0015 27.711V29.8005C69.4853 29.937 69.9261 30 70.3239 30C72.1086 30 73.3772 28.9815 74.1298 26.955L79 13.095H76.065V13.0845ZM16.8913 21.201V22.923H9L9.01075 22.6605C9.15051 20.3505 9.95684 19.3845 12.4941 17.8305L13.0639 17.484C14.4615 16.6125 15.0743 15.93 15.0743 14.8905C15.0743 13.809 14.2895 13.0635 13.1391 13.0635C11.8168 13.0635 11.1287 14.0505 11.0965 15.5835V15.825H9.33328L9.30103 15.279C9.30103 12.969 10.8707 11.415 13.1929 11.415C15.4721 11.415 16.9773 12.78 16.9773 14.8695C16.9773 16.7595 16.0527 17.7045 13.4724 19.227L13.4187 19.2585L13.2574 19.353L13.0209 19.4895C11.9673 20.0985 11.419 20.5605 11.1717 21.201H16.8805H16.8913ZM26.2017 18.5445V20.256H24.6535V22.923H22.8903V20.256H17.9234V18.6705L17.9771 18.5235L22.9548 11.52L23.1699 11.415H24.6535V18.5445H26.2017ZM22.8903 18.5445H20.0091L22.8903 14.3865V18.5445Z" fill="#FBFAF8"/>
<path fill-rule="evenodd" clip-rule="evenodd" d="M8.3076e-07 16.9947C0.00140935 12.486 1.79383 8.16255 4.98294 4.97543C8.17206 1.78831 12.4966 -0.00140769 17.0053 8.3076e-07C21.514 0.00140935 25.8374 1.79383 29.0246 4.98294C32.2117 8.17206 34.0014 12.4966 34 17.0053C33.9986 21.514 32.2062 25.8374 29.0171 29.0246C25.8279 32.2117 21.5034 34.0014 16.9947 34C12.486 33.9986 8.16255 32.2062 4.97543 29.0171C1.78831 25.8279 -0.00140769 21.5034 8.3076e-07 16.9947ZM2.1562 16.9947C2.1562 25.1734 8.816 31.8332 16.9947 31.8332C25.1734 31.8332 31.8332 25.1734 31.8332 16.9947C31.8332 8.816 25.1734 2.1562 16.9947 2.1562C8.816 2.1562 2.1562 8.816 2.1562 16.9947Z" fill="#8DC641"/>
</svg>
