<svg width="49" height="31" viewBox="0 0 49 31" fill="none" xmlns="http://www.w3.org/2000/svg">
<path d="M49 29.1761C49 30.1838 48.1867 30.9998 47.1823 30.9998H1.81734C0.813593 30.9998 0 30.1838 0 29.1761V1.82363C0 0.816568 0.813593 0 1.81734 0H47.1824C48.1868 0 49.0001 0.816568 49.0001 1.82363L49 29.1761Z" fill="#21246E"/>
<path d="M18.5674 9.24618L13.2005 22.7859H9.69751L7.05831 11.9816C6.8958 11.3152 6.75692 11.0728 6.26976 10.7899C5.47178 10.3337 4.15906 9.90577 3 9.63928L3.08107 9.24628H8.71687C9.43566 9.24628 10.0819 9.75316 10.2444 10.627L11.6399 18.4635L15.0867 9.24628L18.5674 9.24618ZM32.2886 18.3632C32.3041 14.7917 27.6142 14.5973 27.6479 12.9995C27.657 12.5118 28.0943 11.9956 29.0519 11.8653C29.5273 11.7984 30.8359 11.7495 32.3191 12.4693L32.9004 9.59947C32.1024 9.29326 31.0767 9 29.8018 9C26.5275 9 24.2224 10.8413 24.203 13.4759C24.1815 15.4242 25.8475 16.5113 27.1042 17.1602C28.3946 17.8241 28.8261 18.248 28.8215 18.8434C28.8131 19.7521 27.7919 20.1493 26.8396 20.1672C25.1736 20.1946 24.2072 19.6911 23.4355 19.3112L22.8358 22.2797C23.6087 22.6549 25.0399 22.9807 26.521 22.9999C30.0009 22.9998 32.2775 21.1781 32.2886 18.3632ZM40.9353 22.7858H44.0001L41.3258 9.24608H38.4966C37.8608 9.24608 37.3249 9.63809 37.0861 10.2385L32.1179 22.7857H35.5952L36.2855 20.7636H40.5362L40.9353 22.7858ZM37.2385 17.9887L38.9831 12.9048L39.9867 17.9887H37.2385ZM23.3018 9.24618L20.5608 22.7858H17.2472L19.989 9.24608H23.3018V9.24618Z" fill="white"/>
</svg>
