<svg width="145" height="136" viewBox="0 0 145 136" fill="none" xmlns="http://www.w3.org/2000/svg">
<path d="M2 117C2 117 40.0956 124.493 57.285 124.977C74.4745 125.46 143 118.209 143 118.209" stroke="#FFDF0D" stroke-width="3.46582" stroke-miterlimit="10"/>
<path d="M39 4V48" stroke="white" stroke-width="3.46582" stroke-miterlimit="10" stroke-linecap="round"/>
<path d="M25 15.4286L27.5041 18L39.1138 5.14286L50.4959 18L53 15.4286L39.1138 0L25 15.4286Z" fill="white"/>
<path d="M14.2458 133.996L123.439 132.843C127.38 132.843 131.089 131.23 134.103 128.695L139.667 123.624C144.072 119.705 144.072 113.021 139.899 108.872L139.667 108.641C134.103 103.11 126.452 100.344 118.57 101.266L61.0758 66C61.0758 66 46.0067 71.7624 59.6848 82.5956C54.3527 92.7374 28.3875 98.4997 22.128 86.2835C15.8686 74.0673 13.5503 103.801 13.5503 103.801C13.5503 103.801 7.05896 108.872 3.34965 116.478C-0.823322 124.776 5.20431 134.226 14.2458 133.996Z" stroke="white" stroke-width="2.31055" stroke-miterlimit="10" stroke-linecap="round"/>
<path d="M59 83C59 83 115.455 120.956 118 101.403" stroke="white" stroke-width="2.31055" stroke-miterlimit="10" stroke-linecap="round"/>
</svg>
