<svg width="176" height="90" viewBox="0 0 176 90" fill="none" xmlns="http://www.w3.org/2000/svg">
<path d="M113.812 42.0197C125.155 39.4598 173.536 27.8237 173.999 54.8194C174.23 81.8151 142.98 78.3243 142.98 78.3243C142.98 78.3243 111.034 74.368 94.8304 79.7206C93.4415 80.1861 92.0526 80.6515 90.6637 81.117C83.4876 82.9787 62.6539 91.124 46.9128 86.7023C27.2365 81.117 2.46747 66.6882 2.0045 49.2341C1.54153 31.7799 36.9589 30.1509 36.9589 30.1509C36.9589 30.1509 55.0148 28.5218 81.8672 35.9689C86.2655 37.1326 90.4322 38.5289 94.599 40.1579C100.618 42.4852 107.331 43.1833 113.812 42.0197Z" stroke="#FFDF0D" stroke-width="2.31055" stroke-miterlimit="10"/>
<path d="M107.123 44.0317C105.74 44.496 104.357 44.9602 103.205 45.1923C97.211 47.2813 90.987 49.1381 84.9935 51.2271C83.6104 51.6913 81.9968 52.1556 80.6136 52.6198C79.2305 53.3161 79 53.084 79 51.6913C79 49.3703 79.461 47.0492 80.8442 44.9602C81.9968 43.1033 83.8409 42.6391 85.6851 41.9428C93.2922 38.9254 101.13 35.908 108.737 33.1227C108.968 33.1227 109.198 32.6584 109.429 32.4263C110.12 29.8731 110.581 27.0878 111.273 24.5346C108.737 23.142 106.893 21.2851 105.74 18.4998C102.974 12.0008 106.201 3.64487 112.425 0.859563C117.727 -1.46152 123.721 1.09167 125.795 6.43017C127.64 11.0723 127.179 15.4824 124.643 19.6604C122.799 22.6778 120.955 25.9273 119.802 29.4089C119.802 29.641 119.802 29.8731 119.802 30.3373C121.185 29.641 122.568 28.9447 123.951 28.2484C125.795 27.0878 127.87 25.6952 129.714 24.0704C134.325 20.5888 140.318 20.1246 145.159 22.9099C147.003 24.0704 148.386 25.6952 149.308 27.7842C149.308 28.0163 149.539 28.0163 149.539 28.2484C149.769 29.1768 150 30.1052 150 31.0337C149.769 32.4263 149.769 34.0511 149.078 35.2116C147.234 39.8538 143.545 42.407 138.705 43.3354C134.325 44.0318 130.406 43.3354 127.409 39.8538C126.256 38.4611 125.565 38.4612 123.951 38.9254C122.338 39.6217 120.493 40.0859 118.88 40.7822C118.649 41.0143 118.188 41.4786 118.188 41.7107M137.321 36.6043C138.935 36.1401 140.549 35.4437 141.701 34.2832C142.854 33.1227 143.545 31.73 143.084 30.1052C142.623 28.4805 141.24 27.7842 139.857 27.552C137.091 27.0878 134.325 27.7842 132.481 30.1052C130.175 32.6584 131.328 36.1401 134.786 36.6043C135.477 36.6043 136.399 36.6043 137.321 36.6043ZM120.032 10.376C120.032 10.1439 120.032 9.67969 119.802 9.44758C119.11 7.1265 117.036 5.96595 114.961 6.66228C111.042 8.05493 109.659 15.0182 112.886 17.8035C114.039 18.7319 115.422 18.964 116.575 18.2677C119.11 16.8751 120.724 13.6255 120.032 10.376Z" fill="white"/>
<path d="M80 78C78.7368 78.3333 77.4737 78.6667 76 79" stroke="white" stroke-width="3.46582" stroke-miterlimit="10" stroke-linecap="round"/>
<path d="M66.5781 81.4441C61.4579 82.1432 56.1051 82.3762 51.2177 80.9781C36.0901 76.7839 17.2387 65.8322 17.006 52.5504C16.5405 39.2686 43.5375 38.1036 43.5375 38.1036C43.5375 38.1036 54.2432 37.1715 71 40.8997" stroke="white" stroke-width="3.46582" stroke-miterlimit="10" stroke-linecap="round" stroke-dasharray="9.04 9.04"/>
<path d="M76 42C76.6316 42.1667 77.4737 42.3333 78.1053 42.5C78.7368 42.6667 79.3684 42.8333 80 43" stroke="white" stroke-width="3.46582" stroke-miterlimit="10" stroke-linecap="round"/>
</svg>
