<svg width="17" height="16" viewBox="0 0 17 16" fill="none" xmlns="http://www.w3.org/2000/svg">
<path d="M7.41268 0.776352C7.75493 -0.258784 9.24508 -0.258784 9.58732 0.776353L10.8101 4.47484C10.9632 4.93777 11.4021 5.2512 11.8974 5.2512H15.8545C16.9621 5.2512 17.4225 6.64396 16.5265 7.28371L13.3252 9.56951C12.9245 9.85561 12.7568 10.3627 12.9099 10.8257L14.1327 14.5242C14.4749 15.5593 13.2694 16.4201 12.3734 15.7803L9.172 13.4945C8.7713 13.2084 8.2287 13.2084 7.828 13.4945L4.62664 15.7803C3.73065 16.4201 2.52509 15.5593 2.86733 14.5242L4.09014 10.8257C4.24319 10.3627 4.07552 9.85561 3.67482 9.56951L0.473465 7.28371C-0.422533 6.64396 0.0379493 5.2512 1.14546 5.2512H5.10256C5.59785 5.2512 6.03682 4.93777 6.18987 4.47484L7.41268 0.776352Z" fill="#FFED00"/>
</svg>
