<svg width="28" height="28" viewBox="0 0 28 28" fill="none" xmlns="http://www.w3.org/2000/svg">
<path d="M14 28C21.732 28 28 21.732 28 14C28 6.26801 21.732 0 14 0C6.26801 0 0 6.26801 0 14C0 21.732 6.26801 28 14 28Z" fill="url(#paint0_linear_1980_12717)"/>
<path fill-rule="evenodd" clip-rule="evenodd" d="M6.3372 13.852C10.4185 12.0738 13.14 10.9015 14.5017 10.3352C18.3896 8.71806 19.1975 8.43713 19.724 8.42783C19.8399 8.42581 20.0988 8.45452 20.2665 8.59064C20.5154 8.79254 20.5168 9.23081 20.4892 9.52087C20.2785 11.7346 19.3668 17.1067 18.903 19.5862C18.7067 20.6353 18.3203 20.9871 17.9463 21.0215C17.1333 21.0963 16.5159 20.4842 15.7285 19.968C14.4963 19.1603 13.8002 18.6575 12.6041 17.8694C11.2219 16.9585 12.1179 16.4579 12.9057 15.6397C13.1118 15.4256 16.6939 12.1674 16.7633 11.8718C16.772 11.8348 16.78 11.697 16.6981 11.6243C16.6163 11.5515 16.4955 11.5764 16.4083 11.5962C16.2847 11.6242 14.3163 12.9253 10.503 15.4993C9.94428 15.883 9.4382 16.0699 8.98479 16.0601C8.48489 16.0494 7.52337 15.7775 6.80855 15.5451C5.9318 15.2602 5.23498 15.1094 5.29568 14.6255C5.32729 14.3733 5.67444 14.1155 6.3372 13.852Z" fill="white"/>
<defs>
<linearGradient id="paint0_linear_1980_12717" x1="14" y1="0" x2="14" y2="27.7813" gradientUnits="userSpaceOnUse">
<stop stop-color="#2AABEE"/>
<stop offset="1" stop-color="#229ED9"/>
</linearGradient>
</defs>
</svg>
