<svg width="28" height="28" viewBox="0 0 28 28" fill="none" xmlns="http://www.w3.org/2000/svg">
<rect x="0.259486" y="0.259486" width="27.481" height="27.481" rx="13.7405" fill="white"/>
<rect x="0.259486" y="0.259486" width="27.481" height="27.481" rx="13.7405" stroke="#D9E1EC" stroke-width="0.518973"/>
<path d="M24.5 13.9997C24.5 19.7984 19.7989 24.4995 13.9997 24.4995H13.9801C8.19024 24.4886 3.5 19.7906 3.5 13.9997C3.5 8.20887 8.19024 3.51035 13.9801 3.5H13.9997C19.7989 3.5 24.5 8.19955 24.5 13.9997Z" fill="black"/>
<path d="M13.9801 3.5V24.4995C8.19024 24.4886 3.5 19.7906 3.5 13.9997C3.5 8.20887 8.19024 3.51035 13.9801 3.5Z" fill="#0C0C0C"/>
<path d="M19.7126 11.0915L19.6996 13.2426C19.2805 13.2375 18.8635 13.1815 18.4578 13.076C17.8319 12.9125 17.2415 12.6348 16.7165 12.2568C16.7165 12.4768 16.7196 12.8048 16.7196 13.2038C16.7196 13.7347 16.7196 14.0364 16.7165 14.3567C16.7072 16.3354 16.7563 16.7184 16.5825 17.5008C16.5463 17.6894 16.4969 17.8753 16.4345 18.057C16.1002 18.9884 15.3716 19.7346 14.6291 20.1315C14.4219 20.2417 14.2044 20.3313 13.9797 20.399C12.5763 20.8244 10.8899 20.4508 10.0196 19.4159L10.0139 19.4097L10.0071 19.4009C9.2677 18.5088 9.10625 17.1178 9.09073 16.7618C9.09073 16.7163 9.08762 16.6718 9.08762 16.6718C9.07623 16.1855 9.14619 15.7007 9.29461 15.2374C9.44467 14.7582 9.93884 13.758 11.0488 13.1505C11.741 12.7776 12.5311 12.6264 13.3121 12.7174L13.2868 14.8943C13.2428 14.8829 12.1794 14.6309 11.4814 15.3554C10.849 16.0115 10.8899 17.0687 11.3386 17.6674C11.3624 17.6995 11.3877 17.7305 11.4141 17.7595C11.6651 18.0394 11.9833 18.1445 12.1981 18.218C12.4828 18.3118 12.7817 18.3555 13.0814 18.3473C13.4024 18.3423 13.7147 18.242 13.9786 18.0591C14.7083 17.5634 14.8066 16.6806 14.8102 16.6304C14.8012 13.7885 14.7928 10.9466 14.7848 8.10475V8.10216L16.1525 8.07784H16.1747L16.3729 8.07422C16.5191 8.60014 16.7667 9.09236 17.102 9.5231C17.2076 9.65783 17.3217 9.78573 17.4435 9.90602C17.9038 10.354 18.4566 10.6956 19.0632 10.9068H19.0673C19.2777 10.9837 19.4934 11.0454 19.7126 11.0915Z" fill="#FD2854"/>
<path d="M19.0944 12.0654H19.0902C18.3537 12.1834 17.5998 12.1262 16.8895 11.8983C16.3935 11.737 15.928 11.4941 15.512 11.1795C15.7614 12.6872 15.7614 14.2255 15.512 15.7332C15.2166 17.505 15.0313 18.6154 14.0424 19.3259C14.0217 19.3409 14.0005 19.3559 13.9793 19.3699C12.6137 20.2946 10.7059 19.8356 10.0068 19.4004L9.99644 19.3942L9.97678 19.3818C9.74635 19.2291 9.5302 19.0559 9.33099 18.8643C8.97388 18.5179 8.68892 18.1042 8.49255 17.6471C8.29618 17.1899 8.1923 16.6985 8.18689 16.201C8.1736 15.6857 8.25914 15.1726 8.43889 14.6895C8.55532 14.379 8.98791 13.2747 10.1931 12.6026C10.9648 12.1794 11.8565 12.0285 12.7245 12.1741C12.721 12.3466 12.7178 12.5191 12.7146 12.6916V12.6952L12.6945 13.787C12.3168 13.698 11.9263 13.6763 11.5411 13.7229C11.2306 13.7611 10.9263 13.7969 10.6029 14.0002C10.1887 14.2668 9.89554 14.6852 9.78635 15.1655C9.71725 15.3982 9.70308 15.6437 9.74495 15.8827C9.75737 15.951 9.84845 16.4255 10.2314 16.766C10.3602 16.8804 10.4151 16.885 10.6029 17.0605C10.7685 17.2157 10.8099 17.2902 10.9615 17.4191C10.9615 17.4191 10.9988 17.4506 11.0598 17.4951C11.0637 17.4985 11.0679 17.5016 11.0722 17.5044C11.1557 17.5655 11.2434 17.6207 11.3346 17.6695C11.7139 17.8682 12.3928 17.8894 12.8906 17.6478C13.5793 17.313 13.955 16.543 13.9534 16.0856C13.9452 13.2427 13.9367 10.3999 13.9281 7.55734H13.9757L16.088 7.54492C16.0864 7.70968 16.1093 7.87377 16.1557 8.03185C16.1609 8.04893 16.1661 8.06497 16.1718 8.0836C16.1775 8.10222 16.1811 8.11102 16.1858 8.12396C16.2185 8.20995 16.2564 8.29393 16.2991 8.37544L16.3286 8.43495V8.43961C16.3281 8.44095 16.3281 8.44241 16.3286 8.44375L16.3332 8.45358L16.3379 8.46289C16.3407 8.46891 16.3438 8.47478 16.3472 8.48049C16.3503 8.48721 16.3539 8.49394 16.3576 8.50067C16.3772 8.53844 16.4041 8.58812 16.4347 8.644C16.4538 8.67867 16.474 8.71334 16.4947 8.74749L16.5169 8.78423C16.5278 8.80286 16.5392 8.82149 16.5506 8.8396L16.592 8.90532C16.7529 9.15939 17.0354 9.58733 17.4359 9.91074C17.9989 10.3651 18.6458 10.4934 19.0514 10.5317C19.054 10.659 19.0571 10.7863 19.0597 10.9136C19.0749 11.2979 19.0865 11.6818 19.0944 12.0654Z" fill="#24F6FA"/>
<path d="M19.1011 12.674C18.0349 12.7131 16.988 12.3816 16.1386 11.7358V16.2894C16.1283 16.4638 15.9756 18.3872 14.238 19.4459C14.1521 19.4977 14.0657 19.5458 13.9793 19.5903C12.3446 20.4244 10.7473 19.7709 10.5894 19.7031C10.4325 19.6518 10.2821 19.5823 10.1413 19.4961C10.0973 19.4687 10.0544 19.4402 10.0135 19.4107L9.97676 19.3833C8.91079 18.574 8.86681 16.9254 8.86008 16.6822C8.84869 16.1959 8.91865 15.7111 9.06707 15.2478C9.243 14.6864 9.76822 13.7399 10.8212 13.1609C11.4023 12.8447 12.0553 12.6842 12.7167 12.6952V12.6988C12.7081 13.2456 12.6994 13.7925 12.6908 14.3397C12.5796 14.3096 11.8976 14.1378 11.2311 14.5575C10.8169 14.8241 10.5237 15.2425 10.4145 15.7228C10.3492 15.9559 10.3351 16.2004 10.3731 16.4395C10.4322 16.7347 10.5715 17.0079 10.7757 17.2291C10.8616 17.328 10.9575 17.4177 11.0619 17.4967C11.0658 17.5001 11.0699 17.5032 11.0743 17.506C11.1563 17.5692 11.2441 17.6245 11.3366 17.671L11.3397 17.6736C11.5247 17.9529 11.7914 18.1681 12.1034 18.2898C12.4154 18.4115 12.7574 18.4338 13.0825 18.3536C13.234 18.322 13.3812 18.2723 13.5208 18.2056C13.69 18.1251 13.845 18.0178 13.9798 17.8879C14.5035 17.3844 14.5801 16.6879 14.5837 16.646L14.5609 8.1136L14.7886 8.10894L16.1562 8.08203H16.1759C16.1811 8.09549 16.1868 8.10894 16.1925 8.12239C16.224 8.19846 16.2618 8.2828 16.3058 8.37388L16.3353 8.43339V8.43804C16.3348 8.43938 16.3348 8.44084 16.3353 8.44218L16.3399 8.45201L16.3446 8.46133C16.3474 8.46735 16.3505 8.47322 16.3539 8.47892C16.357 8.48565 16.3606 8.49238 16.3643 8.4991C16.3881 8.54567 16.416 8.5938 16.4414 8.64244C16.4605 8.67711 16.4807 8.71178 16.5014 8.74593L16.5236 8.78267L16.5573 8.83804L16.5987 8.90376C16.8354 9.27396 17.1191 9.61191 17.4426 9.90918C17.9149 10.3415 18.4643 10.681 19.0623 10.9099H19.0664C19.0732 11.2934 19.0799 11.6778 19.0861 12.0613L19.1011 12.674Z" fill="white"/>
<path opacity="0.17" d="M19.7129 11.0921L19.7 13.2432C19.2808 13.238 18.8638 13.1821 18.4581 13.0765C17.8322 12.913 17.2418 12.6353 16.7168 12.2574C16.7168 12.4773 16.7199 12.8054 16.7199 13.2044C16.7199 13.7353 16.7199 14.037 16.7168 14.3573C16.7075 16.336 16.7567 16.7189 16.5828 17.5013C16.5466 17.69 16.4972 17.8759 16.4348 18.0576C16.1005 18.989 15.3719 19.7352 14.6294 20.1321C14.4222 20.2422 14.2047 20.3319 13.98 20.3996V7.55734L16.0922 7.54492C16.0907 7.70968 16.1136 7.87377 16.16 8.03185C16.1652 8.04893 16.1704 8.06497 16.1761 8.0836L16.3743 8.07997C16.5204 8.60589 16.7681 9.09811 17.1034 9.52886C17.209 9.66358 17.3231 9.79148 17.4449 9.91178C18.0079 10.3661 18.6547 10.4944 19.0604 10.5327C19.063 10.66 19.0661 10.7873 19.0687 10.9146C19.2789 10.989 19.4942 11.0483 19.7129 11.0921Z" fill="black"/>
</svg>
