<svg width="156" height="292" viewBox="0 0 156 292" fill="none" xmlns="http://www.w3.org/2000/svg">
<path d="M155.575 67.1959C155.787 74.7448 155.575 81.3368 155.256 85.9087C155.044 88.7794 154.406 91.6501 153.343 94.4145C150.261 102.389 143.035 122.59 142.184 137.794C141.122 156.188 144.416 218.812 144.841 225.936C144.841 226.68 144.841 227.424 144.841 228.168C144.735 234.122 142.397 286.221 105.52 291.537C103.926 291.749 102.332 291.856 100.737 291.749C70.5556 289.623 60.672 226.999 57.6963 174.794C57.6963 174.157 57.5901 173.412 57.4838 172.774C51.3199 126.099 49.3007 107.599 48.5568 100.688C48.3442 98.6674 48.3442 96.541 48.5568 94.5208C50.1509 80.1673 60.2469 8.08052 106.476 0.42529C108.177 0.106322 109.877 0 111.471 0C122.311 0.106323 131.238 4.04026 138.146 11.5892C151.324 25.6238 154.937 49.1211 155.575 67.1959ZM140.909 177.771C140.378 161.61 140.059 145.662 140.484 137.794C141.334 122.271 148.667 101.963 151.749 93.8829C152.706 91.3312 153.343 88.5668 153.556 85.8024C154.3 73.6816 155.469 32.6411 137.296 12.9714C130.707 5.84775 122.205 2.12645 111.896 2.02013C110.302 2.02013 108.708 2.12645 107.22 2.3391C62.3724 9.67536 52.3826 80.6989 50.8948 94.8398C50.6822 96.7536 50.6822 98.6674 50.8948 100.581C51.6387 107.492 53.658 125.992 59.8219 172.562C59.9281 173.306 60.0344 173.944 60.0344 174.688C62.9038 226.148 72.4685 287.815 101.269 289.836C102.757 289.942 104.138 289.836 105.626 289.623C140.909 284.519 143.141 233.804 143.353 228.062C143.353 227.318 143.353 226.68 143.353 225.936C142.822 222.002 141.653 199.568 140.909 177.771Z" fill="#FFED00"/>
<path d="M155.894 80.2734C155.894 80.9114 155.787 81.6556 155.575 82.2936C154.193 86.9717 147.604 95.0523 123.693 106.748C97.3366 120.782 98.9307 130.245 98.9307 130.351L101.588 154.699C102.969 167.564 106.901 180.004 113.171 191.274C123.055 209.136 138.677 242.309 131.026 263.893C128.262 271.867 122.63 277.608 114.234 281.011C113.384 281.33 113.384 281.33 112.215 281.967C106.37 284.732 100.312 284.838 95.3174 281.967C85.859 276.758 79.6951 262.191 77.1445 238.801C74.7002 217.43 73.1061 202.226 71.937 191.062C69.8116 170.86 68.9614 163.311 67.1547 154.487C66.6233 152.041 66.1983 149.171 65.6669 146.087C63.2226 131.415 59.8218 111.213 50.0446 107.598C49.5132 107.386 49.3007 106.854 49.5132 106.429C49.7258 105.897 50.2571 105.685 50.6822 105.897C61.5222 109.937 65.0292 130.67 67.4735 145.768C68.0049 148.852 68.43 151.722 68.9614 154.168C70.768 162.992 71.6182 170.541 73.7437 190.849C74.9127 201.907 76.5069 217.217 78.9512 238.482C81.5018 261.235 87.3468 275.269 96.1676 280.266C102.225 283.669 108.283 281.649 111.365 280.16C112.64 279.522 112.64 279.522 113.49 279.203C121.355 276.013 126.668 270.591 129.219 263.148C136.552 242.309 121.248 209.668 111.471 192.125C105.095 180.642 101.056 167.883 99.6747 154.806L97.0178 130.564C96.9115 130.245 94.8923 119.825 122.736 105.047C146.967 93.2448 152.493 85.4832 153.662 81.9746C153.981 81.2303 154.087 80.2734 153.768 79.5292C153.556 79.1039 153.662 78.5723 154.087 78.2533C154.512 78.0407 155.043 78.147 155.362 78.5723C155.681 79.1039 155.894 79.6355 155.894 80.2734Z" fill="#FFED00"/>
<path d="M156 82.5064C156 82.7191 155.894 82.9317 155.787 83.1443C155.681 83.2507 145.904 95.3714 129.538 91.8628C124.649 90.7996 120.929 86.8656 120.292 81.8685L118.91 71.1299C118.804 70.3856 118.698 69.535 118.591 68.7908C118.06 65.8138 116.572 55.6068 121.78 49.1211C124.543 45.6124 128.687 43.805 134.107 43.486C141.972 43.167 147.817 44.6555 151.43 48.0579C153.449 49.759 154.618 52.2045 154.937 54.8625L156 82.5064ZM119.867 63.262C119.973 64.9632 120.079 66.7707 120.398 68.4718C120.611 69.3224 120.717 70.0667 120.823 70.9172L122.205 81.6558C122.736 85.8024 125.924 89.2047 129.963 90.0553C138.784 91.9691 148.029 88.9921 154.087 82.2938L153.024 54.9688C152.812 52.8424 151.749 50.8223 150.049 49.4401C146.754 46.463 141.44 45.0808 134.107 45.3998C129.219 45.6124 125.605 47.3136 123.161 50.2906C120.186 54.0119 119.654 59.2217 119.867 63.262Z" fill="#FFED00"/>
<path d="M76.7193 89.417C77.1444 100.368 70.1303 105.897 67.7923 106.96C67.4735 107.067 67.1547 107.279 66.7296 107.492C63.2225 109.299 56.7398 112.595 48.9818 99.8366C48.6629 99.4113 48.8755 98.8797 49.3006 98.5607C49.7257 98.2417 50.257 98.4544 50.5759 98.8797C57.4837 110.256 62.4785 107.598 65.8793 105.897C66.3044 105.684 66.7296 105.472 67.0484 105.365C69.599 104.302 78.1009 97.0722 73.6374 82.3997C72.9997 80.2732 71.937 78.3594 70.3428 76.7646C68.6425 74.9571 66.1981 73.8939 63.7538 74.0002C57.9088 74.3192 52.7014 80.4859 52.7014 80.5922C52.3825 81.0175 51.7449 81.0175 51.4261 80.6985C51.001 80.3795 51.0009 79.7416 51.3198 79.4226C51.5323 79.1037 57.0586 72.5117 63.7538 72.1927C66.7295 72.0864 69.7052 73.2559 71.8307 75.4887C73.6374 77.2962 74.9127 79.4226 75.5503 81.8681C76.188 84.2072 76.613 86.8652 76.7193 89.417Z" fill="#FFED00"/>
<path d="M3.23264 217.056C5.03622 215.356 7.29072 214.505 9.88336 214.505C12.476 214.505 14.7305 215.462 16.534 217.162C18.3376 218.863 19.1267 221.095 19.1267 223.646V226.622L27.8064 226.728L27.6937 232.468L0.414551 232.255L0.527281 223.54C0.414558 220.989 1.42906 218.757 3.23264 217.056ZM9.77063 220.138C8.75612 220.138 7.85431 220.457 7.17797 221.095C6.50162 221.733 6.16346 222.583 6.16346 223.646V226.516L13.2651 226.622V223.752C13.2651 222.689 12.9269 221.839 12.2505 221.201C11.6869 220.457 10.7851 220.138 9.77063 220.138Z" fill="white"/>
<path d="M27.919 210.997L0.639893 210.785L0.752623 200.581C0.752623 198.243 1.54167 196.33 3.23252 194.842C4.81065 193.354 6.83969 192.61 9.09416 192.716C12.4759 192.716 14.8431 194.417 16.083 197.818L28.2572 188.784L28.1444 195.692L16.7594 204.195V205.152L28.0317 205.258L27.919 210.997ZM11.4614 205.152V201.432C11.4614 200.581 11.2359 199.837 10.785 199.306C10.3341 198.774 9.65777 198.456 8.8687 198.456C8.07964 198.456 7.40331 198.668 6.95242 199.306C6.50153 199.944 6.27607 200.581 6.27607 201.432V205.152H11.4614Z" fill="white"/>
<path d="M24.6501 166.678C27.3555 169.335 28.7082 172.417 28.7082 176.137C28.7082 179.857 27.2428 182.939 24.4247 185.49C21.6066 188.041 18.3376 189.316 14.3923 189.316C10.447 189.316 7.17797 187.935 4.47261 185.277C1.76724 182.62 0.414551 179.538 0.414551 175.818C0.414551 172.098 1.87998 169.016 4.69807 166.465C7.51616 163.914 10.7851 162.639 14.7305 162.639C18.5631 162.639 21.9448 164.02 24.6501 166.678ZM20.2539 181.345C21.832 179.857 22.7338 178.156 22.7338 176.031C22.7338 173.905 21.9448 172.204 20.3666 170.716C18.7885 169.228 16.8722 168.484 14.6177 168.484C12.3633 168.484 10.4469 169.122 8.86882 170.61C7.29069 172.098 6.38892 173.799 6.38892 175.924C6.38892 178.05 7.17799 179.751 8.75612 181.239C10.3343 182.727 12.2505 183.471 14.505 183.471C16.7595 183.471 18.6758 182.833 20.2539 181.345Z" fill="white"/>
<path d="M28.4827 158.811L1.20361 158.599L1.31634 149.777C1.31634 146.163 2.66903 143.081 5.3744 140.53C8.07977 137.979 11.3487 136.704 15.0686 136.81C18.7885 136.81 22.0575 138.192 24.6501 140.743C27.2427 143.294 28.5954 146.482 28.5954 150.096L28.4827 158.811ZM22.8466 152.966V149.99C22.8466 147.864 22.0575 146.057 20.5921 144.675C19.014 143.294 17.2104 142.55 14.9559 142.55C12.7014 142.55 10.7851 143.187 9.207 144.569C7.62886 145.951 6.83979 147.651 6.83979 149.777V152.753L22.8466 152.966Z" fill="white"/>
<path d="M26.2281 114.916C28.2572 116.935 29.2717 119.486 29.2717 122.568C29.2717 125.651 28.1444 128.201 26.1154 130.221C24.0864 132.134 21.2683 133.091 17.8866 133.091L1.42896 132.984L1.54165 127.245L18.112 127.351C19.6902 127.351 21.0428 126.926 21.9446 126.076C22.9591 125.225 23.4101 124.056 23.4101 122.568C23.4101 121.08 22.9591 119.911 22.0574 119.061C21.1556 118.211 19.8029 117.679 18.2248 117.679L1.65438 117.573L1.76711 111.833L18.2248 111.94C21.4937 111.94 24.1991 112.896 26.2281 114.916Z" fill="white"/>
<path d="M29.6099 94.7221C29.6099 98.6547 28.1445 101.843 25.4391 104.394C22.7337 106.945 19.352 108.22 15.4067 108.114C11.4614 108.114 8.07969 106.732 5.37432 104.182C2.66895 101.631 1.31627 98.3358 1.429 94.5096C1.429 91.6399 2.44351 88.9827 4.24708 86.6445C6.05066 84.3062 8.53057 82.7119 11.4614 82.0742L11.3487 88.345C10.1087 88.8765 9.09418 89.7267 8.41784 90.8959C7.7415 92.065 7.40333 93.2341 7.40333 94.6159C7.40333 96.9541 8.1924 98.761 9.6578 100.249C11.2359 101.631 13.1522 102.375 15.5194 102.375C17.8866 102.375 19.8029 101.737 21.3811 100.355C22.9592 98.9735 23.7483 97.0604 23.7483 94.7221C23.7483 93.3404 23.4101 92.1713 22.7337 91.0022C22.0574 89.833 21.1556 88.9827 19.8029 88.4513L19.9157 82.1805C22.8465 82.9245 25.2137 84.5188 27.0172 86.857C28.7081 89.1953 29.6099 91.8524 29.6099 94.7221Z" fill="white"/>
<path d="M29.2717 78.5663L1.99265 78.3537L2.21807 61.9858L8.07971 62.0921L7.96698 72.6144H12.8141L12.9268 64.2178L18.7885 64.3241L18.6757 72.7206H23.5228L23.6356 62.1984L29.4972 62.3047L29.2717 78.5663Z" fill="white"/>
</svg>
