<svg width="166" height="297" viewBox="0 0 166 297" fill="none" xmlns="http://www.w3.org/2000/svg">
<path d="M107.504 271.163C79.4475 268.186 72.3271 209.602 71.2644 160.906C71.2644 160.268 71.2644 159.63 71.1581 158.992C67.0134 115.506 65.6318 98.1758 65.2067 91.6902C65.1005 89.7764 65.1005 87.8626 65.4193 85.9488C67.3322 72.6584 79.1287 5.88779 122.382 0.252685C123.976 0.0400399 125.571 0.0400391 127.058 0.0400391C137.048 0.571652 145.338 4.50559 151.501 11.7355C167.868 30.661 166.274 66.7043 164.786 81.3769C164.467 84.1413 163.829 86.7993 162.766 89.2448C159.685 96.581 152.245 115.081 150.97 129.222C149.376 146.34 150.439 204.711 150.545 211.303C150.545 212.047 150.545 212.685 150.545 213.43C150.226 218.958 146.4 267.335 111.861 271.056C111.117 271.163 110.267 271.163 109.523 271.163C108.779 271.269 108.142 271.163 107.504 271.163ZM122.595 1.95385C80.6165 7.3763 69.0326 73.0837 67.1197 86.1614C66.9071 87.9689 66.8009 89.7764 66.9071 91.5838C67.3322 98.0695 68.7138 115.4 72.8585 158.886C72.8585 159.524 72.9648 160.268 72.9648 160.906C74.0275 208.858 80.9353 266.591 107.61 269.462C108.992 269.568 110.267 269.568 111.649 269.462C144.7 265.847 148.419 218.746 148.738 213.43C148.738 212.792 148.738 212.154 148.738 211.516C148.632 204.924 147.569 146.446 149.163 129.222C150.439 114.869 157.878 96.0494 161.066 88.7131C162.023 86.374 162.66 83.8223 162.979 81.2706C164.042 70.0004 166.486 31.8305 150.12 12.9051C144.275 6.10043 136.41 2.37914 126.846 1.84753H125.677C124.72 1.7412 123.658 1.84752 122.595 1.95385Z" fill="#FFED00"/>
<path d="M110.692 264.04C113.349 264.04 116.006 263.402 118.344 262.338C119.513 261.807 119.513 261.807 120.257 261.594C128.227 258.617 133.647 253.514 136.517 246.177C144.275 226.401 130.884 195.036 122.17 178.025C116.75 167.286 113.455 155.59 112.605 143.576L110.905 120.929C110.905 120.717 109.736 111.892 134.71 99.6648C157.346 89.5641 163.723 82.3342 165.104 77.975C165.53 76.9117 165.53 75.6359 165.104 74.4663C164.892 74.041 164.361 73.9347 163.935 74.1473C163.51 74.36 163.404 74.8916 163.617 75.3169C163.829 76.0612 163.829 76.9117 163.404 77.656C162.235 80.8457 156.815 87.863 133.966 98.0699C107.504 111.041 109.098 120.717 109.204 121.142L110.798 143.682C111.649 155.909 115.049 167.818 120.576 178.769C129.078 195.462 142.256 226.295 134.816 245.433C132.159 252.238 127.058 257.129 119.619 259.787C118.769 260.106 118.769 260.106 117.6 260.637C114.731 261.913 108.992 263.508 103.465 260.212C95.3886 255.321 90.3937 242.137 88.6933 220.766C87.0992 200.778 86.1427 186.637 85.3988 176.217C84.0172 157.292 83.5921 150.168 82.1043 141.875C81.6792 139.642 81.3604 136.984 81.0416 134.007C79.1286 119.866 76.578 100.409 66.6945 96.3688C66.2694 96.1561 65.7381 96.3688 65.5255 96.9004C65.313 97.3257 65.5255 97.8573 66.0569 98.0699C75.0902 101.791 77.5345 120.61 79.3412 134.326C79.7663 137.197 80.0851 139.961 80.5102 142.194C81.8917 150.381 82.4231 157.398 83.6984 176.323C84.4423 186.743 85.3988 200.884 86.9929 220.873C88.6933 242.775 93.9007 256.491 102.509 261.594C105.166 263.189 107.929 264.04 110.692 264.04Z" fill="#FFED00"/>
<path d="M140.661 85.949C136.198 84.8858 132.797 81.0582 132.372 76.38L131.416 66.3857C131.309 65.6414 131.309 64.8971 131.097 64.2592C130.672 61.4948 129.715 51.9258 134.71 45.9717C137.367 42.782 141.299 41.1872 146.4 41.0809C153.733 40.9745 159.153 42.6757 162.448 45.9717C164.254 47.6729 165.317 49.9056 165.423 52.3511L165.53 78.0812C165.53 78.2938 165.423 78.5064 165.317 78.6128C160.535 83.7163 153.839 86.587 146.825 86.6933C144.806 86.7996 142.681 86.4806 140.661 85.949ZM163.723 52.3511C163.51 50.3309 162.66 48.5235 161.172 47.1413C158.303 44.2706 153.202 42.6757 146.4 42.782C141.83 42.8884 138.43 44.2705 136.092 47.0349C131.628 52.3511 132.478 61.2822 132.903 63.9402C133.01 64.6845 133.116 65.4288 133.222 66.2793L134.179 76.2737C134.604 80.2076 137.367 83.3973 141.193 84.3542C149.376 86.3743 157.984 83.9289 163.935 77.8685L163.723 52.3511Z" fill="#FFED00"/>
<path d="M76.4718 99.9837C78.2784 99.8774 80.0851 99.4521 81.6792 98.4952C81.998 98.2825 82.3168 98.1762 82.6357 98.0699C85.2925 97.0067 94.5384 89.883 90.5 74.8916C89.9686 72.6588 88.7996 70.5323 87.2055 68.8312C85.3988 66.7047 82.6357 65.5352 79.8726 65.5352C73.7087 65.6415 68.2887 71.5955 68.0761 71.9145C67.7573 72.2335 67.7573 72.7651 68.1824 73.0841C68.5012 73.403 69.0326 73.403 69.3514 72.9777C69.3514 72.9777 74.4526 67.3426 79.8726 67.2363C82.2106 67.2363 84.4423 68.1932 85.9302 70.0007C87.3117 71.4892 88.2682 73.2967 88.7996 75.3168C92.5192 89.1388 84.3361 95.5181 81.9981 96.475C81.6792 96.5814 81.2541 96.794 80.9353 96.9003C77.7471 98.3889 72.9647 100.622 66.9071 89.883C66.6946 89.4578 66.1632 89.3514 65.7381 89.5641C65.313 89.7767 65.2067 90.3083 65.4193 90.7336C69.564 98.0699 73.3898 99.9837 76.4718 99.9837Z" fill="#FFED00"/>
<mask id="mask0_2566_14781" style="mask-type:luminance" maskUnits="userSpaceOnUse" x="65" y="0" width="100" height="271">
<path d="M107.61 270.313C100.383 269.568 74.4525 265.209 72.1145 160.907C72.1145 160.269 72.1145 159.631 72.0082 158.993C67.7572 114.656 66.4819 97.5382 66.0569 91.6905C65.9506 89.883 65.9506 87.9692 66.2694 86.1617C68.3949 71.7018 80.085 6.63238 122.488 1.20992C123.976 0.997278 125.57 0.890954 127.058 0.997277C168.824 3.12373 165.636 64.3656 163.935 81.3772C163.617 84.0353 162.979 86.587 161.916 89.0324C158.728 96.475 151.395 115.081 150.12 129.329C148.526 146.34 149.588 203.755 149.695 211.516C149.695 212.154 149.695 212.898 149.695 213.536C149.163 221.936 144.806 266.804 111.861 270.419C110.373 270.419 108.992 270.419 107.61 270.313Z" fill="white"/>
</mask>
<g mask="url(#mask0_2566_14781)">
<path d="M1.65471 269.568C4.09901 178.344 41.8264 92.9665 44.2707 1.74169C44.2707 1.3164 44.4832 0.997436 44.9083 0.891113H195.18C195.605 0.891113 195.818 1.3164 195.818 1.74169C196.88 91.3717 214.416 179.832 215.478 269.568C215.478 269.994 215.266 270.313 214.841 270.419H2.29234C1.86724 270.313 1.65471 269.994 1.65471 269.568ZM194.542 2.59228H45.546C42.7828 93.1792 5.69312 178.131 2.92999 268.824H214.203C212.928 179.619 195.818 91.6907 194.542 2.59228Z" fill="#FFED00"/>
<path d="M44.6958 12.7985H195.286C195.711 12.6923 195.924 12.3734 195.924 11.9483C195.924 11.5232 195.711 11.2044 195.286 11.0981H44.6958C44.2707 11.2044 44.0581 11.5232 44.0581 11.9483C44.0581 12.3734 44.2707 12.7985 44.6958 12.7985Z" fill="#FFED00"/>
<path d="M44.0581 23.1117H195.499C195.924 23.0054 196.137 22.6866 196.137 22.3678C196.137 21.9427 195.924 21.6239 195.499 21.5176H44.1644C43.7393 21.6239 43.5267 21.9427 43.5267 22.3678C43.5267 22.7929 43.7393 23.1117 44.0581 23.1117Z" fill="#FFED00"/>
<path d="M43.208 33.4245H196.03C196.349 33.4245 196.668 33.1057 196.562 32.5743C196.562 32.1492 196.349 31.8304 195.924 31.7241H43.3142C42.8891 31.8304 42.6766 32.1492 42.6766 32.5743C42.5703 33.1057 42.8892 33.4245 43.208 33.4245Z" fill="#FFED00"/>
<path d="M42.0389 43.738H196.562C196.88 43.738 197.199 43.4192 197.093 42.8878C197.093 42.4627 196.774 42.1439 196.455 42.0376H42.2514C41.9326 42.0376 41.6138 42.3564 41.5075 42.8878C41.4013 43.4192 41.7201 43.738 42.0389 43.738Z" fill="#FFED00"/>
<path d="M40.551 54.0515H197.093C197.412 54.0515 197.624 53.7326 197.624 53.2013C197.624 52.7762 197.305 52.4573 196.987 52.3511H40.8698C40.4447 52.4573 40.1259 52.7762 40.1259 53.2013C40.0196 53.7326 40.2322 54.0515 40.551 54.0515Z" fill="#FFED00"/>
<path d="M38.957 64.3649H197.943C198.262 64.3649 198.475 64.0461 198.475 63.5147C198.475 63.0896 198.156 62.7708 197.837 62.6646H39.1695C38.7444 62.7708 38.4256 63.0896 38.4256 63.5147C38.3194 63.9398 38.6382 64.3649 38.957 64.3649Z" fill="#FFED00"/>
<path d="M37.044 74.6779H198.793C199.112 74.6779 199.325 74.3591 199.325 73.8277C199.325 73.4026 199.006 73.0838 198.687 72.9775H37.3629C36.9378 73.0838 36.619 73.4026 36.619 73.8277C36.5127 74.2528 36.7252 74.6779 37.044 74.6779Z" fill="#FFED00"/>
<path d="M35.0248 84.8851H199.75C200.069 84.8851 200.281 84.5663 200.281 84.1412C200.281 83.7161 199.962 83.3973 199.644 83.291H35.3436C34.9185 83.3973 34.5997 83.7161 34.5997 84.1412C34.4934 84.5663 34.7059 84.8851 35.0248 84.8851Z" fill="#FFED00"/>
<path d="M32.8994 95.1984H200.706C201.025 95.1984 201.238 94.8796 201.238 94.3482C201.238 93.9231 200.919 93.6043 200.494 93.498H33.2182C32.7931 93.6043 32.4743 93.9231 32.4743 94.3482C32.368 94.8796 32.5806 95.1984 32.8994 95.1984Z" fill="#FFED00"/>
<path d="M30.6676 105.511H201.769C202.088 105.511 202.3 105.193 202.3 104.661C202.3 104.236 201.982 103.917 201.557 103.811H30.9864C30.5613 103.917 30.2425 104.236 30.1362 104.661C30.0299 105.193 30.2425 105.511 30.6676 105.511Z" fill="#FFED00"/>
<path d="M28.2232 115.825H202.832C203.151 115.825 203.363 115.506 203.363 114.975C203.363 114.55 203.044 114.231 202.619 114.125H28.6483C28.2232 114.231 27.9044 114.55 27.7982 114.975C27.6919 115.506 27.9044 115.825 28.2232 115.825Z" fill="#FFED00"/>
<path d="M25.8851 126.138H204.001C204.32 126.138 204.532 125.819 204.532 125.288C204.532 124.863 204.213 124.544 203.788 124.438H26.204C25.7789 124.544 25.46 124.863 25.3538 125.288C25.3538 125.819 25.46 126.138 25.8851 126.138Z" fill="#FFED00"/>
<path d="M23.4409 136.451H205.17C205.489 136.451 205.807 136.133 205.701 135.601C205.701 135.176 205.382 134.857 204.957 134.751H23.7597C23.3346 134.857 23.0158 135.176 22.9095 135.601C22.8033 136.026 23.0158 136.451 23.4409 136.451Z" fill="#FFED00"/>
<path d="M20.9966 146.765H206.233C206.551 146.765 206.87 146.446 206.764 145.914C206.764 145.489 206.445 145.17 206.02 145.17H21.3154C20.8903 145.277 20.5715 145.596 20.4652 145.914C20.4652 146.339 20.5715 146.765 20.9966 146.765Z" fill="#FFED00"/>
<path d="M18.5523 156.972H207.295C207.614 156.972 207.933 156.653 207.827 156.122C207.827 155.697 207.508 155.378 207.083 155.271H18.9774C18.5523 155.378 18.2335 155.697 18.1273 156.122C18.021 156.653 18.2335 156.972 18.5523 156.972Z" fill="#FFED00"/>
<path d="M16.2142 167.285H208.358C208.677 167.285 208.996 166.966 208.889 166.541C208.889 166.541 208.889 166.541 208.889 166.435C208.889 166.01 208.571 165.691 208.145 165.584H16.5331C16.108 165.691 15.7891 166.01 15.6829 166.435C15.6829 166.966 15.8954 167.285 16.2142 167.285Z" fill="#FFED00"/>
<path d="M13.9824 177.599H209.527C209.846 177.599 210.165 177.28 210.058 176.749C210.058 176.324 209.74 176.005 209.314 175.898H14.3012C13.8761 176.005 13.5573 176.324 13.451 176.749C13.3448 177.28 13.5573 177.599 13.9824 177.599Z" fill="#FFED00"/>
<path d="M11.8569 187.912H210.483C210.802 187.912 211.121 187.487 211.015 187.168C211.015 186.743 210.696 186.424 210.271 186.318H12.1757C11.7506 186.424 11.4318 186.743 11.3255 187.168C11.2193 187.593 11.4318 187.912 11.8569 187.912Z" fill="#FFED00"/>
<path d="M9.83787 198.225H211.334C211.653 198.225 211.971 197.906 211.971 197.481C211.971 197.481 211.971 197.481 211.971 197.375C211.971 196.95 211.653 196.631 211.228 196.524H10.1567C9.7316 196.631 9.41278 196.95 9.3065 197.375C9.20023 197.906 9.41278 198.225 9.83787 198.225Z" fill="#FFED00"/>
<path d="M8.03111 208.538H212.29C212.609 208.538 212.928 208.22 212.928 207.795C212.928 207.795 212.928 207.795 212.928 207.688C212.928 207.263 212.609 206.944 212.184 206.944H8.24365C7.81856 206.944 7.49974 207.369 7.49974 207.688C7.39346 208.113 7.60601 208.538 8.03111 208.538Z" fill="#FFED00"/>
<path d="M6.33079 218.851H212.928C213.353 218.851 213.566 218.426 213.566 218.108C213.566 217.682 213.247 217.364 212.822 217.257H6.64961C6.22452 217.364 5.9057 217.682 5.9057 218.108C5.79942 218.426 6.01197 218.851 6.33079 218.851Z" fill="#FFED00"/>
<path d="M4.94922 229.164H213.566C213.991 229.164 214.203 228.739 214.203 228.421C214.203 227.995 213.884 227.677 213.459 227.57H5.16176C4.73667 227.57 4.41785 227.995 4.41785 228.421C4.41785 228.739 4.52412 229.058 4.94922 229.164Z" fill="#FFED00"/>
<path d="M3.88642 239.372H214.097C214.522 239.372 214.735 238.947 214.735 238.628C214.735 238.203 214.416 237.884 214.097 237.778H3.9927C3.5676 237.884 3.24878 238.203 3.24878 238.628C3.24878 239.053 3.46132 239.372 3.88642 239.372Z" fill="#FFED00"/>
<path d="M3.03629 249.685H214.522C214.947 249.685 215.16 249.26 215.16 248.941C215.16 248.516 214.841 248.197 214.522 248.091H3.14257C2.71747 248.091 2.39865 248.516 2.39865 248.941C2.29238 249.26 2.61119 249.685 3.03629 249.685C2.93001 249.685 2.93001 249.685 3.03629 249.685Z" fill="#FFED00"/>
<path d="M2.50491 259.998H214.841C215.266 259.998 215.478 259.573 215.478 259.254C215.478 258.829 215.266 258.511 214.841 258.404H2.50491C2.07982 258.404 1.86728 258.829 1.86728 259.254C1.761 259.573 2.07982 259.998 2.50491 259.998Z" fill="#FFED00"/>
<path d="M173.925 270.313C174.35 270.313 174.563 269.887 174.563 269.568C172.119 180.257 163.298 91.159 160.854 1.74169C160.854 1.3164 160.641 0.891113 160.322 0.891113C160.003 0.891113 159.897 1.21008 159.897 1.74169C162.341 91.159 170.843 180.151 173.288 269.568C173.288 269.887 173.606 270.206 173.925 270.313Z" fill="#FFED00"/>
<path d="M165.742 270.313C166.167 270.313 166.38 269.887 166.38 269.568C164.148 180.257 157.346 91.159 155.008 1.74169C155.008 1.3164 154.796 0.891113 154.583 0.891113C154.371 0.891113 154.158 1.21008 154.158 1.74169C156.39 91.0527 162.873 180.257 165.104 269.568C165.104 269.887 165.423 270.313 165.742 270.313Z" fill="#FFED00"/>
<path d="M157.665 270.312C157.984 270.312 158.303 269.993 158.303 269.462C156.284 180.15 151.714 90.9458 149.695 1.63476C149.695 1.20947 149.482 0.78418 149.27 0.78418C149.057 0.78418 148.845 1.10315 148.845 1.63476C150.864 90.9458 155.115 180.15 157.028 269.462C156.921 269.887 157.24 270.312 157.665 270.312Z" fill="#FFED00"/>
<path d="M149.482 270.312C149.907 270.312 150.12 269.887 150.12 269.462C148.419 180.15 146.081 90.9458 144.381 1.63476C144.381 1.20947 144.168 0.78418 143.956 0.78418C143.743 0.78418 143.531 1.10315 143.531 1.63476C145.231 90.8395 147.038 180.15 148.845 269.462C148.845 269.993 149.057 270.312 149.482 270.312Z" fill="#FFED00"/>
<path d="M141.299 270.313C141.724 270.313 141.937 269.887 141.937 269.568C140.555 180.364 140.661 91.0527 139.28 1.74169C139.28 1.3164 139.067 0.891113 138.855 0.891113C138.642 0.891113 138.43 1.21008 138.43 1.74169C139.705 90.9464 139.28 180.257 140.555 269.568C140.555 269.887 140.874 270.206 141.299 270.313Z" fill="#FFED00"/>
<path d="M133.116 270.313C133.541 270.313 133.754 269.887 133.754 269.568C132.797 180.257 135.348 91.0527 134.391 1.74169C134.391 1.3164 134.179 0.891113 133.966 0.891113C133.754 0.891113 133.541 1.21008 133.647 1.74169C134.497 91.0527 131.628 180.257 132.478 269.568C132.372 269.887 132.691 270.313 133.116 270.313Z" fill="#FFED00"/>
<path d="M124.933 270.312C125.358 270.312 125.57 269.887 125.57 269.462C125.145 180.15 130.14 90.9458 129.715 1.63476C129.715 1.20947 129.503 0.78418 129.29 0.78418C129.078 0.78418 128.971 1.10315 128.971 1.63476C129.29 90.9458 123.976 180.15 124.295 269.462C124.189 269.887 124.508 270.312 124.933 270.312Z" fill="#FFED00"/>
<path d="M116.75 270.313C117.175 270.313 117.387 269.994 117.387 269.568C117.494 180.257 124.933 91.159 125.039 1.74169C125.039 1.3164 124.827 0.891113 124.72 0.891113C124.614 0.891113 124.401 1.21008 124.401 1.74169C124.189 91.0527 116.325 180.151 116.218 269.568C116.112 269.887 116.325 270.206 116.75 270.313Z" fill="#FFED00"/>
<path d="M108.567 270.312C108.992 270.206 109.204 269.887 109.204 269.462C109.842 180.044 119.832 91.0521 120.363 1.63476C120.363 1.20947 120.257 0.78418 120.044 0.78418C119.832 0.78418 119.725 1.10315 119.725 1.63476C119.088 91.0521 108.673 180.044 107.929 269.462C107.929 269.887 108.141 270.312 108.567 270.312Z" fill="#FFED00"/>
<path d="M100.383 270.312C100.809 270.312 101.021 269.887 101.021 269.462C102.19 180.044 114.624 91.1584 115.793 1.63476C115.793 1.20947 115.687 0.78418 115.474 0.78418C115.262 0.78418 115.156 1.10315 115.156 1.63476C113.987 91.1584 101.021 179.938 99.8521 269.462C99.7458 269.887 99.9584 270.312 100.383 270.312Z" fill="#FFED00"/>
<path d="M92.2003 270.312C92.6254 270.312 92.838 269.887 92.838 269.462C94.5383 179.938 109.417 91.2648 111.117 1.63476C111.117 1.20947 111.011 0.78418 110.798 0.78418C110.586 0.78418 110.479 1.10315 110.373 1.63476C108.673 91.2648 93.2631 179.832 91.5627 269.462C91.5627 269.993 91.8815 270.312 92.2003 270.312Z" fill="#FFED00"/>
<path d="M84.0173 270.312C84.4424 270.312 84.6549 269.887 84.6549 269.462C86.7804 179.725 104.209 91.3711 106.441 1.63476C106.441 1.20947 106.335 0.78418 106.122 0.78418C105.91 0.78418 105.697 1.10315 105.697 1.63476C103.465 91.3711 85.6114 179.725 83.3796 269.462C83.3796 269.993 83.6984 270.312 84.0173 270.312Z" fill="#FFED00"/>
<path d="M75.8341 270.312C76.2592 270.312 76.4718 269.887 76.4718 269.462C79.1286 179.619 98.8957 91.4774 101.553 1.63476C101.553 1.20947 101.446 0.78418 101.234 0.78418C101.021 0.78418 100.809 1.10315 100.809 1.63476C98.1517 91.4774 77.9596 179.619 75.3028 269.462C75.1965 269.887 75.409 270.206 75.8341 270.312Z" fill="#FFED00"/>
<path d="M67.651 270.312C68.0761 270.312 68.2887 269.887 68.2887 269.462C71.2643 179.513 93.4756 91.69 96.4513 1.63476C96.4513 1.20947 96.2388 0.78418 96.0262 0.78418C95.8137 0.78418 95.6011 1.10315 95.6011 1.63476C92.5192 91.5837 69.9891 179.406 66.9071 269.462C67.0134 269.887 67.2259 270.206 67.651 270.312Z" fill="#FFED00"/>
<path d="M59.4678 270.312C59.8929 270.312 60.1055 269.887 60.1055 269.462C63.4 179.406 87.9493 91.7964 91.2438 1.63476C91.2438 1.20947 91.0313 0.78418 90.8187 0.78418C90.6062 0.78418 90.3936 1.10315 90.3936 1.63476C86.9928 91.7964 62.1247 179.3 58.8302 269.462C58.9364 269.887 59.149 270.206 59.4678 270.312Z" fill="#FFED00"/>
<path d="M51.2847 270.312C51.7098 270.312 51.9223 269.887 51.9223 269.462C55.5357 179.194 82.3168 91.9027 85.8238 1.63476C85.8238 1.20947 85.6113 0.78418 85.3987 0.78418C85.1862 0.78418 84.9736 1.10315 84.9736 1.63476C81.3603 92.009 54.3666 179.194 50.7533 269.568C50.647 269.993 50.9659 270.312 51.2847 270.312Z" fill="#FFED00"/>
<path d="M43.1017 270.312C43.5268 270.206 43.7393 269.887 43.7393 269.462C47.4589 179.087 76.2592 92.1153 80.0851 1.63476C80.0851 1.20947 79.8726 0.78418 79.66 0.78418C79.4475 0.78418 79.2349 1.10315 79.1286 1.63476C75.409 92.1153 46.2899 178.981 42.464 269.462C42.464 269.993 42.7829 270.312 43.1017 270.312Z" fill="#FFED00"/>
<path d="M35.0248 270.312C35.4499 270.312 35.6625 269.887 35.6625 269.462C39.4884 178.875 70.3079 92.328 74.0275 1.63476C74.0275 1.20947 73.8149 0.78418 73.6024 0.78418C73.3898 0.78418 73.071 1.10315 73.071 1.63476C69.2451 92.2217 38.1068 178.768 34.3872 269.462C34.2809 269.887 34.5997 270.206 35.0248 270.312C34.9186 270.312 34.9186 270.312 35.0248 270.312Z" fill="#FFED00"/>
<path d="M26.8418 270.312C27.2669 270.312 27.4794 269.887 27.4794 269.462C31.199 178.768 63.9315 92.4343 67.6511 1.63476C67.6511 1.20947 67.4385 0.78418 67.1197 0.78418C66.8009 0.78418 66.5883 1.10315 66.5883 1.63476C62.8687 92.4343 29.9237 178.662 26.2041 269.462C26.0979 269.887 26.3104 270.206 26.8418 270.312C26.7355 270.312 26.7355 270.312 26.8418 270.312Z" fill="#FFED00"/>
</g>
<path d="M66.4821 268.398C60.5308 247.878 55.6422 187.381 64.3566 168.455C69.8829 156.334 88.3746 148.36 102.934 143.895C112.499 140.918 122.807 141.343 132.053 145.17C139.705 148.254 146.825 152.613 152.989 158.036C160.003 164.415 164.148 173.346 164.573 182.702C165.53 204.073 167.124 255.427 161.172 270.631C153.627 290.088 128.015 296.361 113.987 296.999C113.562 296.999 113.137 296.999 112.711 296.999C99.2146 297.106 72.0084 287.536 66.4821 268.398ZM131.309 146.659C122.382 143.044 112.499 142.619 103.359 145.489C91.7754 149.104 71.3707 157.079 65.8445 169.199C57.4488 187.381 62.3374 248.091 68.0762 267.973C73.6025 286.899 101.128 296.042 113.88 295.404C127.484 294.766 152.245 288.706 159.472 270.1C165.211 255.214 163.617 204.073 162.767 182.809C162.341 173.771 158.409 165.372 151.714 159.311C145.763 153.889 138.855 149.636 131.309 146.659Z" fill="#FFED00"/>
<path d="M0.491699 210.194L0.604412 204.774L12.8913 196.59L0.717143 188.087L0.829873 182.667L29.1235 182.985L29.0108 189.044L11.5386 188.831L22.9237 196.696L11.4259 204.455L28.898 204.668L28.7853 210.619L0.491699 210.194Z" fill="white"/>
<path d="M25.6291 155.032C28.4472 157.796 29.9126 160.984 29.7999 164.81C29.7999 168.637 28.3345 171.825 25.4037 174.589C22.4729 177.246 19.0912 178.627 15.0331 178.521C10.9751 178.521 7.59335 177.139 4.66254 174.376C1.84445 171.613 0.379043 168.424 0.491767 164.598C0.491767 160.772 1.95717 157.583 4.88798 154.82C7.81879 152.162 11.2005 150.781 15.2585 150.887C19.3166 150.993 22.811 152.375 25.6291 155.032ZM21.1202 170.337C22.811 168.849 23.7128 167.042 23.7128 164.81C23.7128 162.685 22.9238 160.772 21.2329 159.284C19.5421 157.796 17.6257 156.945 15.2585 156.945C12.8914 156.945 10.9751 157.689 9.28421 159.177C7.59336 160.665 6.69156 162.472 6.69156 164.598C6.69156 166.724 7.48063 168.637 9.17148 170.125C10.8623 171.613 12.7786 172.463 15.1458 172.463C17.4003 172.569 19.4293 171.825 21.1202 170.337Z" fill="white"/>
<path d="M29.5743 146.954L1.28064 146.635L1.39337 137.495C1.39337 133.775 2.85876 130.586 5.67685 127.929C8.49494 125.272 11.8767 123.997 15.7093 123.997C19.6546 123.997 22.9236 125.378 25.7417 128.035C28.447 130.693 29.7997 133.987 29.7997 137.707L29.5743 146.954ZM23.8254 140.896V137.814C23.8254 135.582 23.0363 133.775 21.4582 132.393C19.88 131.011 17.851 130.267 15.5965 130.161C13.2293 130.161 11.313 130.799 9.62218 132.181C8.04405 133.562 7.14226 135.369 7.14226 137.601V140.683L23.8254 140.896Z" fill="white"/>
<path d="M29.7999 120.064L1.50629 119.746L1.73174 102.846L7.81882 102.952L7.70609 113.9H12.7787L12.8914 105.184L18.9785 105.291L18.8657 114.006H23.9383L24.051 103.059L30.1381 103.165L29.7999 120.064Z" fill="white"/>
<path d="M30.0253 98.4889L1.73169 98.17L1.84442 92.218L24.1637 92.4306L24.2764 81.377L30.3635 81.4832L30.0253 98.4889Z" fill="white"/>
</svg>
