<svg width="30" height="30" viewBox="0 0 30 30" fill="none" xmlns="http://www.w3.org/2000/svg">
<rect width="30" height="30" rx="15" fill="#FFED00"/>
<path d="M23.5542 19.4763L21.1768 17.1039C20.3278 16.2566 18.8843 16.5955 18.5447 17.697C18.29 18.4596 17.4409 18.8832 16.6768 18.7137C14.9786 18.2901 12.6861 16.0871 12.2616 14.3078C12.0069 13.5452 12.5163 12.698 13.2805 12.4438C14.3843 12.1049 14.7239 10.6645 13.8748 9.81722L11.4974 7.44482C10.8182 6.85173 9.7993 6.85173 9.20495 7.44482L7.59172 9.05467C5.97849 10.7492 7.76154 15.2398 11.7522 19.2221C15.7428 23.2043 20.2428 25.0684 21.941 23.3738L23.5542 21.7639C24.1486 21.0861 24.1486 20.0694 23.5542 19.4763Z" fill="#1D1D1B"/>
</svg>
