<svg width="157" height="306" viewBox="0 0 157 306" fill="none" xmlns="http://www.w3.org/2000/svg">
<path d="M156.576 73.6447C156.788 81.179 156.576 87.7584 156.258 92.3214C156.046 95.1866 155.41 98.0518 154.35 100.811C151.275 108.77 144.066 128.932 143.218 144.107C142.158 162.465 145.445 224.969 145.869 232.079C145.869 232.822 145.869 233.564 145.869 234.307C145.763 240.25 143.43 292.248 106.644 297.554C105.054 297.766 103.464 297.872 101.873 297.766C71.7658 295.643 61.9066 233.14 58.9383 181.036C58.9383 180.399 58.8323 179.657 58.7263 179.02C52.5775 132.434 50.5633 113.969 49.8212 107.072C49.6092 105.056 49.6092 102.933 49.8212 100.917C51.4114 86.5911 61.4826 14.6431 107.598 7.0026C109.294 6.68424 110.99 6.57812 112.581 6.57812C123.394 6.68424 132.299 10.6106 139.19 18.145C152.335 32.1525 155.94 55.6046 156.576 73.6447ZM141.946 184.007C141.416 167.877 141.098 151.96 141.522 144.107C142.37 128.614 149.685 108.345 152.76 100.28C153.714 97.7335 154.35 94.9744 154.562 92.2153C155.304 80.1179 156.47 39.1563 138.342 19.5245C131.769 12.4146 123.288 8.70048 113.005 8.59437C111.415 8.59437 109.824 8.70048 108.34 8.91272C63.6028 16.2349 53.6377 87.1217 52.1535 101.235C51.9415 103.145 51.9415 105.056 52.1535 106.966C52.8956 113.863 54.9098 132.328 61.0586 178.808C61.1646 179.55 61.2705 180.187 61.2705 180.93C64.1329 232.291 73.6741 293.839 102.403 295.856C103.888 295.962 105.266 295.856 106.75 295.643C141.946 290.55 144.172 239.932 144.384 234.201C144.384 233.458 144.384 232.822 144.384 232.079C143.854 228.152 142.688 205.762 141.946 184.007Z" fill="#FFED00"/>
<path d="M156.894 86.6966C156.894 87.3333 156.788 88.0761 156.576 88.7128C155.198 93.382 148.625 101.447 124.772 113.12C98.4811 127.128 100.071 136.572 100.071 136.678L102.722 160.979C104.1 173.819 108.022 186.235 114.277 197.484C124.136 215.312 139.72 248.42 132.087 269.962C129.331 277.921 123.712 283.652 115.337 287.047C114.489 287.366 114.489 287.366 113.323 288.002C107.492 290.761 101.449 290.868 96.4668 288.002C87.0317 282.803 80.883 268.264 78.3387 244.918C75.9004 223.589 74.3102 208.414 73.144 197.271C71.0238 177.109 70.1757 169.575 68.3735 160.767C67.8434 158.326 67.4194 155.461 66.8893 152.384C64.451 137.739 61.0586 117.577 51.3055 113.969C50.7754 113.757 50.5634 113.226 50.7754 112.802C50.9874 112.271 51.5175 112.059 51.9415 112.271C62.7548 116.303 66.2532 136.996 68.6915 152.065C69.2216 155.143 69.6456 158.008 70.1757 160.449C71.9779 169.256 72.826 176.791 74.9463 197.059C76.1124 208.096 77.7026 223.377 80.1409 244.6C82.6852 267.309 88.5159 281.317 97.3149 286.304C103.358 289.7 109.4 287.684 112.475 286.198C113.747 285.562 113.747 285.562 114.595 285.243C122.44 282.06 127.741 276.648 130.285 269.219C137.6 248.42 122.334 215.842 112.581 198.333C106.22 186.872 102.192 174.138 100.813 161.085L98.1631 136.89C98.0571 136.572 96.0428 126.172 123.818 111.422C147.989 99.643 153.502 91.8964 154.668 88.3945C154.986 87.6516 155.092 86.6966 154.774 85.9538C154.562 85.5293 154.668 84.9987 155.092 84.6803C155.516 84.4681 156.046 84.5742 156.364 84.9987C156.682 85.5293 156.894 86.0599 156.894 86.6966Z" fill="#FFED00"/>
<path d="M157 88.9249C157 89.1371 156.894 89.3493 156.788 89.5616C156.682 89.6677 146.929 101.765 130.603 98.2632C125.726 97.2021 122.016 93.2757 121.38 88.2881L120.002 77.5702C119.896 76.8274 119.79 75.9785 119.684 75.2356C119.153 72.2643 117.669 62.077 122.864 55.6038C125.62 52.1019 129.755 50.2979 135.161 49.9796C143.006 49.6612 148.837 51.1469 152.441 54.5426C154.456 56.2405 155.622 58.6812 155.94 61.3342L157 88.9249ZM120.956 69.7175C121.062 71.4154 121.168 73.2194 121.486 74.9173C121.698 75.7662 121.804 76.5091 121.91 77.358L123.288 88.0759C123.818 92.2145 126.998 95.6103 131.027 96.4592C139.826 98.3694 149.049 95.398 155.092 88.7126L154.032 61.4403C153.82 59.3179 152.759 57.3017 151.063 55.9222C147.777 52.9509 142.476 51.5713 135.161 51.8897C130.285 52.1019 126.68 53.7998 124.242 56.7711C121.274 60.4852 120.744 65.685 120.956 69.7175Z" fill="#FFED00"/>
<path d="M77.9145 95.8228C78.3386 106.753 71.3418 112.271 69.0095 113.332C68.6915 113.438 68.3734 113.651 67.9494 113.863C64.4509 115.667 57.9842 118.956 50.2452 106.222C49.9272 105.798 50.1392 105.267 50.5633 104.949C50.9873 104.631 51.5174 104.843 51.8354 105.267C58.7262 116.622 63.7088 113.969 67.1012 112.271C67.5253 112.059 67.9493 111.847 68.2674 111.74C70.8117 110.679 79.2927 103.463 74.8402 88.819C74.2041 86.6966 73.1439 84.7865 71.5538 83.1947C69.8575 81.3907 67.4192 80.3295 64.981 80.4357C59.1503 80.754 53.9557 86.9088 53.9557 87.015C53.6376 87.4394 53.0016 87.4394 52.6835 87.1211C52.2595 86.8027 52.2595 86.166 52.5775 85.8477C52.7895 85.5293 58.3022 78.95 64.981 78.6316C67.9493 78.5255 70.9177 79.6928 73.038 81.9213C74.8402 83.7253 76.1123 85.8477 76.7484 88.2884C77.3845 90.623 77.8085 93.2759 77.9145 95.8228Z" fill="#FFED00"/>
<path d="M26.2864 305.41L0.631287 305.198L0.737306 295.541C0.737306 293.419 1.4794 291.615 2.96358 290.129C4.44775 288.644 6.24998 287.901 8.37023 287.901C10.0664 287.901 11.5506 288.538 12.7167 289.811C13.3528 288.75 14.0949 287.795 15.155 287.158C16.2152 286.521 17.3813 286.203 18.7595 286.203C20.8797 286.203 22.6819 286.946 24.0601 288.538C25.5443 290.023 26.1803 291.933 26.1803 294.162L26.2864 305.41ZM11.0205 299.468V296.178C11.0205 295.435 10.8085 294.799 10.2784 294.268C9.74838 293.737 9.2183 293.525 8.47622 293.525C7.73413 293.525 7.09807 293.737 6.67402 294.268C6.14396 294.799 5.93192 295.435 5.93192 296.178V299.468H11.0205ZM20.9857 299.574V294.48C20.9857 293.737 20.7737 293.101 20.2436 292.57C19.7136 292.04 19.1835 291.827 18.4414 291.827C17.6993 291.827 17.0633 292.04 16.6392 292.57C16.1091 293.101 15.8971 293.737 15.8971 294.48V299.468L20.9857 299.574Z" fill="white"/>
<path d="M26.498 277.394V282.382L0.842987 282.17L0.949006 276.333L16.8509 276.545L1.05499 263.917V258.93L26.7101 259.142L26.604 264.872L10.7022 264.66L26.498 277.394Z" fill="white"/>
<path d="M1.2674 238.023L6.78007 238.13L6.67405 247.68L26.8165 247.892L26.7104 253.729L1.05536 253.517L1.2674 238.023Z" fill="white"/>
<path d="M23.6359 214.466C26.1802 217.119 27.4524 220.196 27.4524 223.911C27.4524 227.625 26.0742 230.702 23.4239 233.249C20.7736 235.796 17.6992 237.069 13.9888 237.069C10.2783 237.069 7.20397 235.69 4.65966 233.037C2.11536 230.384 0.843201 227.306 0.843201 223.592C0.843201 219.878 2.22135 216.801 4.87167 214.254C7.52198 211.707 10.5963 210.434 14.3068 210.434C18.0172 210.54 21.0916 211.813 23.6359 214.466ZM19.6074 229.11C21.0916 227.625 21.9397 225.927 21.9397 223.804C21.9397 221.682 21.1976 219.984 19.7134 218.499C18.2293 217.013 16.427 216.27 14.3068 216.27C12.1865 216.27 10.3843 216.907 8.90017 218.392C7.41599 219.878 6.56788 221.576 6.56788 223.698C6.56788 225.821 7.30997 227.519 8.79415 229.004C10.2783 230.49 12.0805 231.233 14.2008 231.233C16.215 231.339 18.0172 230.596 19.6074 229.11Z" fill="white"/>
<path d="M27.2403 204.066L7.09788 203.854L6.99186 210.433L1.47922 210.327L1.69122 191.332L7.20389 191.438L7.09788 198.017L27.2403 198.23V204.066Z" fill="white"/>
<path d="M24.1661 166.712C26.7104 169.365 27.9826 172.443 27.9826 176.157C27.9826 179.871 26.6044 182.948 23.9541 185.495C21.3038 188.042 18.2294 189.315 14.519 189.315C10.8085 189.315 7.73418 187.936 5.18987 185.283C2.64557 182.63 1.37341 179.552 1.37341 175.838C1.37341 172.124 2.75156 169.047 5.40188 166.5C8.0522 163.953 11.1266 162.68 14.837 162.68C18.4414 162.786 21.6218 164.165 24.1661 166.712ZM20.0316 181.356C21.5158 179.871 22.3639 178.173 22.3639 176.051C22.3639 173.928 21.6218 172.23 20.1376 170.745C18.6535 169.259 16.8513 168.516 14.731 168.516C12.6108 168.516 10.8085 169.153 9.32436 170.639C7.84018 172.124 6.99207 173.822 6.99207 175.944C6.99207 178.067 7.73417 179.765 9.21834 181.25C10.7025 182.736 12.5047 183.479 14.625 183.479C16.7452 183.585 18.5475 182.842 20.0316 181.356Z" fill="white"/>
<path d="M27.6644 158.86L2.00937 158.647L2.11536 148.991C2.11536 146.868 2.85745 145.064 4.34163 143.579C5.8258 142.093 7.62803 141.35 9.74828 141.35C11.4445 141.35 12.9287 141.987 14.0948 143.26C14.7309 142.199 15.473 141.244 16.5331 140.607C17.5932 139.971 18.7593 139.652 20.1375 139.652C22.2578 139.652 24.06 140.395 25.4381 141.987C26.9223 143.473 27.5584 145.383 27.5584 147.611L27.6644 158.86ZM12.5046 152.917V149.627C12.5046 148.885 12.2926 148.248 11.7625 147.717C11.2324 147.187 10.7024 146.974 9.96032 146.974C9.21823 146.974 8.58214 147.187 8.15809 147.717C7.62803 148.248 7.41599 148.885 7.41599 149.627V152.917H12.5046ZM22.4698 153.023V147.93C22.4698 147.187 22.2578 146.55 21.7277 146.019C21.1976 145.489 20.6676 145.277 19.9255 145.277C19.1834 145.277 18.5473 145.489 18.1233 146.019C17.5932 146.55 17.3812 147.187 17.3812 147.93V152.917L22.4698 153.023Z" fill="white"/>
<path d="M18.5474 133.603L2.32745 133.39L2.53949 114.289L28.1945 114.501L28.0885 120.338L7.94611 120.126L7.84012 127.66L19.2895 127.766C22.2578 127.766 24.4841 128.509 26.0743 129.888C27.6645 131.268 28.4066 133.178 28.4066 135.619C28.3006 136.786 28.3005 137.635 28.1945 138.166L22.8939 138.059C22.9999 137.741 22.9999 137.104 22.9999 136.362C22.9999 135.407 22.6819 134.664 22.0458 134.239C21.4097 133.815 20.2436 133.603 18.5474 133.603Z" fill="white"/>
<path d="M28.3007 96.7792L19.8197 96.6731V98.1587L28.1947 105.799L28.0887 112.697L18.4416 104.101C17.6995 105.481 16.7453 106.648 15.3672 107.497C14.095 108.346 12.6109 108.771 11.0207 108.664C8.47637 108.664 6.46211 107.815 4.87192 106.224C3.28173 104.632 2.43365 102.51 2.53966 99.8566L2.64565 90.7305L28.3007 90.9427V96.7792ZM8.7944 102.085C9.43048 102.722 10.1726 103.04 11.2327 103.04C12.2928 103.04 13.0349 102.722 13.671 102.191C14.3071 101.555 14.6251 100.812 14.6251 99.8566V96.567L7.94628 96.4608V99.7505C7.84027 100.706 8.15833 101.554 8.7944 102.085Z" fill="white"/>
<path d="M28.9367 73.4327C28.9367 77.3591 27.5585 80.5426 25.0142 83.0895C22.4699 85.6363 19.2896 86.9097 15.5791 86.8036C11.8687 86.8036 8.6883 85.424 6.14399 82.8772C3.59969 80.3304 2.32754 77.0407 2.43355 73.2205C2.43355 70.3553 3.38767 67.7023 5.08387 65.3678C6.78007 63.0332 9.11234 61.4414 11.8687 60.8047L11.7627 67.0656C10.5965 67.5962 9.64239 68.4452 9.00632 69.6125C8.37024 70.7798 8.05221 71.9471 8.05221 73.3266C8.05221 75.1306 8.47628 76.7224 9.43039 77.9958C10.3845 79.2692 11.6567 80.2243 13.1408 80.6487L13.2468 70.2492H18.3354L18.2294 80.6487C19.8196 80.1182 21.0918 79.2692 22.0459 77.9958C23 76.7224 23.4241 75.1306 23.5301 73.3266C23.5301 71.9471 23.212 70.7798 22.576 69.6125C21.9399 68.4452 21.0918 67.5962 19.8196 67.0656L19.9256 60.8047C22.682 61.5475 24.9082 63.1393 26.6044 65.4739C28.1946 67.9146 29.0427 70.5675 28.9367 73.4327Z" fill="white"/>
<path d="M3.06958 57.0913V51.8916L14.2009 44.0388L3.17557 35.8677V30.668L28.8306 30.8802L28.7246 36.7167L12.9287 36.6106L23.212 44.2511L12.7167 51.6793L28.5126 51.7854L28.4066 57.5158L3.06958 57.0913Z" fill="white"/>
<path d="M25.7563 4.03248C28.3006 6.68543 29.5728 9.76285 29.5728 13.477C29.5728 17.1911 28.1946 20.2685 25.5443 22.8154C22.894 25.3622 19.8196 26.6356 16.1092 26.6356C12.3987 26.6356 9.32436 25.2561 6.78005 22.6031C4.23575 19.9502 2.96359 16.8728 2.96359 13.1586C2.96359 9.4445 4.34174 6.36708 6.99206 3.82025C9.64238 1.27342 12.7167 0 16.4272 0C20.1376 0.106118 23.212 1.48565 25.7563 4.03248ZM21.7278 18.7829C23.212 17.2972 24.0601 15.5993 24.0601 13.477C24.0601 11.3546 23.318 9.65673 21.8338 8.17108C20.3497 6.68543 18.5474 5.94261 16.4272 5.94261C14.3069 5.94261 12.5047 6.57931 11.0206 8.06496C9.53638 9.55062 8.68827 11.2485 8.68827 13.3709C8.68827 15.4932 9.43036 17.1911 10.9145 18.6768C12.3987 20.1624 14.2009 20.9052 16.3212 20.9052C18.3354 20.9052 20.1376 20.1624 21.7278 18.7829Z" fill="white"/>
</svg>
