<svg width="30" height="30" viewBox="0 0 30 30" fill="none" xmlns="http://www.w3.org/2000/svg">
<path d="M15 30C23.2843 30 30 23.2843 30 15C30 6.71573 23.2843 0 15 0C6.71573 0 0 6.71573 0 15C0 23.2843 6.71573 30 15 30Z" fill="#FFED00"/>
<path fill-rule="evenodd" clip-rule="evenodd" d="M15 6C18.8661 6 22 9.23887 22 13.2344C22 17.2297 15 25 15 25C15 25 8 17.2297 8 13.2344C8 9.23887 11.1339 6 15 6ZM15 10.36C16.4658 10.36 17.6544 11.5885 17.6544 13.1035C17.6544 14.6183 16.4658 15.8468 15 15.8468C13.5342 15.8468 12.3456 14.6183 12.3456 13.1035C12.3456 11.5885 13.5342 10.36 15 10.36Z" fill="#1D1D1B"/>
</svg>
