<svg width="72" height="34" viewBox="0 0 72 34" fill="none" xmlns="http://www.w3.org/2000/svg">
<rect width="72" height="34" rx="7" fill="white"/>
<path d="M33.5015 8.1875H27.5879V23.7943H30.0358V18.4628H33.4248C36.5189 18.4628 38.6935 16.3646 38.6935 13.3138C38.6935 10.2751 36.5634 8.1875 33.5015 8.1875ZM32.8458 16.4285H30.0358V10.2311H32.8566C34.9772 10.2311 36.1904 11.3568 36.1904 13.3245C36.1904 15.2935 34.9772 16.4285 32.8458 16.4285Z" fill="#1D1D1B"/>
<path d="M44.5367 12.2109C41.6943 12.2109 39.9237 13.7257 39.7931 15.7799H42.0229C42.2302 14.7635 43.0825 14.1147 44.4492 14.1147C45.8926 14.1147 46.7557 14.8714 46.7557 16.137V17.0135L43.6076 17.1974C40.8743 17.3493 39.334 18.5709 39.334 20.5612C39.334 22.6048 40.908 23.9903 43.1593 23.9903C44.6686 23.9903 46.1228 23.1897 46.7893 21.9241H46.8432V23.7945H49.1066V15.9531C49.1066 13.671 47.3252 12.2109 44.5367 12.2109ZM46.7557 19.5341C46.7557 21.0155 45.4658 22.1399 43.815 22.1399C42.548 22.1399 41.7172 21.4911 41.7172 20.4959C41.7172 19.5234 42.5143 18.9066 43.9241 18.8094L46.7557 18.6362V19.5341Z" fill="#1D1D1B"/>
<path d="M58.5255 12.418L55.6171 21.6768H55.574L52.6657 12.418H50.1074L54.2612 23.8084C54.2612 23.819 54.0539 24.4891 54.0539 24.5104C53.693 25.6788 53.1033 26.1331 52.01 26.1331C51.812 26.1331 51.4189 26.1331 51.2452 26.0904V27.9835C51.4189 28.0155 52.01 28.0368 52.2065 28.0368C54.5898 28.0368 55.7262 27.1495 56.7104 24.3919L61.0178 12.418H58.5255Z" fill="#1D1D1B"/>
<path d="M20.365 9.71238C19.7537 10.4224 18.7856 10.9846 17.8148 10.902C17.6896 9.94152 18.1743 8.91971 18.7224 8.29491C19.3323 7.56352 20.3866 7.04263 21.251 7C21.356 8.00182 20.9561 8.98233 20.365 9.71238Z" fill="#1D1D1B"/>
<path d="M24.8144 19.4339C24.7928 19.4965 24.4576 20.6409 23.6376 21.8266C22.9226 22.867 22.1874 23.8862 21.0106 23.9075C19.8756 23.9288 19.4972 23.2414 18.1939 23.2414C16.8905 23.2414 16.4704 23.8862 15.3986 23.9288C14.2635 23.9701 13.4032 22.8244 12.6882 21.7853C11.2165 19.683 10.103 15.8556 11.6164 13.2751C12.3516 11.9855 13.6967 11.1742 15.1468 11.1529C16.2603 11.1329 17.2904 11.8816 17.9636 11.8816C18.6355 11.8816 19.8325 11.0077 21.2409 11.0916C21.7875 11.1329 23.3643 11.2994 24.3727 12.7755C24.2893 12.8395 22.5025 13.8586 22.5241 16.0008C22.5443 18.56 24.7928 19.4126 24.8144 19.4339Z" fill="#1D1D1B"/>
</svg>
