<svg width="79" height="57" viewBox="0 0 79 57" fill="none" xmlns="http://www.w3.org/2000/svg">
<path d="M39.5 52C26.575 52 16 41.425 16 28.5C16 15.575 26.575 5 39.5 5C52.425 5 63 15.575 63 28.5C63 41.425 52.425 52 39.5 52ZM39.5 7.82C27.985 7.82 18.82 17.22 18.82 28.5C18.82 39.78 28.22 49.18 39.5 49.18C51.015 49.18 60.18 39.78 60.18 28.5C60.18 17.22 51.015 7.82 39.5 7.82Z" fill="white"/>
<path fill-rule="evenodd" clip-rule="evenodd" d="M39.5 29.2066L0.705364 57L0 56.0578L38.5595 28.5L0 0.942148L0.705364 0L39.5 27.7934L78.2947 0L79 0.942148L40.4405 28.5L79 56.0578L78.2947 57L39.5 29.2066Z" fill="white"/>
</svg>
