<svg width="79" height="57" viewBox="0 0 79 57" fill="none" xmlns="http://www.w3.org/2000/svg">
<path d="M74 39H53.2222L48.7361 34.5294L44.25 39H31.2639L24.6528 34.0588V39H6V19H28.9028L33.1528 22.7647L36.9306 19H53.4583V23.4706L60.0695 19H73.7639V39H74ZM54.1667 36.4118H71.1667V21.5882H61.0139L50.8611 28.4118V21.5882H37.875L33.1528 26.2941L27.7222 21.5882H8.59724V36.4118H22.0556V28.8824L32.2083 36.4118H43.0695L48.5 31L54.1667 36.4118Z" fill="white"/>
<path fill-rule="evenodd" clip-rule="evenodd" d="M39.5 29.2066L0.705364 57L0 56.0578L38.5595 28.5L0 0.942148L0.705364 0L39.5 27.7934L78.2946 0L79 0.942148L40.4405 28.5L79 56.0578L78.2946 57L39.5 29.2066Z" fill="white"/>
</svg>
