<svg width="13" height="13" viewBox="0 0 13 13" fill="none" xmlns="http://www.w3.org/2000/svg">
<path d="M8.66143 6.47549L12.5585 2.57804C12.8115 2.29073 12.9455 1.91795 12.9333 1.53547C12.9211 1.15298 12.7635 0.789499 12.4927 0.518903C12.2218 0.248308 11.858 0.090907 11.4752 0.0786952C11.0923 0.0664835 10.7192 0.200377 10.4316 0.45316L6.53056 4.3466L2.62246 0.441116C2.48248 0.301265 2.3163 0.190329 2.13341 0.114642C1.95052 0.0389555 1.75449 1.47357e-09 1.55653 0C1.35857 -1.47357e-09 1.16254 0.0389555 0.979649 0.114642C0.796755 0.190329 0.630573 0.301265 0.490593 0.441116C0.350612 0.580967 0.239574 0.746994 0.163817 0.929718C0.0880595 1.11244 0.0490679 1.30828 0.0490679 1.50606C0.0490679 1.70384 0.0880595 1.89969 0.163817 2.08241C0.239574 2.26513 0.350612 2.43116 0.490593 2.57101L4.39969 6.47549L0.502649 10.3719C0.349814 10.5084 0.22646 10.6746 0.140133 10.8604C0.0538074 11.0462 0.00632469 11.2476 0.000589848 11.4523C-0.00514499 11.657 0.0309887 11.8608 0.106781 12.0511C0.182573 12.2414 0.296429 12.4142 0.441384 12.559C0.586339 12.7038 0.759344 12.8176 0.949815 12.8933C1.14029 12.969 1.34422 13.0051 1.54914 12.9994C1.75405 12.9937 1.95565 12.9462 2.14158 12.86C2.32751 12.7738 2.49388 12.6505 2.6305 12.4978L6.53056 8.60438L10.4266 12.4978C10.7093 12.7803 11.0927 12.9389 11.4925 12.9389C11.8923 12.9389 12.2758 12.7803 12.5585 12.4978C12.8412 12.2154 13 11.8323 13 11.4329C13 11.0334 12.8412 10.6504 12.5585 10.3679L8.66143 6.47549Z" fill="#939393"/>
</svg>
