<svg width="41" height="72" viewBox="0 0 41 72" fill="none" xmlns="http://www.w3.org/2000/svg">
<path d="M29.0898 28.5106C26.9299 28.9745 24.5072 26.2894 23.6786 22.5132C22.85 18.7371 23.9293 15.2998 26.0892 14.836C28.2491 14.3721 30.6717 17.0573 31.5003 20.8334C32.3289 24.6096 31.2497 28.0468 29.0898 28.5106Z" fill="#FFED00"/>
<path d="M2.37002 20.2072C1.6938 19.3338 1.68412 18.2246 2.3484 17.7296C3.01268 17.2346 4.09937 17.5413 4.77559 18.4147C5.45181 19.2881 5.46149 20.3974 4.79721 20.8924C4.13293 21.3874 3.04624 21.0806 2.37002 20.2072Z" stroke="white" stroke-width="2" stroke-miterlimit="10"/>
<path d="M6.23694 13.945C5.64121 12.399 6.20691 10.7543 7.50047 10.2715C8.79403 9.78872 10.3256 10.6507 10.9213 12.1967C11.5171 13.7428 10.9514 15.3875 9.65781 15.8702C8.36425 16.353 6.83268 15.4911 6.23694 13.945Z" stroke="white" stroke-width="2" stroke-miterlimit="10"/>
<path d="M13.6136 9.72464C13.3733 8.08531 14.2868 6.60038 15.6541 6.40796C17.0213 6.21554 18.3245 7.38849 18.5648 9.02782C18.8052 10.6672 17.8916 12.1521 16.5244 12.3445C15.1572 12.5369 13.854 11.364 13.6136 9.72464Z" stroke="white" stroke-width="2" stroke-miterlimit="10"/>
<path d="M21.7203 7.91654C21.5567 5.99049 22.5396 4.3378 23.9157 4.22517C25.2918 4.11254 26.54 5.5826 26.7037 7.50866C26.8673 9.43472 25.8844 11.0874 24.5083 11.2C23.1322 11.3127 21.884 9.8426 21.7203 7.91654Z" stroke="white" stroke-width="2" stroke-miterlimit="10"/>
<path d="M33.156 12.3731C31.2442 12.0881 30.0037 9.86615 30.3854 7.41035C30.7671 4.95456 32.6264 3.19484 34.5383 3.47992C36.4501 3.76499 37.6906 5.98691 37.3089 8.4427C36.9272 10.8985 35.0679 12.6582 33.156 12.3731Z" stroke="white" stroke-width="2" stroke-miterlimit="10"/>
<path d="M30.7043 17.1282C33.7564 20.5326 30.7891 28.919 28.2456 38.4679C27.4826 41.2911 27.313 44.2803 27.8217 47.1035C29.3478 55.822 29.5173 57.2336 29.5173 57.2336C29.5173 57.2336 31.0434 66.8655 23.1587 69.5226C23.0739 69.5226 22.9891 69.6056 22.9043 69.6056C18.3261 71.1003 13.3239 68.1941 12.5609 63.4611C11.9674 60.2228 11.713 54.9917 13.1543 48.0168C13.4935 46.4392 13.3239 43.9482 12.9 42.4536C10.8652 35.3127 9.76304 30.9949 9.25435 28.5039C8.74565 26.0959 9 23.6049 10.0174 21.363C12.5609 15.9658 24.6 10.3195 30.7043 17.1282Z" stroke="white" stroke-width="2" stroke-miterlimit="10"/>
</svg>
