<svg width="56" height="52" viewBox="0 0 56 52" fill="none" xmlns="http://www.w3.org/2000/svg">
<path d="M40 16H48.0311C49.6144 16.0007 51.1326 16.6497 52.2519 17.8041C53.3712 18.9586 54 20.524 54 22.1563V35.8437C54 36.6522 53.8455 37.4527 53.5454 38.1996C53.2453 38.9465 52.8055 39.6252 52.251 40.1969C51.6965 40.7685 51.0382 41.222 50.3136 41.5314C49.5891 41.8408 48.8126 42 48.0284 42H40" stroke="white" stroke-width="2.59048" stroke-linecap="round" stroke-linejoin="round"/>
<path d="M40 29H53" stroke="white" stroke-width="2.59048" stroke-linecap="round" stroke-linejoin="round"/>
<path d="M40 23H54" stroke="white" stroke-width="2.59048" stroke-linecap="round" stroke-linejoin="round"/>
<path d="M6.9317 2H25.788C28.4964 2 31.0939 3.08625 33.009 5.01979C34.9241 6.95334 36 9.57578 36 12.3102V45.0209C36 46.3414 35.4804 47.6079 34.5555 48.5416C33.6307 49.4754 32.3763 50 31.0683 50H6.9317C5.62373 50 4.36933 49.4754 3.44446 48.5416C2.51959 47.6079 2 46.3414 2 45.0209V6.97914C2 5.65859 2.51959 4.39213 3.44446 3.45836C4.36933 2.52459 5.62373 2 6.9317 2Z" stroke="white" stroke-width="2.59048" stroke-linecap="round" stroke-linejoin="round"/>
<path d="M34.8765 11H35H26V2.14054L26.0328 2" stroke="white" stroke-width="2.59048" stroke-linecap="round" stroke-linejoin="round"/>
<path d="M6.56036 30.1046V23.0149C6.56036 22.7144 6.64766 22.4789 6.82227 22.3083C7.00093 22.1337 7.2263 22.0464 7.49836 22.0464C7.77448 22.0464 7.99781 22.1317 8.16835 22.3022C8.34296 22.4687 8.43026 22.7063 8.43026 23.0149V30.1046C8.43026 30.4132 8.34296 30.6528 8.16835 30.8234C7.99781 30.9898 7.77448 31.0731 7.49836 31.0731C7.2263 31.0731 7.00093 30.9878 6.82227 30.8173C6.64766 30.6427 6.56036 30.4051 6.56036 30.1046ZM9.55707 30.0498V23.0514C9.55707 22.759 9.64843 22.5317 9.83116 22.3692C10.0179 22.2027 10.2555 22.1195 10.5438 22.1195H12.9375C13.3679 22.1195 13.7618 22.2109 14.1191 22.3936C14.4765 22.5763 14.7587 22.8362 14.9658 23.1732C15.1769 23.5062 15.2825 23.8859 15.2825 24.3122C15.2825 25.1771 14.8967 25.7882 14.1252 26.1456V26.1699C14.3851 26.2065 14.6308 26.2877 14.8622 26.4136C15.0937 26.5354 15.2967 26.6917 15.4713 26.8826C15.65 27.0734 15.786 27.2866 15.8794 27.5221C15.9728 27.7576 16.0195 28.0155 16.0195 28.2957C16.0195 29.1565 15.7556 29.8224 15.2277 30.2935C14.7039 30.7645 14.0034 31 13.1263 31H10.556C10.2636 31 10.024 30.9127 9.83725 30.7381C9.65046 30.5635 9.55707 30.3341 9.55707 30.0498ZM11.427 23.764V25.6339H12.4015C12.7101 25.6339 12.9558 25.5487 13.1385 25.3781C13.3212 25.2035 13.4126 24.9619 13.4126 24.6533C13.4126 24.3691 13.3172 24.1498 13.1263 23.9955C12.9395 23.8412 12.6979 23.764 12.4015 23.764H11.427ZM11.427 27.2846V29.3555H12.901C13.2502 29.3555 13.5324 29.26 13.7476 29.0692C13.9669 28.8743 14.0765 28.6063 14.0765 28.2652C14.0765 27.9647 13.9628 27.7272 13.7354 27.5526C13.5121 27.3739 13.1832 27.2846 12.7487 27.2846H11.427ZM16.2692 29.7879L18.7787 23.0027C18.8964 22.69 19.071 22.4403 19.3025 22.2535C19.538 22.0627 19.808 21.9672 20.1126 21.9672C20.4333 21.9672 20.7074 22.0606 20.9348 22.2474C21.1663 22.4342 21.3368 22.686 21.4465 23.0027L23.895 29.7879C23.96 29.9666 23.9924 30.1209 23.9924 30.2508C23.9924 30.4092 23.9518 30.5513 23.8706 30.6772C23.7935 30.8031 23.6899 30.9005 23.56 30.9695C23.4301 31.0386 23.2879 31.0731 23.1336 31.0731C22.6707 31.0731 22.3662 30.8579 22.22 30.4275L21.8485 29.2519H18.3827L18.0051 30.4153C17.8671 30.8538 17.5686 31.0731 17.1098 31.0731C16.8539 31.0731 16.6347 30.9898 16.4519 30.8234C16.2733 30.6528 16.1839 30.4457 16.1839 30.2021C16.1839 30.0843 16.2124 29.9463 16.2692 29.7879ZM20.1004 23.9163L18.9187 27.5343H21.2881L20.1247 23.9163H20.1004ZM24.5041 30.1046V23.0149C24.5041 22.7103 24.5914 22.4728 24.766 22.3022C24.9406 22.1317 25.1639 22.0464 25.436 22.0464C25.5659 22.0464 25.7101 22.087 25.8684 22.1682C26.0268 22.2494 26.1446 22.3449 26.2217 22.4545L30.1808 27.7292H30.2051V23.0149C30.2051 22.7103 30.2924 22.4728 30.467 22.3022C30.6417 22.1317 30.865 22.0464 31.137 22.0464C31.4172 22.0464 31.6426 22.1317 31.8131 22.3022C31.9877 22.4687 32.075 22.7063 32.075 23.0149V30.1046C32.075 30.4132 31.9877 30.6528 31.8131 30.8234C31.6426 30.9898 31.4172 31.0731 31.137 31.0731C31.0233 31.0731 30.8873 31.0345 30.729 30.9574C30.5747 30.8762 30.4488 30.7787 30.3513 30.665L26.3983 25.4512H26.374V30.1046C26.374 30.4132 26.2867 30.6528 26.1121 30.8234C25.9415 30.9898 25.7162 31.0731 25.436 31.0731C25.1639 31.0731 24.9406 30.9878 24.766 30.8173C24.5914 30.6467 24.5041 30.4092 24.5041 30.1046Z" fill="white"/>
</svg>
