<svg width="28" height="28" viewBox="0 0 28 28" fill="none" xmlns="http://www.w3.org/2000/svg">
<rect width="28" height="28" rx="14" fill="url(#paint0_radial_1980_12740)"/>
<path d="M22.6147 10.4275C22.5725 9.50492 22.426 8.87492 22.2118 8.32373C21.9942 7.74543 21.6531 7.22162 21.2122 6.78866C20.7793 6.34776 20.2554 6.00644 19.6771 5.78877C19.1258 5.57467 18.4959 5.42827 17.5734 5.38635C16.6491 5.34403 16.3538 5.33398 14.0002 5.33398C11.6465 5.33398 11.3512 5.34403 10.427 5.38609C9.50444 5.42827 8.87456 5.5748 8.32324 5.78903C7.74494 6.00657 7.22113 6.34776 6.78817 6.78866C6.34727 7.22149 6.00595 7.7453 5.78828 8.3236C5.57418 8.87492 5.42779 9.50492 5.38586 10.4273C5.34355 11.3517 5.3335 11.6469 5.3335 14.0005C5.3335 16.3543 5.34355 16.6496 5.38586 17.5739C5.42792 18.4962 5.57444 19.1263 5.78868 19.6776C6.00622 20.2557 6.3474 20.7797 6.7883 21.2125C7.22113 21.6534 7.74508 21.9946 8.32337 22.2121C8.87456 22.4265 9.50457 22.5729 10.4271 22.6151C11.3515 22.6573 11.6466 22.6672 14.0003 22.6672C16.354 22.6672 16.6493 22.6573 17.5735 22.6151C18.496 22.5729 19.1259 22.4265 19.6772 22.2121C20.8413 21.762 21.7616 20.8417 22.2118 19.6776C22.4261 19.1263 22.5725 18.4962 22.6147 17.5739C22.6568 16.6495 22.6668 16.3543 22.6668 14.0007C22.6668 11.6469 22.6568 11.3517 22.6147 10.4275ZM21.0547 17.5028C21.0162 18.3479 20.8749 18.8068 20.7563 19.1121C20.4647 19.868 19.8674 20.4653 19.1115 20.7569C18.8061 20.8756 18.3472 21.0168 17.5022 21.0553C16.5886 21.0971 16.3144 21.1058 14.0002 21.1058C11.6858 21.1058 11.4118 21.0971 10.498 21.0553C9.65308 21.0168 9.19419 20.8756 8.88871 20.7569C8.51235 20.618 8.17182 20.3964 7.89226 20.1086C7.60437 19.829 7.38286 19.4886 7.24388 19.1121C7.12525 18.8068 6.98402 18.3479 6.94554 17.5028C6.90388 16.589 6.89502 16.3149 6.89502 14.0008C6.89502 11.6865 6.90388 11.4125 6.94554 10.4986C6.98415 9.65356 7.12525 9.19468 7.24388 8.88933C7.38286 8.51284 7.6045 8.17231 7.89226 7.89275C8.17182 7.60486 8.51235 7.38335 8.88884 7.2445C9.19419 7.12574 9.65308 6.98464 10.4981 6.94602C11.4119 6.90437 11.686 6.89551 14.0002 6.89551H14C16.3141 6.89551 16.5883 6.90437 17.5022 6.94616C18.3472 6.98464 18.806 7.12588 19.1115 7.2445C19.4878 7.38348 19.8284 7.60499 20.1079 7.89275C20.3958 8.17231 20.6173 8.51284 20.7562 8.88933C20.8749 9.19468 21.0162 9.65356 21.0547 10.4986C21.0963 11.4124 21.1052 11.6865 21.1052 14.0007C21.1052 16.3149 21.0964 16.5889 21.0547 17.5028Z" fill="white"/>
<path d="M14.0001 9.33398C11.4228 9.33398 9.3335 11.4234 9.3335 14.0007C9.3335 16.578 11.4228 18.6673 14.0001 18.6673C16.5775 18.6673 18.6668 16.578 18.6668 14.0007C18.6668 11.4234 16.5775 9.33398 14.0001 9.33398ZM14.0001 17.0299C12.3272 17.0298 10.9709 15.6736 10.971 14.0006C10.971 12.3277 12.3272 10.9714 14.0002 10.9714C15.6733 10.9715 17.0294 12.3277 17.0294 14.0006C17.0294 15.6736 15.6731 17.0299 14.0001 17.0299Z" fill="white"/>
<path d="M19.3335 9.66608C19.3335 10.2183 18.8858 10.666 18.3336 10.666C17.7812 10.666 17.3335 10.2183 17.3335 9.66608C17.3335 9.11372 17.7812 8.66602 18.3336 8.66602C18.8858 8.66602 19.3335 9.11372 19.3335 9.66608Z" fill="white"/>
<defs>
<radialGradient id="paint0_radial_1980_12740" cx="0" cy="0" r="1" gradientUnits="userSpaceOnUse" gradientTransform="translate(7.43754 30.1566) rotate(-90) scale(27.7501 25.8097)">
<stop stop-color="#FFDD55"/>
<stop offset="0.1" stop-color="#FFDD55"/>
<stop offset="0.5" stop-color="#FF543E"/>
<stop offset="1" stop-color="#C837AB"/>
</radialGradient>
</defs>
</svg>
