<svg width="86" height="231" viewBox="0 0 86 231" fill="none" xmlns="http://www.w3.org/2000/svg">
<path d="M86 54.3952C86 60.3589 85.6246 65.5815 85.2598 69.231C85.0267 71.5443 84.4405 73.8095 83.521 75.9498C80.8579 82.1861 74.5435 97.9937 73.4386 110.064C72.1105 124.6 72.9711 174.417 73.0844 180.049C73.0844 180.639 73.0844 181.223 73.0455 181.824C72.8542 185.103 71.8591 196.667 67.1986 207.815C61.3446 221.798 52.1972 229.576 40.0112 230.887C38.7609 231.029 37.4987 231.037 36.2466 230.911C31.7951 230.439 25.1585 228.489 18.9468 217.051C10.7024 201.869 6.09859 174.945 5.26636 137.027C5.26636 136.495 5.22386 135.957 5.17428 135.429C1.59391 98.2629 0.428795 83.5075 0.0534055 78.0227C-0.0573993 76.3953 0.00432698 74.7609 0.237566 73.1462C1.18312 66.6547 4.16144 49.8333 11.4284 33.8859C20.7034 13.5303 33.3462 2.19375 48.9993 0.187209C50.3316 0.0156881 51.6768 -0.0381286 53.0188 0.0264038C61.5926 0.449385 68.6364 3.7773 73.9521 9.91927C83.8149 21.3083 85.9929 40.0034 85.9929 54.3847M71.3952 141.683C71.3952 128.798 71.5652 116.164 72.1318 109.939C73.2544 97.6826 79.6255 81.7247 82.3169 75.4324C83.1812 73.4196 83.7351 71.2904 83.9601 69.1156C84.9199 59.5199 86.9562 26.9574 72.9534 10.7862C67.8786 4.9239 61.1463 1.74979 52.9409 1.34778C51.6769 1.28498 50.4099 1.33529 49.1551 1.4981C13.0858 6.12293 3.14507 62.1697 1.51956 73.3559C1.29872 74.8792 1.24056 76.4211 1.34603 77.9563C1.72142 83.4376 2.88298 98.179 6.45981 135.328C6.51647 135.891 6.54836 136.461 6.55898 137.023C7.4585 177.923 13.3621 227.213 36.3742 229.66C37.5333 229.775 38.7016 229.767 39.8589 229.635C51.5456 228.366 60.3247 220.868 65.9839 207.343C70.5665 196.387 71.5439 185.002 71.7352 181.775C71.7671 181.209 71.7777 180.66 71.767 180.097C71.7104 176.864 71.4129 159.064 71.4129 141.722" fill="#FFED00"/>
<path d="M84.9797 64.6819C84.9767 65.2175 84.8888 65.7492 84.7193 66.2576C83.5294 69.9201 78.0661 76.0967 58.8 84.7173C37.4465 95.1622 38.4674 102.809 38.4779 102.883C38.4794 102.906 38.4794 102.93 38.4779 102.953L39.886 122.309C40.617 132.56 43.4059 142.561 48.088 151.722C55.4805 166.176 66.8542 192.944 60.2855 209.807C57.8742 216.002 53.2451 220.403 46.518 222.892C45.8562 223.138 45.8562 223.138 44.8917 223.561C40.1852 225.62 35.4505 225.466 31.5537 223.12C24.2352 218.719 19.7927 207.034 18.3459 188.389C17.0223 171.34 16.1633 159.201 15.5297 150.335C14.3892 134.2 13.9632 128.164 12.7699 121.175C12.4425 119.252 12.1363 116.92 11.8089 114.448C10.2565 102.683 8.12673 86.5661 0.399894 83.4008C0.241379 83.3335 0.115713 83.207 0.0498932 83.0486C-0.0159262 82.8902 -0.0166483 82.7124 0.0478736 82.5534C0.0799098 82.475 0.127277 82.4037 0.187186 82.3435C0.247095 82.2834 0.318374 82.2357 0.396929 82.2031C0.475483 82.1706 0.559729 82.1538 0.644829 82.1539C0.72993 82.1539 0.814191 82.1707 0.89273 82.2033C9.31305 85.6557 11.4991 102.204 13.0938 114.287C13.4211 116.738 13.7274 119.067 14.0512 120.961C15.2516 128.013 15.6776 134.067 16.8216 150.251C17.4482 159.113 18.3072 171.26 19.6378 188.294C21.0459 206.502 25.2701 217.84 32.2225 222.014C36.9783 224.874 41.8749 223.47 44.3707 222.364C45.3634 221.93 45.3775 221.923 46.071 221.663C52.4284 219.307 56.8076 215.158 59.0957 209.324C65.4778 192.941 54.2237 166.564 46.951 152.303C42.1901 142.981 39.3534 132.805 38.6082 122.376L37.2001 103.051C37.0839 102.27 36.4327 94.1853 58.2544 83.5128C77.8478 74.7591 82.4417 68.7611 83.4379 65.9774C83.9166 64.6399 83.5998 63.9816 83.5858 63.9536C83.5098 63.8014 83.4956 63.626 83.546 63.4637C83.5965 63.3015 83.7078 63.1647 83.8568 63.0817C83.9293 63.0408 84.0092 63.0146 84.0919 63.0046C84.1746 62.9946 84.2585 63.001 84.3387 63.0235C84.419 63.0459 84.4939 63.084 84.5592 63.1355C84.6245 63.1869 84.6789 63.2508 84.7193 63.3233C84.9219 63.7319 85.0175 64.1847 84.9974 64.6399" fill="#FFED00"/>
<path d="M85.9965 66.6854C85.9966 66.8417 85.9412 66.9928 85.8404 67.1111C85.7607 67.2061 77.7789 76.5327 65.2009 73.3312C63.3602 72.862 61.7084 71.8248 60.4737 70.3628C59.2391 68.9007 58.4825 67.086 58.3084 65.1691L57.5349 56.5848C57.4794 55.9657 57.4065 55.3535 57.3094 54.7062C56.9625 52.3244 56.123 44.1518 60.296 39.1314C62.5126 36.4541 65.7802 35.0644 70.0087 35.0011C76.1763 34.9554 80.6823 36.345 83.4053 39.1314C85.9063 41.6891 85.9029 44.4754 85.9133 44.595L86 66.6854H85.9965ZM58.2737 50.3366C58.2739 51.7342 58.3747 53.13 58.5755 54.5127C58.6726 55.1811 58.7524 55.8214 58.8079 56.4652L59.5815 65.0495C59.732 66.6973 60.3831 68.2572 61.445 69.5137C62.5069 70.7703 63.9271 71.6616 65.5097 72.0646C76.3948 74.8334 83.5892 67.6564 84.7166 66.4356L84.6333 44.5915C84.6333 44.4895 84.6056 42.1886 82.4722 40.018C79.992 37.506 75.8051 36.2535 70.0191 36.2993C66.2034 36.3556 63.2411 37.5869 61.2708 39.9652C58.8426 42.9063 58.2737 47.0929 58.2737 50.3261" fill="#FFED00"/>
<path d="M21.979 69.9123C21.979 78.4815 16.3974 82.6707 14.5346 83.4169C14.2764 83.5211 13.9938 83.6529 13.6868 83.7952C10.9274 85.0864 5.78881 87.4916 0.0815814 77.2703C-0.00149862 77.1209 -0.0220974 76.945 0.0242627 76.7806C0.0706227 76.6163 0.180195 76.4767 0.329253 76.3922C0.40296 76.3509 0.484143 76.3246 0.56811 76.3147C0.652076 76.3047 0.737184 76.3114 0.818549 76.3343C0.899914 76.3572 0.975946 76.3959 1.04225 76.4481C1.10855 76.5003 1.1638 76.5651 1.20488 76.6386C6.34347 85.8187 10.4425 83.8994 13.1601 82.6291C13.488 82.4729 13.7915 82.3306 14.0706 82.2195C16.1009 81.4074 23.0395 75.9722 19.9103 64.1995C19.4876 62.507 18.6484 60.9458 17.4684 59.6563C15.9404 58.0493 14.1892 57.251 12.2565 57.2892C7.60982 57.376 3.35033 62.1482 3.30847 62.2038C3.25289 62.2672 3.18523 62.3189 3.10938 62.3561C3.03353 62.3932 2.95103 62.415 2.86665 62.4202C2.78227 62.4253 2.69768 62.4138 2.61783 62.3862C2.53798 62.3586 2.46443 62.3154 2.40146 62.2593C2.27318 62.1459 2.19529 61.9865 2.18483 61.8161C2.17437 61.6457 2.23217 61.4781 2.34563 61.35C2.53401 61.1383 7.02726 56.0987 12.2321 56.0016C14.538 55.9564 16.6137 56.8866 18.3998 58.7782C19.7303 60.2264 20.6785 61.9807 21.1593 63.8836C21.7011 65.8531 21.9837 67.8843 22 69.9262" fill="#FFED00"/>
</svg>
