<svg width="69" height="59" viewBox="0 0 69 59" fill="none" xmlns="http://www.w3.org/2000/svg">
<path d="M7 13.3653C7.00026 10.3509 8.19043 7.46012 10.3087 5.32875C12.427 3.19738 15.2999 2 18.2955 2H55.7045C58.7001 2 61.573 3.19738 63.6913 5.32875C65.8096 7.46012 66.9997 10.3509 67 13.3653V38.6347C66.9997 41.6491 65.8096 44.5399 63.6913 46.6713C61.573 48.8026 58.7001 50 55.7045 50H46.675" stroke="#FFED00" stroke-width="3.5" stroke-linecap="round" stroke-linejoin="round"/>
<path d="M45 23H66" stroke="#FFED00" stroke-width="3.5" stroke-linecap="round" stroke-linejoin="round"/>
<path d="M35 14H67" stroke="#FFED00" stroke-width="3.5" stroke-linecap="round" stroke-linejoin="round"/>
<path d="M3.2914 26.912C3.33634 26.1241 3.67136 25.3837 4.2279 24.8423C4.78443 24.301 5.52038 23.9997 6.28512 24H34.7168C35.4812 24.0002 36.2167 24.3017 36.7728 24.843C37.3289 25.3843 37.6637 26.1244 37.7086 26.912L38.9879 49.3568C39.0439 50.3388 38.9049 51.3223 38.5793 52.2468C38.2538 53.1713 37.7486 54.0174 37.0948 54.7332C36.441 55.4489 35.6523 56.0192 34.7773 56.409C33.9022 56.7988 32.9592 56.9999 32.0061 57H8.99391C8.04082 56.9999 7.09779 56.7988 6.22273 56.409C5.34766 56.0192 4.55901 55.4489 3.9052 54.7332C3.25139 54.0174 2.7462 53.1713 2.42066 52.2468C2.09511 51.3223 1.95608 50.3388 2.01209 49.3568L3.2914 26.912Z" stroke="#FFED00" stroke-width="3.5" stroke-miterlimit="64"/>
<path d="M11 28V23C11 16.9249 15.4771 12 20.9995 12C26.5219 12 31 16.9249 31 23V28" stroke="#FFED00" stroke-width="3.5" stroke-miterlimit="64" stroke-linecap="round"/>
</svg>
