<svg width="22" height="20" viewBox="0 0 22 20" fill="none" xmlns="http://www.w3.org/2000/svg">
<path d="M15.7398 4H0V14.5596C0 17.0117 1.90758 19 4.26018 19H15.7398C18.0924 19 20 17.0117 20 14.5596V8.4404C20 5.98827 18.0931 4 15.7398 4ZM14.78 13.7291C13.7966 13.7291 12.9999 12.8986 12.9999 11.8737C12.9999 10.8487 13.7966 10.0183 14.78 10.0183C15.7633 10.0183 16.5601 10.8487 16.5601 11.8737C16.5601 12.8986 15.7633 13.7291 14.78 13.7291Z" fill="#1D1D1B"/>
<path d="M17.6 19.9993H4.4C1.96973 19.9993 0 18.0636 0 15.6754V2.79321C0 1.25032 1.27233 0 2.8424 0H15.3985C15.8033 0 16.1319 0.322848 16.1319 0.720643C16.1319 1.11844 15.8033 1.44129 15.3985 1.44129H2.91867C2.233 1.44129 1.59647 1.90034 1.485 2.56549C1.34347 3.41152 2.00713 4.14586 2.8424 4.14586H17.6C20.0303 4.14586 22 6.0815 22 8.46972V15.6761C22 18.0644 20.0303 20 17.6 20V19.9993ZM1.46667 5.23691V15.6754C1.46667 17.2652 2.78227 18.558 4.4 18.558H17.6C19.2177 18.558 20.5333 17.2652 20.5333 15.6754V8.469C20.5333 6.87926 19.2177 5.58642 17.6 5.58642H2.84313C2.34373 5.58642 1.87513 5.45959 1.46667 5.23691Z" fill="#1D1D1B"/>
</svg>
