<svg width="34" height="33" viewBox="0 0 34 33" fill="none" xmlns="http://www.w3.org/2000/svg">
<path d="M14.8254 1.60123C15.5099 -0.533743 18.4902 -0.533742 19.1746 1.60123L21.6203 9.22937C21.9264 10.1842 22.8043 10.8306 23.7949 10.8306H31.7091C33.9241 10.8306 34.8451 13.7032 33.0531 15.0227L26.6504 19.7371C25.849 20.3272 25.5136 21.3732 25.8197 22.3279L28.2653 29.9561C28.9498 32.0911 26.5387 33.8664 24.7467 32.5469L18.344 27.8325C17.5426 27.2424 16.4574 27.2424 15.656 27.8325L9.25329 32.5469C7.46129 33.8664 5.05018 32.0911 5.73466 29.9561L8.18028 22.3279C8.48639 21.3732 8.15105 20.3272 7.34964 19.7371L0.94693 15.0227C-0.845066 13.7032 0.0758986 10.8306 2.29093 10.8306H10.2051C11.1957 10.8306 12.0736 10.1842 12.3797 9.22937L14.8254 1.60123Z" fill="#FFED00" fill-opacity="0.5"/>
</svg>
