<svg width="145" height="138" viewBox="0 0 145 138" fill="none" xmlns="http://www.w3.org/2000/svg">
<path d="M32.7827 91.6497C33.9447 93.043 35.1067 94.6686 36.0363 96.2941C42.0785 105.118 66.4798 136.468 104.128 128.805C138.057 121.838 82.9798 109.298 69.2686 104.19C60.9024 101.171 50.2123 84.9154 44.17 74.93C35.8039 61.2291 8.6138 60.7647 32.7827 91.6497Z" fill="#FFDF0D"/>
<path d="M14.347 135.996L123.454 134.843C127.392 134.843 131.098 133.23 134.11 130.694L139.669 125.624C144.071 121.705 144.071 115.021 139.901 110.872L139.669 110.411C134.11 104.879 126.465 102.113 118.589 103.035L60.9086 68C60.9086 68 45.8514 73.7624 59.5187 84.5956C54.4224 94.7374 28.4776 100.5 22.2231 88.2835C15.9686 76.0673 13.4204 105.801 13.4204 105.801C13.4204 105.801 6.93422 111.102 3.22782 118.709C-0.710221 126.776 5.31267 136.226 14.347 135.996Z" stroke="white" stroke-width="2.31055" stroke-miterlimit="10" stroke-linecap="round"/>
<path d="M60 85C60 85 116.455 122.956 119 103.403" stroke="white" stroke-width="2.31055" stroke-miterlimit="10" stroke-linecap="round"/>
<path d="M38 46V2" stroke="white" stroke-width="3.46582" stroke-miterlimit="10" stroke-linecap="round"/>
<path d="M52 34.3684L49.4754 32L38 44.7895L26.5246 32L24 34.3684L38 50L52 34.3684Z" fill="white"/>
</svg>
