<svg width="40" height="40" viewBox="0 0 40 40" fill="none" xmlns="http://www.w3.org/2000/svg">
<g clip-path="url(#clip0_1300_31863)">
<path d="M28 0H12C5.38333 0 0 5.3819 0 11.9968V21.3276C0 27.7193 5.02533 32.9592 11.3333 33.3064V38.8676C11.3333 39.4921 11.8427 40 12.4687 40C12.768 40 13.0513 39.8814 13.2653 39.6674L14.516 38.4171C17.8 35.1333 22.1673 33.3244 26.8127 33.3244H28C34.6167 33.3244 40 27.9425 40 21.3276V11.9968C40 5.3819 34.6167 0 28 0ZM11.3333 19.3282C9.86267 19.3282 8.66667 18.1325 8.66667 16.6622C8.66667 15.1919 9.86267 13.9963 11.3333 13.9963C12.804 13.9963 14 15.1919 14 16.6622C14 18.1325 12.8033 19.3282 11.3333 19.3282ZM20 19.3282C18.5293 19.3282 17.3333 18.1325 17.3333 16.6622C17.3333 15.1919 18.5293 13.9963 20 13.9963C21.4707 13.9963 22.6667 15.1919 22.6667 16.6622C22.6667 18.1325 21.47 19.3282 20 19.3282ZM28.6667 19.3282C27.196 19.3282 26 18.1325 26 16.6622C26 15.1919 27.196 13.9963 28.6667 13.9963C30.1373 13.9963 31.3333 15.1919 31.3333 16.6622C31.3333 18.1325 30.1367 19.3282 28.6667 19.3282Z" fill="#939393"/>
</g>
<defs>
<clipPath id="clip0_1300_31863">
<rect width="40" height="40" fill="white"/>
</clipPath>
</defs>
</svg>
