<svg width="47" height="75" viewBox="0 0 47 75" fill="none" xmlns="http://www.w3.org/2000/svg">
<path d="M44.6243 19.2131C45.299 18.3386 45.3082 17.2275 44.6447 16.7313C43.9813 16.2352 42.8965 16.542 42.2217 17.4165C41.547 18.2911 41.5378 19.4022 42.2013 19.8983C42.8647 20.3944 43.9496 20.0876 44.6243 19.2131Z" stroke="white" stroke-width="2" stroke-miterlimit="10"/>
<path d="M40.937 12.4862C41.6299 10.6817 41.1434 8.82627 39.8504 8.34202C38.5574 7.85776 36.9475 8.92806 36.2546 10.7326C35.5617 12.5371 36.0482 14.3926 37.3412 14.8768C38.6342 15.3611 40.2441 14.2908 40.937 12.4862Z" stroke="white" stroke-width="2" stroke-miterlimit="10"/>
<path d="M33.4568 8.236C33.7362 6.3233 32.8544 4.61623 31.4873 4.42314C30.1202 4.23005 28.7853 5.62407 28.5059 7.53676C28.2265 9.44946 29.1083 11.1565 30.4754 11.3496C31.8426 11.5427 33.1774 10.1487 33.4568 8.236Z" stroke="white" stroke-width="2" stroke-miterlimit="10"/>
<path d="M25.2752 6.00364C25.4383 4.07754 24.2318 2.40617 22.5805 2.27054C20.9293 2.13491 19.4584 3.58638 19.2953 5.51248C19.1322 7.43858 20.3386 9.10995 21.9899 9.24558C23.6412 9.38121 25.1121 7.92974 25.2752 6.00364Z" stroke="white" stroke-width="2" stroke-miterlimit="10"/>
<path d="M12.4866 11.2902C14.6714 10.9633 16.0999 8.4861 15.6772 5.75721C15.2546 3.02833 13.1408 1.08115 10.956 1.40806C8.77114 1.73498 7.34264 4.2122 7.7653 6.94108C8.18796 9.66997 10.3017 11.6172 12.4866 11.2902Z" stroke="white" stroke-width="2" stroke-miterlimit="10"/>
<path d="M15.4084 16.4075C12.0908 20.1159 15.3162 29.2511 18.0809 39.6526C18.9103 42.7278 19.0946 45.9839 18.5417 49.0591C16.8829 58.5561 16.6986 60.0937 16.6986 60.0937C16.6986 60.0937 15.0398 70.5857 23.6102 73.48C23.7023 73.48 23.7945 73.5704 23.8866 73.5704C28.863 75.1985 34.3001 72.0328 35.1295 66.8773C35.7746 63.3499 36.051 57.6517 34.4844 50.0541C34.1158 48.3356 34.3001 45.6221 34.7609 43.9941C36.9726 36.2156 38.1706 31.5123 38.7235 28.7989C39.2765 26.1759 39 23.4625 37.8941 21.0204C35.1295 15.1413 22.0435 8.99084 15.4084 16.4075Z" stroke="white" stroke-width="2" stroke-miterlimit="10"/>
<path d="M4 29L4 74" stroke="#FFED00" stroke-width="2" stroke-miterlimit="10" stroke-linecap="round" stroke-linejoin="round"/>
<path d="M1 28H6.99985" stroke="#FFED00" stroke-width="2" stroke-miterlimit="10" stroke-linecap="round" stroke-linejoin="round"/>
<path d="M1 74H6.99985" stroke="#FFED00" stroke-width="2" stroke-miterlimit="10" stroke-linecap="round" stroke-linejoin="round"/>
<path d="M4 36H6.99992" stroke="#FFED00" stroke-width="2" stroke-miterlimit="10" stroke-linecap="round" stroke-linejoin="round"/>
<path d="M4 43H6.99992" stroke="#FFED00" stroke-width="2" stroke-miterlimit="10" stroke-linecap="round" stroke-linejoin="round"/>
<path d="M4 50H6.99992" stroke="#FFED00" stroke-width="2" stroke-miterlimit="10" stroke-linecap="round" stroke-linejoin="round"/>
<path d="M4 57H6.99992" stroke="#FFED00" stroke-width="2" stroke-miterlimit="10" stroke-linecap="round" stroke-linejoin="round"/>
<path d="M4 64H6.99992" stroke="#FFED00" stroke-width="2" stroke-miterlimit="10" stroke-linecap="round" stroke-linejoin="round"/>
</svg>
