<svg width="86" height="79" viewBox="0 0 86 79" fill="none" xmlns="http://www.w3.org/2000/svg">
<path d="M35.9934 18.4949C39.9814 28.3694 30.6951 30.5314 28.7058 41.2889C28.0642 44.4891 28.132 47.7887 28.9047 50.9606C31.2697 60.5605 31.4687 62.0799 31.4687 62.0799C31.4687 62.0799 33.9095 72.7312 25.5672 76.2629C25.4725 76.2629 25.384 76.3721 25.2925 76.3784C20.4267 78.3346 14.942 75.4424 13.6442 70.3726C12.738 66.7972 12.0655 61.0129 13.1043 53.0821C13.3632 51.3443 12.9811 48.5925 12.3938 46.9109C9.58362 39.0613 8.13114 34.4688 7.37017 31.6484C6.61377 29.0292 6.71769 26.2404 7.66698 23.6833C10.073 17.3811 32.5927 8.96046 35.9934 18.4949Z" stroke="white" stroke-width="2.24853" stroke-miterlimit="10"/>
<path d="M2.22709 19.395C1.5492 18.5239 1.53976 17.4173 2.206 16.9233C2.87224 16.4294 3.96187 16.7352 4.63976 17.6063C5.31765 18.4774 5.32709 19.584 4.66085 20.078C3.99461 20.5719 2.90498 20.2662 2.22709 19.395Z" stroke="white" stroke-width="2" stroke-miterlimit="10"/>
<path d="M5.92675 12.6886C5.23041 10.8903 5.71806 9.04177 7.01596 8.55975C8.31386 8.07773 9.93051 9.14479 10.6269 10.9431C11.3232 12.7414 10.8355 14.59 9.53764 15.072C8.23975 15.554 6.62309 14.487 5.92675 12.6886Z" stroke="white" stroke-width="2" stroke-miterlimit="10"/>
<path d="M13.4357 7.45881C13.1548 5.5524 14.0394 3.85119 15.4115 3.65904C16.7836 3.4669 18.1236 4.85658 18.4045 6.76299C18.6854 8.6694 17.8008 10.3706 16.4287 10.5628C15.0566 10.7549 13.7166 9.36522 13.4357 7.45881Z" stroke="white" stroke-width="2" stroke-miterlimit="10"/>
<path d="M22.073 4.48393C22.1525 2.55884 23.5637 1.05402 25.2251 1.12281C26.8865 1.19161 28.1688 2.80797 28.0893 4.73306C28.0098 6.65815 26.5985 8.16298 24.9372 8.09418C23.2758 8.02539 21.9935 6.40902 22.073 4.48393Z" stroke="white" stroke-width="2" stroke-miterlimit="10"/>
<path d="M34.4799 11.4988C32.2872 11.1733 30.8539 8.70458 31.2787 5.98465C31.7034 3.26472 33.8253 1.3236 36.018 1.64903C38.2107 1.97447 39.644 4.44322 39.2192 7.16314C38.7945 9.88307 36.6726 11.8242 34.4799 11.4988Z" stroke="white" stroke-width="2" stroke-miterlimit="10"/>
<path d="M50.0124 18.4988C46.0244 28.3733 55.3108 30.5354 57.3001 41.2928C57.9417 44.493 57.8738 47.7926 57.1011 50.9645C54.7361 60.5644 54.5372 62.0838 54.5372 62.0838C54.5372 62.0838 52.0964 72.7351 60.4387 76.2669C60.5334 76.2669 60.6218 76.376 60.7134 76.3823C65.5792 78.3385 71.0639 75.4463 72.3616 70.3765C73.2678 66.8011 73.9404 61.0168 72.9016 53.086C72.6426 51.3482 73.0247 48.5965 73.612 46.9148C76.4222 39.0652 77.8747 34.4727 78.6357 31.6523C79.3921 29.0331 79.2882 26.2443 78.3389 23.6872C75.9328 17.385 53.4131 8.96437 50.0124 18.4988Z" stroke="white" stroke-width="2.24853" stroke-miterlimit="10"/>
<path d="M83.7797 19.399C84.4576 18.5278 84.467 17.4212 83.8008 16.9272C83.1345 16.4333 82.0449 16.739 81.367 17.6102C80.6892 18.4813 80.6797 19.5879 81.346 20.0819C82.0122 20.5759 83.1018 20.2701 83.7797 19.399Z" stroke="white" stroke-width="2" stroke-miterlimit="10"/>
<path d="M80.0791 12.6925C80.7755 10.8942 80.2879 9.04567 78.99 8.56366C77.6921 8.08165 76.0754 9.14871 75.379 10.947C74.6827 12.7453 75.1703 14.5939 76.4682 15.0759C77.7661 15.5579 79.3828 14.4908 80.0791 12.6925Z" stroke="white" stroke-width="2" stroke-miterlimit="10"/>
<path d="M72.5701 7.46274C72.851 5.55633 71.9664 3.85511 70.5943 3.66296C69.2222 3.4708 67.8822 4.86048 67.6013 6.76689C67.3205 8.6733 68.2051 10.3745 69.5772 10.5667C70.9493 10.7588 72.2893 9.36915 72.5701 7.46274Z" stroke="white" stroke-width="2" stroke-miterlimit="10"/>
<path d="M63.9329 4.48392C63.8534 2.55883 62.4421 1.05401 60.7808 1.12281C59.1194 1.19161 57.8371 2.80797 57.9166 4.73306C57.9961 6.65815 59.4073 8.16298 61.0687 8.09418C62.7301 8.02538 64.0124 6.40901 63.9329 4.48392Z" stroke="white" stroke-width="2" stroke-miterlimit="10"/>
<path d="M51.5259 11.5026C53.7186 11.1772 55.1519 8.70844 54.7271 5.98851C54.3024 3.26858 52.1806 1.32747 49.9879 1.65291C47.7951 1.97836 46.3619 4.44713 46.7866 7.16705C47.2113 9.88698 49.3331 11.8281 51.5259 11.5026Z" stroke="white" stroke-width="2" stroke-miterlimit="10"/>
</svg>
