<svg width="48" height="57" viewBox="0 0 48 57" fill="none" xmlns="http://www.w3.org/2000/svg">
<path d="M14.3479 0.874233C15.3776 0.349693 16.4074 0 17.6087 0C18.8101 0 19.8398 0.349693 20.8695 0.874233C21.8992 1.39877 22.5857 2.27301 23.1006 3.32209C23.6155 4.37117 23.9587 5.42024 23.9587 6.64417C23.9587 15.5613 23.9587 24.6534 23.9587 33.5706C26.3614 34.9693 28.0776 37.0675 29.1074 39.6902C30.1371 42.3129 30.3087 45.1104 29.4506 47.7331C28.7641 50.3558 27.2195 52.8037 24.9885 54.3773C22.7574 56.1258 20.183 57 17.4371 57C14.6911 57 12.1168 56.1258 9.88575 54.3773C7.65467 52.6288 6.11007 50.3558 5.42358 47.7331C4.7371 45.1104 4.90874 42.3129 5.76685 39.6902C6.79658 37.0675 8.51279 34.9693 10.9155 33.5706C10.9155 24.4785 10.9155 15.3865 10.9155 6.29448C10.9155 5.2454 11.2587 4.02147 11.7736 3.14724C12.4601 2.09816 13.3182 1.39877 14.3479 0.874233ZM16.2358 1.74847C15.206 2.09816 14.3479 2.6227 13.6614 3.49693C12.975 4.37117 12.6317 5.2454 12.6317 6.29448C12.6317 15.5614 12.6317 24.6534 12.6317 33.9202C12.6317 34.4448 12.1168 34.7945 11.7736 34.9693C9.71414 36.1932 8.16953 38.1166 7.31143 40.3896C6.45332 42.6626 6.28173 45.1104 6.96822 47.3834C7.6547 49.6564 9.02765 51.7546 10.9155 53.1534C12.8033 54.5522 15.0344 55.4264 17.4371 55.4264C19.8398 55.4264 22.0709 54.727 23.9587 53.1534C25.8465 51.7546 27.2195 49.6564 27.906 47.3834C28.5925 45.1104 28.4209 42.6626 27.5628 40.3896C26.7047 38.1166 25.1601 36.1932 23.1006 34.9693C22.7574 34.7945 22.4141 34.6196 22.2425 34.2699C22.2425 33.5706 22.0709 33.046 22.2425 32.3466C22.2425 23.7791 22.2425 15.2117 22.2425 6.64417C22.2425 5.59509 22.0709 4.54601 21.3844 3.67178C20.8695 2.79755 20.0114 2.09816 19.1533 1.74847C18.1236 1.57362 17.0939 1.57362 16.2358 1.74847Z" fill="white"/>
<path d="M16.633 8.88353C16.633 8.70683 16.633 8.70683 16.633 8.53012C16.633 8.35341 16.8111 8.35341 16.8111 8.1767C16.8111 8 16.9891 8 17.1671 8C17.3451 8 17.3451 8 17.5231 8C17.7011 8 17.7012 8 17.8792 8.1767C18.0572 8.1767 18.0572 8.35341 18.0572 8.35341C18.0572 8.53012 18.2353 8.53012 18.2353 8.70683C18.2353 8.88353 18.2353 8.88353 18.2353 9.06024C18.2353 18.4257 18.2353 27.6145 18.2353 36.9799C19.4814 37.1566 20.7275 37.51 21.6176 38.2169C22.6857 38.9237 23.3978 39.8072 24.1099 41.0442C24.644 42.1044 25 43.3414 25 44.755C25 45.992 24.6439 47.2289 23.9319 48.2892C23.2198 49.3494 22.3297 50.2329 21.2616 50.9398C20.1934 51.6466 18.9473 51.8233 17.7012 52C16.455 52 15.2089 51.6466 14.1408 51.1165C13.0726 50.5863 12.0045 49.7028 11.2924 48.6426C10.5803 47.5823 10.2243 46.3454 10.0463 45.1084C9.86829 43.8715 10.2243 42.6345 10.7584 41.3976C11.2924 40.1606 12.1825 39.2771 13.2507 38.3936C14.3188 37.6868 15.5649 37.1566 16.8111 36.9799C16.633 27.6145 16.633 18.249 16.633 8.88353ZM16.633 38.5703C15.3869 38.747 14.1408 39.4538 13.2507 40.3373C12.3606 41.2209 11.8265 42.4578 11.6485 43.6948C11.4705 44.9317 11.8265 46.1687 12.5386 47.2289C13.2507 48.2892 14.1408 49.1727 15.3869 49.5261C16.6331 50.0562 17.8792 50.0562 19.1254 49.7028C20.3715 49.3494 21.4396 48.6426 22.1517 47.5823C22.8637 46.5221 23.2198 45.2851 23.2198 44.0482C23.2198 42.8112 22.6858 41.5743 21.7957 40.5141C21.0836 39.8072 20.3715 39.1004 19.3033 38.747C18.5912 38.3936 17.7011 38.3936 16.633 38.5703Z" fill="white"/>
<path d="M8.29604 14H4.66093C4.33046 14 4 13.75 4 13.5C4 13.25 4.33046 13 4.66093 13H8.29604C8.62651 13 8.95702 13.25 8.95702 13.5C9.12225 13.75 8.79175 14 8.29604 14Z" fill="white"/>
<path d="M8.33329 22H4.66666C4.33332 22 4 21.75 4 21.5C4 21.25 4.33332 21 4.66666 21H8.33329C8.66663 21 9 21.25 9 21.5C9 21.75 8.83329 22 8.33329 22Z" fill="white"/>
<path d="M8.2663 18H0.68885C0.34442 18 0 17.75 0 17.5C0 17.25 0.34442 17 0.68885 17H8.2663C8.61073 17 8.9552 17.25 8.9552 17.5C9.12742 17.75 8.78295 18 8.2663 18Z" fill="white"/>
<path d="M34.5094 49C34.1609 49 33.638 48.654 33.638 48.308C33.638 47.789 33.8123 47.443 34.3351 47.27C40.2603 46.4051 44.0943 43.9831 45.4885 40.3502C49.1482 30.8354 37.6462 15.0928 33.8123 10.2489L28.5841 16.9958C28.2356 17.3418 27.7128 17.5148 27.3643 17.1688C27.0157 16.8228 26.8414 16.3038 27.19 15.9578L33.1152 8.34599C33.2895 8.17299 33.4637 8 33.8123 8C34.1608 8 34.3351 8.17299 34.5094 8.34599C37.2977 11.8059 51.4137 29.7975 47.2312 41.0422C45.6627 45.3671 41.306 47.962 34.5094 49C34.6837 49 34.6837 49 34.5094 49Z" fill="white"/>
<path d="M35.8904 44C35.5519 44 35.2133 43.6667 35.044 43.3333C34.8748 42.8333 35.2133 42.5 35.7211 42.3333C39.2759 41.6667 40.9687 39 41.3072 37.6667C41.4765 37.1667 41.815 37 42.3229 37C42.8307 37.1667 43 37.5 43 38C42.4922 39.8333 40.4608 43.1667 35.8904 44C36.0597 44 36.0597 44 35.8904 44Z" fill="white"/>
</svg>
