<svg width="30" height="30" viewBox="0 0 28 28" fill="none" xmlns="http://www.w3.org/2000/svg">
<path d="M14 28C21.732 28 28 21.732 28 14C28 6.26801 21.732 0 14 0C6.26801 0 0 6.26801 0 14C0 21.732 6.26801 28 14 28Z" fill="#6F3FAA"/>
<path d="M22.0868 9.45708V9.4364C21.8991 8.67595 21.4091 7.89004 20.7663 7.22822C20.0154 6.45186 19.0593 5.84254 18.1461 5.64527H18.127C15.4038 5.12345 12.6062 5.12345 9.88294 5.64527H9.86385C8.16794 6.01277 6.32726 7.78504 5.9168 9.4364V9.45708C5.4125 11.7465 5.4125 14.1183 5.9168 16.4078V16.4269C6.20953 17.6041 7.22771 18.8419 8.4018 19.5896C8.78524 19.8395 9.20261 20.0329 9.64112 20.1639V22.0062C9.64174 22.1534 9.68618 22.2971 9.76878 22.419C9.85138 22.5409 9.9684 22.6354 10.1049 22.6905C10.2414 22.7456 10.3913 22.7589 10.5354 22.7285C10.6794 22.6981 10.8112 22.6256 10.9138 22.52L12.7816 20.5791C13.1857 20.6014 13.5929 20.6141 13.997 20.6141C15.3803 20.6137 16.7604 20.4827 18.1191 20.2228H18.1382C19.8293 19.8537 21.6716 18.0814 22.0788 16.43V16.4109C22.5862 14.1211 22.589 11.7481 22.0868 9.45708ZM20.6088 16.0673C20.3352 17.1444 18.9384 18.4855 17.8263 18.7321C16.382 19.0088 14.9119 19.1288 13.4418 19.09C13.4275 19.0892 13.4132 19.0916 13.3999 19.0971C13.3867 19.1026 13.3749 19.1111 13.3654 19.1219L12.002 20.5219L10.5511 22.0094C10.5279 22.0339 10.4979 22.0509 10.4649 22.0582C10.4319 22.0654 10.3975 22.0626 10.3661 22.0501C10.3348 22.0376 10.3079 22.0159 10.289 21.988C10.27 21.96 10.2599 21.927 10.26 21.8932V18.8387C10.26 18.8141 10.2514 18.7903 10.2357 18.7714C10.2201 18.7525 10.1982 18.7397 10.1741 18.7353C9.94213 18.6802 9.71851 18.5946 9.50907 18.4807C8.56407 17.9764 7.61112 16.9423 7.39157 16.0673C6.93683 13.9978 6.93683 11.8543 7.39157 9.78481C7.66362 8.71254 9.06839 7.37458 10.1725 7.1264C12.7008 6.64263 15.298 6.64263 17.8263 7.1264C18.4388 7.26322 19.1388 7.72936 19.6861 8.30208C20.1363 8.76822 20.4816 9.30595 20.6088 9.78958C21.0629 11.8575 21.0629 13.9994 20.6088 16.0673Z" fill="white"/>
<path d="M17.8662 16.2255C17.6596 16.6972 17.3042 17.0883 16.8544 17.3391C16.7133 17.399 16.5668 17.4453 16.4169 17.4775C16.2467 17.4266 16.0844 17.3916 15.9397 17.3296C14.7337 16.8603 13.611 16.2001 12.6147 15.3743C12.3187 15.1219 12.0407 14.8492 11.7826 14.5582C11.1453 13.8243 10.6102 13.0077 10.1917 12.1305C9.98806 11.7152 9.81625 11.2857 9.64125 10.8577C9.48215 10.468 9.71761 10.0623 9.95943 9.77116C10.1961 9.50115 10.4873 9.28428 10.8137 9.13479C10.9286 9.07706 11.0601 9.06136 11.1853 9.09042C11.3106 9.11948 11.4217 9.19146 11.4994 9.29388C11.9059 9.75056 12.2642 10.248 12.5685 10.7782C12.6644 10.9324 12.6972 11.1175 12.6602 11.2953C12.6232 11.473 12.5191 11.6297 12.3697 11.7327C12.2901 11.7884 12.2106 11.8521 12.1422 11.9141C12.0747 11.9641 12.0166 12.0254 11.9703 12.0955C11.9305 12.161 11.9063 12.2349 11.8996 12.3113C11.893 12.3878 11.9041 12.4647 11.9322 12.5362C12.2392 13.3809 12.7053 14.0857 13.4022 14.5805C13.638 14.7472 13.892 14.8865 14.1594 14.9957C14.334 15.0907 14.5302 15.1389 14.729 15.1357C15.0758 15.0943 15.1903 14.7109 15.4322 14.5137C15.5432 14.4228 15.6805 14.3701 15.8238 14.3635C15.9671 14.3569 16.1087 14.3968 16.2276 14.4771C16.4853 14.6362 16.7335 14.8159 16.9817 14.9909C17.2272 15.1585 17.4635 15.339 17.6897 15.5318C17.7954 15.6087 17.871 15.7201 17.9032 15.8468C17.9355 15.9734 17.9224 16.1074 17.8662 16.2255Z" fill="white"/>
<path d="M14.4566 8.60298H14.2529C14.3182 8.59979 14.3866 8.60298 14.4566 8.60298Z" fill="white"/>
<path d="M17.9774 13.3702C17.8183 13.3702 17.7403 13.235 17.7292 13.087C17.7085 12.7959 17.6926 12.5032 17.6528 12.2136C17.5841 11.7251 17.4139 11.2564 17.1533 10.8375C16.8854 10.4011 16.5289 10.0259 16.1069 9.73591C15.6849 9.44598 15.2067 9.24784 14.7033 9.15431C14.4742 9.11295 14.2403 9.1034 14.0096 9.07954C13.8633 9.06363 13.6708 9.05408 13.639 8.87272C13.6342 8.8375 13.637 8.80166 13.6472 8.76761C13.6574 8.73357 13.6748 8.70209 13.6981 8.67528C13.7215 8.64848 13.7503 8.62696 13.7826 8.61218C13.8149 8.59739 13.85 8.58967 13.8856 8.58954C13.9237 8.58734 13.9619 8.58734 14.0001 8.58954C14.6955 8.59542 15.3787 8.77272 15.9892 9.10572C16.5997 9.43872 17.1187 9.91715 17.5001 10.4986C17.8012 10.9673 18.0057 11.4914 18.1015 12.0402C18.1619 12.3839 18.1842 12.737 18.2112 13.087C18.2167 13.1213 18.2147 13.1564 18.2056 13.1899C18.1964 13.2234 18.1803 13.2546 18.1582 13.2814C18.136 13.3081 18.1085 13.3299 18.0773 13.3452C18.0462 13.3606 18.0121 13.3691 17.9774 13.3702Z" fill="white"/>
<path d="M17.1167 12.6279C17.1158 12.6751 17.1094 12.7221 17.0976 12.7679C17.0837 12.8139 17.056 12.8545 17.0182 12.8842C16.9804 12.9138 16.9344 12.9312 16.8864 12.9338C16.8385 12.9364 16.7908 12.9241 16.7501 12.8987C16.7093 12.8733 16.6773 12.836 16.6585 12.7917C16.641 12.7275 16.633 12.661 16.6347 12.5945C16.6384 12.2386 16.5679 11.8859 16.4278 11.5588C16.396 11.4888 16.361 11.4172 16.3212 11.3488C16.0935 10.9563 15.7555 10.6393 15.3492 10.4372C15.1041 10.3215 14.8437 10.2411 14.576 10.1986C14.4583 10.1795 14.3406 10.1683 14.2228 10.1524C14.1922 10.1509 14.1622 10.1431 14.1347 10.1295C14.1072 10.1159 14.0828 10.0968 14.0629 10.0734C14.0431 10.05 14.0283 10.0227 14.0194 9.99338C14.0105 9.96401 14.0077 9.93314 14.0112 9.90266C14.0113 9.87148 14.0179 9.84066 14.0306 9.81221C14.0434 9.78377 14.0621 9.75835 14.0853 9.73762C14.1086 9.71688 14.136 9.70131 14.1658 9.69192C14.1955 9.68252 14.2269 9.67952 14.2578 9.68311C14.725 9.70114 15.1826 9.82057 15.599 10.0331C16.1074 10.289 16.5222 10.6987 16.7842 11.204C16.9318 11.4991 17.0306 11.816 17.0769 12.1427C17.0855 12.1853 17.0919 12.2283 17.096 12.2715C17.104 12.367 17.1072 12.4624 17.1151 12.5802C17.1151 12.5913 17.1167 12.6056 17.1167 12.6279Z" fill="white"/>
<path d="M16.0269 12.4076C16.0179 12.4479 15.997 12.4846 15.967 12.513C15.9369 12.5413 15.899 12.56 15.8583 12.5667H15.8233C15.7711 12.57 15.7193 12.5563 15.6757 12.5276C15.6321 12.4989 15.599 12.4568 15.5814 12.4076C15.5715 12.3815 15.5651 12.3542 15.5623 12.3264C15.554 12.2194 15.538 12.1131 15.5146 12.0083C15.4673 11.7961 15.3468 11.6074 15.1742 11.4753C15.0907 11.4154 14.9976 11.3702 14.8989 11.3417C14.7733 11.3051 14.6412 11.3146 14.5171 11.2844C14.4558 11.2735 14.4013 11.2388 14.3655 11.1878C14.3297 11.1368 14.3156 11.0737 14.3262 11.0124C14.3381 10.9536 14.3709 10.9011 14.4186 10.8648C14.4664 10.8285 14.5257 10.8108 14.5855 10.8151C15.3142 10.8676 15.8583 11.2176 15.9983 11.9987C16.0127 12.0712 16.0228 12.1445 16.0285 12.2183C16.0374 12.2811 16.0369 12.3449 16.0269 12.4076Z" fill="white"/>
</svg>
