<svg width="30" height="30" viewBox="0 0 30 30" fill="none" xmlns="http://www.w3.org/2000/svg">
<path fill-rule="evenodd" clip-rule="evenodd" d="M15 30C6.72896 30 0 23.271 0 15C0 6.72896 6.72896 0 15 0C23.271 0 30 6.72896 30 15C30 23.271 23.271 30 15 30ZM17.7576 22.9743C19.8895 22.2349 21.6362 20.6637 22.6063 18.6504H19.1707C18.978 19.8086 18.6929 20.8767 18.3244 21.7978C18.1508 22.2319 17.961 22.6244 17.7576 22.9743ZM7.39377 18.6504C8.36391 20.6637 10.1105 22.2349 12.2424 22.9743C12.039 22.6244 11.8492 22.2319 11.6756 21.7979C11.3071 20.8767 11.022 19.8087 10.8293 18.6504H7.39377ZM12.2424 7.02574C10.1105 7.76508 8.36391 9.33633 7.39377 11.3496H10.8293C11.022 10.1914 11.3071 9.12334 11.6756 8.20219C11.8492 7.76807 12.039 7.37561 12.2424 7.02574ZM15 6.5625C14.3849 6.5625 13.6631 7.4117 13.1163 8.77852C12.8147 9.53268 12.5756 10.4031 12.4038 11.3496H17.5962C17.4245 10.4031 17.1854 9.53268 16.8837 8.77852C16.3369 7.4117 15.6151 6.5625 15 6.5625ZM6.5625 15C6.5625 15.7243 6.65432 16.4275 6.82676 17.0987H10.6328C10.5712 16.4161 10.5385 15.7138 10.5385 15C10.5385 14.2862 10.5712 13.5839 10.6328 12.9013H6.82676C6.65432 13.5725 6.5625 14.2757 6.5625 15ZM12.19 17.0987H17.8101C17.8756 16.4204 17.9098 15.7172 17.9098 15C17.9098 14.2828 17.8757 13.5796 17.8101 12.9013H12.19C12.1245 13.5796 12.0902 14.2828 12.0902 15C12.0902 15.7172 12.1244 16.4204 12.19 17.0987ZM15 23.4375C15.6151 23.4375 16.3369 22.5883 16.8837 21.2215C17.1854 20.4673 17.4244 19.5969 17.5962 18.6504H12.4038C12.5755 19.5969 12.8146 20.4673 13.1163 21.2215C13.6631 22.5883 14.3849 23.4375 15 23.4375ZM23.4375 15C23.4375 14.2757 23.3457 13.5725 23.1732 12.9013H19.3671C19.4288 13.5839 19.4614 14.2862 19.4614 15C19.4614 15.7138 19.4288 16.4161 19.3671 17.0987H23.1732C23.3457 16.4275 23.4375 15.7243 23.4375 15ZM22.6062 11.3496C21.6362 9.33627 19.8895 7.76502 17.7575 7.02568C17.9609 7.37561 18.1507 7.76807 18.3244 8.20219C18.6929 9.12334 18.978 10.1913 19.1706 11.3496L22.6062 11.3496ZM24.9892 15C24.9892 20.508 20.508 24.9892 15 24.9892C9.49189 24.9892 5.01076 20.508 5.01076 15C5.01076 9.49195 9.49189 5.01076 15 5.01076C20.5081 5.01076 24.9892 9.49195 24.9892 15Z" fill="#FFED00"/>
</svg>
